<?xml version="1.0" encoding="UTF-8" standalone="no"?>
<!DOCTYPE svg PUBLIC "-//W3C//DTD SVG 1.1//EN"
 "http://www.w3.org/Graphics/SVG/1.1/DTD/svg11.dtd">
<!-- Generated by graphviz version 2.28.0 (20120111.1910)
 -->
<!-- Title: controllers_diagram Pages: 1 -->
<svg width="1009pt" height="1141pt"
 viewBox="0.00 0.00 1009.00 1141.00" xmlns="http://www.w3.org/2000/svg" xmlns:xlink="http://www.w3.org/1999/xlink">
<g id="graph1" class="graph" transform="scale(1 1) rotate(0) translate(4 1137)">
<title>controllers_diagram</title>
<polygon fill="white" stroke="white" points="-4,5 -4,-1137 1006,-1137 1006,5 -4,5"/>
<!-- _diagram_info -->
<g id="node1" class="node"><title>_diagram_info</title>
<text text-anchor="start" x="528" y="-67.3" font-family="Times,serif" font-size="13.00">Controllers diagram</text>
<text text-anchor="start" x="528" y="-52.3" font-family="Times,serif" font-size="13.00">Date: Jan 11 2012 &#45; 11:28</text>
<text text-anchor="start" x="528" y="-37.3" font-family="Times,serif" font-size="13.00">Migration version: 20120111000732</text>
<text text-anchor="start" x="528" y="-22.3" font-family="Times,serif" font-size="13.00">Generated by RailRoady 1.0.4</text>
<text text-anchor="start" x="528" y="-7.3" font-family="Times,serif" font-size="13.00">http://railroady.prestonlee.com</text>
</g>
<!-- AccusationsController -->
<g id="node2" class="node"><title>AccusationsController</title>
<polyline fill="none" stroke="black" points="872,-840.5 989,-840.5 "/>
<path fill="none" stroke="black" d="M989,-840.5C995,-840.5 1001,-846.5 1001,-852.5"/>
<polyline fill="none" stroke="black" points="1001,-852.5 1001,-1020.5 "/>
<path fill="none" stroke="black" d="M1001,-1020.5C1001,-1026.5 995,-1032.5 989,-1032.5"/>
<polyline fill="none" stroke="black" points="989,-1032.5 872,-1032.5 "/>
<path fill="none" stroke="black" d="M872,-1032.5C866,-1032.5 860,-1026.5 860,-1020.5"/>
<polyline fill="none" stroke="black" points="860,-1020.5 860,-852.5 "/>
<path fill="none" stroke="black" d="M860,-852.5C860,-846.5 866,-840.5 872,-840.5"/>
<text text-anchor="middle" x="930.5" y="-1015.9" font-family="Times,serif" font-size="14.00">AccusationsController</text>
<polyline fill="none" stroke="black" points="860,-1008.5 1001,-1008.5 "/>
<text text-anchor="start" x="868" y="-991.9" font-family="Times,serif" font-size="14.00">create</text>
<text text-anchor="start" x="868" y="-975.9" font-family="Times,serif" font-size="14.00">destroy</text>
<text text-anchor="start" x="868" y="-959.9" font-family="Times,serif" font-size="14.00">edit</text>
<text text-anchor="start" x="868" y="-943.9" font-family="Times,serif" font-size="14.00">index</text>
<text text-anchor="start" x="868" y="-927.9" font-family="Times,serif" font-size="14.00">new</text>
<text text-anchor="start" x="868" y="-911.9" font-family="Times,serif" font-size="14.00">show</text>
<text text-anchor="start" x="868" y="-895.9" font-family="Times,serif" font-size="14.00">update</text>
<polyline fill="none" stroke="black" points="860,-888.5 1001,-888.5 "/>
<polyline fill="none" stroke="black" points="860,-864.5 1001,-864.5 "/>
<text text-anchor="start" x="868" y="-847.9" font-family="Times,serif" font-size="14.00">_layout</text>
</g>
<!-- ApplicationController -->
<g id="node3" class="node"><title>ApplicationController</title>
<polyline fill="none" stroke="black" points="72,-80.5 242,-80.5 "/>
<path fill="none" stroke="black" d="M242,-80.5C248,-80.5 254,-86.5 254,-92.5"/>
<polyline fill="none" stroke="black" points="254,-92.5 254,-180.5 "/>
<path fill="none" stroke="black" d="M254,-180.5C254,-186.5 248,-192.5 242,-192.5"/>
<polyline fill="none" stroke="black" points="242,-192.5 72,-192.5 "/>
<path fill="none" stroke="black" d="M72,-192.5C66,-192.5 60,-186.5 60,-180.5"/>
<polyline fill="none" stroke="black" points="60,-180.5 60,-92.5 "/>
<path fill="none" stroke="black" d="M60,-92.5C60,-86.5 66,-80.5 72,-80.5"/>
<text text-anchor="middle" x="157" y="-175.9" font-family="Times,serif" font-size="14.00">ApplicationController</text>
<polyline fill="none" stroke="black" points="60,-168.5 254,-168.5 "/>
<text text-anchor="start" x="68" y="-151.9" font-family="Times,serif" font-size="14.00">_one_time_conditions_valid_8?</text>
<polyline fill="none" stroke="black" points="60,-144.5 254,-144.5 "/>
<polyline fill="none" stroke="black" points="60,-120.5 254,-120.5 "/>
<text text-anchor="start" x="68" y="-103.9" font-family="Times,serif" font-size="14.00">_layout</text>
<text text-anchor="start" x="68" y="-87.9" font-family="Times,serif" font-size="14.00">_run_process_action_callbacks</text>
</g>
<!-- ArticlesController -->
<g id="node4" class="node"><title>ArticlesController</title>
<polyline fill="none" stroke="black" points="12,-940.5 105,-940.5 "/>
<path fill="none" stroke="black" d="M105,-940.5C111,-940.5 117,-946.5 117,-952.5"/>
<polyline fill="none" stroke="black" points="117,-952.5 117,-1120.5 "/>
<path fill="none" stroke="black" d="M117,-1120.5C117,-1126.5 111,-1132.5 105,-1132.5"/>
<polyline fill="none" stroke="black" points="105,-1132.5 12,-1132.5 "/>
<path fill="none" stroke="black" d="M12,-1132.5C6,-1132.5 0,-1126.5 0,-1120.5"/>
<polyline fill="none" stroke="black" points="0,-1120.5 0,-952.5 "/>
<path fill="none" stroke="black" d="M0,-952.5C0,-946.5 6,-940.5 12,-940.5"/>
<text text-anchor="middle" x="58.5" y="-1115.9" font-family="Times,serif" font-size="14.00">ArticlesController</text>
<polyline fill="none" stroke="black" points="0,-1108.5 117,-1108.5 "/>
<text text-anchor="start" x="8" y="-1091.9" font-family="Times,serif" font-size="14.00">create</text>
<text text-anchor="start" x="8" y="-1075.9" font-family="Times,serif" font-size="14.00">destroy</text>
<text text-anchor="start" x="8" y="-1059.9" font-family="Times,serif" font-size="14.00">edit</text>
<text text-anchor="start" x="8" y="-1043.9" font-family="Times,serif" font-size="14.00">index</text>
<text text-anchor="start" x="8" y="-1027.9" font-family="Times,serif" font-size="14.00">new</text>
<text text-anchor="start" x="8" y="-1011.9" font-family="Times,serif" font-size="14.00">show</text>
<text text-anchor="start" x="8" y="-995.9" font-family="Times,serif" font-size="14.00">update</text>
<polyline fill="none" stroke="black" points="0,-988.5 117,-988.5 "/>
<polyline fill="none" stroke="black" points="0,-964.5 117,-964.5 "/>
<text text-anchor="start" x="8" y="-947.9" font-family="Times,serif" font-size="14.00">_layout</text>
</g>
<!-- BusinessAssociatesController -->
<g id="node5" class="node"><title>BusinessAssociatesController</title>
<polyline fill="none" stroke="black" points="652,-660.5 809,-660.5 "/>
<path fill="none" stroke="black" d="M809,-660.5C815,-660.5 821,-666.5 821,-672.5"/>
<polyline fill="none" stroke="black" points="821,-672.5 821,-840.5 "/>
<path fill="none" stroke="black" d="M821,-840.5C821,-846.5 815,-852.5 809,-852.5"/>
<polyline fill="none" stroke="black" points="809,-852.5 652,-852.5 "/>
<path fill="none" stroke="black" d="M652,-852.5C646,-852.5 640,-846.5 640,-840.5"/>
<polyline fill="none" stroke="black" points="640,-840.5 640,-672.5 "/>
<path fill="none" stroke="black" d="M640,-672.5C640,-666.5 646,-660.5 652,-660.5"/>
<text text-anchor="middle" x="730.5" y="-835.9" font-family="Times,serif" font-size="14.00">BusinessAssociatesController</text>
<polyline fill="none" stroke="black" points="640,-828.5 821,-828.5 "/>
<text text-anchor="start" x="648" y="-811.9" font-family="Times,serif" font-size="14.00">create</text>
<text text-anchor="start" x="648" y="-795.9" font-family="Times,serif" font-size="14.00">destroy</text>
<text text-anchor="start" x="648" y="-779.9" font-family="Times,serif" font-size="14.00">edit</text>
<text text-anchor="start" x="648" y="-763.9" font-family="Times,serif" font-size="14.00">index</text>
<text text-anchor="start" x="648" y="-747.9" font-family="Times,serif" font-size="14.00">new</text>
<text text-anchor="start" x="648" y="-731.9" font-family="Times,serif" font-size="14.00">show</text>
<text text-anchor="start" x="648" y="-715.9" font-family="Times,serif" font-size="14.00">update</text>
<polyline fill="none" stroke="black" points="640,-708.5 821,-708.5 "/>
<polyline fill="none" stroke="black" points="640,-684.5 821,-684.5 "/>
<text text-anchor="start" x="648" y="-667.9" font-family="Times,serif" font-size="14.00">_layout</text>
</g>
<!-- DegreesController -->
<g id="node6" class="node"><title>DegreesController</title>
<polyline fill="none" stroke="black" points="872,-600.5 967,-600.5 "/>
<path fill="none" stroke="black" d="M967,-600.5C973,-600.5 979,-606.5 979,-612.5"/>
<polyline fill="none" stroke="black" points="979,-612.5 979,-796.5 "/>
<path fill="none" stroke="black" d="M979,-796.5C979,-802.5 973,-808.5 967,-808.5"/>
<polyline fill="none" stroke="black" points="967,-808.5 872,-808.5 "/>
<path fill="none" stroke="black" d="M872,-808.5C866,-808.5 860,-802.5 860,-796.5"/>
<polyline fill="none" stroke="black" points="860,-796.5 860,-612.5 "/>
<path fill="none" stroke="black" d="M860,-612.5C860,-606.5 866,-600.5 872,-600.5"/>
<text text-anchor="middle" x="919.5" y="-791.9" font-family="Times,serif" font-size="14.00">DegreesController</text>
<polyline fill="none" stroke="black" points="860,-784.5 979,-784.5 "/>
<text text-anchor="start" x="868" y="-767.9" font-family="Times,serif" font-size="14.00">create</text>
<text text-anchor="start" x="868" y="-751.9" font-family="Times,serif" font-size="14.00">destroy</text>
<text text-anchor="start" x="868" y="-735.9" font-family="Times,serif" font-size="14.00">edit</text>
<text text-anchor="start" x="868" y="-719.9" font-family="Times,serif" font-size="14.00">index</text>
<text text-anchor="start" x="868" y="-703.9" font-family="Times,serif" font-size="14.00">list</text>
<text text-anchor="start" x="868" y="-687.9" font-family="Times,serif" font-size="14.00">new</text>
<text text-anchor="start" x="868" y="-671.9" font-family="Times,serif" font-size="14.00">show</text>
<text text-anchor="start" x="868" y="-655.9" font-family="Times,serif" font-size="14.00">update</text>
<polyline fill="none" stroke="black" points="860,-648.5 979,-648.5 "/>
<polyline fill="none" stroke="black" points="860,-624.5 979,-624.5 "/>
<text text-anchor="start" x="868" y="-607.9" font-family="Times,serif" font-size="14.00">_layout</text>
</g>
<!-- EndorsementsController -->
<g id="node7" class="node"><title>EndorsementsController</title>
<polyline fill="none" stroke="black" points="152,-240.5 280,-240.5 "/>
<path fill="none" stroke="black" d="M280,-240.5C286,-240.5 292,-246.5 292,-252.5"/>
<polyline fill="none" stroke="black" points="292,-252.5 292,-420.5 "/>
<path fill="none" stroke="black" d="M292,-420.5C292,-426.5 286,-432.5 280,-432.5"/>
<polyline fill="none" stroke="black" points="280,-432.5 152,-432.5 "/>
<path fill="none" stroke="black" d="M152,-432.5C146,-432.5 140,-426.5 140,-420.5"/>
<polyline fill="none" stroke="black" points="140,-420.5 140,-252.5 "/>
<path fill="none" stroke="black" d="M140,-252.5C140,-246.5 146,-240.5 152,-240.5"/>
<text text-anchor="middle" x="216" y="-415.9" font-family="Times,serif" font-size="14.00">EndorsementsController</text>
<polyline fill="none" stroke="black" points="140,-408.5 292,-408.5 "/>
<text text-anchor="start" x="148" y="-391.9" font-family="Times,serif" font-size="14.00">create</text>
<text text-anchor="start" x="148" y="-375.9" font-family="Times,serif" font-size="14.00">destroy</text>
<text text-anchor="start" x="148" y="-359.9" font-family="Times,serif" font-size="14.00">edit</text>
<text text-anchor="start" x="148" y="-343.9" font-family="Times,serif" font-size="14.00">index</text>
<text text-anchor="start" x="148" y="-327.9" font-family="Times,serif" font-size="14.00">new</text>
<text text-anchor="start" x="148" y="-311.9" font-family="Times,serif" font-size="14.00">show</text>
<text text-anchor="start" x="148" y="-295.9" font-family="Times,serif" font-size="14.00">update</text>
<polyline fill="none" stroke="black" points="140,-288.5 292,-288.5 "/>
<polyline fill="none" stroke="black" points="140,-264.5 292,-264.5 "/>
<text text-anchor="start" x="148" y="-247.9" font-family="Times,serif" font-size="14.00">_layout</text>
</g>
<!-- FamilyMembersController -->
<g id="node8" class="node"><title>FamilyMembersController</title>
<polyline fill="none" stroke="black" points="152,-480.5 292,-480.5 "/>
<path fill="none" stroke="black" d="M292,-480.5C298,-480.5 304,-486.5 304,-492.5"/>
<polyline fill="none" stroke="black" points="304,-492.5 304,-660.5 "/>
<path fill="none" stroke="black" d="M304,-660.5C304,-666.5 298,-672.5 292,-672.5"/>
<polyline fill="none" stroke="black" points="292,-672.5 152,-672.5 "/>
<path fill="none" stroke="black" d="M152,-672.5C146,-672.5 140,-666.5 140,-660.5"/>
<polyline fill="none" stroke="black" points="140,-660.5 140,-492.5 "/>
<path fill="none" stroke="black" d="M140,-492.5C140,-486.5 146,-480.5 152,-480.5"/>
<text text-anchor="middle" x="222" y="-655.9" font-family="Times,serif" font-size="14.00">FamilyMembersController</text>
<polyline fill="none" stroke="black" points="140,-648.5 304,-648.5 "/>
<text text-anchor="start" x="148" y="-631.9" font-family="Times,serif" font-size="14.00">create</text>
<text text-anchor="start" x="148" y="-615.9" font-family="Times,serif" font-size="14.00">destroy</text>
<text text-anchor="start" x="148" y="-599.9" font-family="Times,serif" font-size="14.00">edit</text>
<text text-anchor="start" x="148" y="-583.9" font-family="Times,serif" font-size="14.00">index</text>
<text text-anchor="start" x="148" y="-567.9" font-family="Times,serif" font-size="14.00">new</text>
<text text-anchor="start" x="148" y="-551.9" font-family="Times,serif" font-size="14.00">show</text>
<text text-anchor="start" x="148" y="-535.9" font-family="Times,serif" font-size="14.00">update</text>
<polyline fill="none" stroke="black" points="140,-528.5 304,-528.5 "/>
<polyline fill="none" stroke="black" points="140,-504.5 304,-504.5 "/>
<text text-anchor="start" x="148" y="-487.9" font-family="Times,serif" font-size="14.00">_layout</text>
</g>
<!-- FlipFlopsController -->
<g id="node9" class="node"><title>FlipFlopsController</title>
<polyline fill="none" stroke="black" points="792,-120.5 893,-120.5 "/>
<path fill="none" stroke="black" d="M893,-120.5C899,-120.5 905,-126.5 905,-132.5"/>
<polyline fill="none" stroke="black" points="905,-132.5 905,-300.5 "/>
<path fill="none" stroke="black" d="M905,-300.5C905,-306.5 899,-312.5 893,-312.5"/>
<polyline fill="none" stroke="black" points="893,-312.5 792,-312.5 "/>
<path fill="none" stroke="black" d="M792,-312.5C786,-312.5 780,-306.5 780,-300.5"/>
<polyline fill="none" stroke="black" points="780,-300.5 780,-132.5 "/>
<path fill="none" stroke="black" d="M780,-132.5C780,-126.5 786,-120.5 792,-120.5"/>
<text text-anchor="middle" x="842.5" y="-295.9" font-family="Times,serif" font-size="14.00">FlipFlopsController</text>
<polyline fill="none" stroke="black" points="780,-288.5 905,-288.5 "/>
<text text-anchor="start" x="788" y="-271.9" font-family="Times,serif" font-size="14.00">create</text>
<text text-anchor="start" x="788" y="-255.9" font-family="Times,serif" font-size="14.00">destroy</text>
<text text-anchor="start" x="788" y="-239.9" font-family="Times,serif" font-size="14.00">edit</text>
<text text-anchor="start" x="788" y="-223.9" font-family="Times,serif" font-size="14.00">index</text>
<text text-anchor="start" x="788" y="-207.9" font-family="Times,serif" font-size="14.00">new</text>
<text text-anchor="start" x="788" y="-191.9" font-family="Times,serif" font-size="14.00">show</text>
<text text-anchor="start" x="788" y="-175.9" font-family="Times,serif" font-size="14.00">update</text>
<polyline fill="none" stroke="black" points="780,-168.5 905,-168.5 "/>
<polyline fill="none" stroke="black" points="780,-144.5 905,-144.5 "/>
<text text-anchor="start" x="788" y="-127.9" font-family="Times,serif" font-size="14.00">_layout</text>
</g>
<!-- LitigationsController -->
<g id="node10" class="node"><title>LitigationsController</title>
<polyline fill="none" stroke="black" points="832,-360.5 940,-360.5 "/>
<path fill="none" stroke="black" d="M940,-360.5C946,-360.5 952,-366.5 952,-372.5"/>
<polyline fill="none" stroke="black" points="952,-372.5 952,-540.5 "/>
<path fill="none" stroke="black" d="M952,-540.5C952,-546.5 946,-552.5 940,-552.5"/>
<polyline fill="none" stroke="black" points="940,-552.5 832,-552.5 "/>
<path fill="none" stroke="black" d="M832,-552.5C826,-552.5 820,-546.5 820,-540.5"/>
<polyline fill="none" stroke="black" points="820,-540.5 820,-372.5 "/>
<path fill="none" stroke="black" d="M820,-372.5C820,-366.5 826,-360.5 832,-360.5"/>
<text text-anchor="middle" x="886" y="-535.9" font-family="Times,serif" font-size="14.00">LitigationsController</text>
<polyline fill="none" stroke="black" points="820,-528.5 952,-528.5 "/>
<text text-anchor="start" x="828" y="-511.9" font-family="Times,serif" font-size="14.00">create</text>
<text text-anchor="start" x="828" y="-495.9" font-family="Times,serif" font-size="14.00">destroy</text>
<text text-anchor="start" x="828" y="-479.9" font-family="Times,serif" font-size="14.00">edit</text>
<text text-anchor="start" x="828" y="-463.9" font-family="Times,serif" font-size="14.00">index</text>
<text text-anchor="start" x="828" y="-447.9" font-family="Times,serif" font-size="14.00">new</text>
<text text-anchor="start" x="828" y="-431.9" font-family="Times,serif" font-size="14.00">show</text>
<text text-anchor="start" x="828" y="-415.9" font-family="Times,serif" font-size="14.00">update</text>
<polyline fill="none" stroke="black" points="820,-408.5 952,-408.5 "/>
<polyline fill="none" stroke="black" points="820,-384.5 952,-384.5 "/>
<text text-anchor="start" x="828" y="-367.9" font-family="Times,serif" font-size="14.00">_layout</text>
</g>
<!-- OrganizationsController -->
<g id="node11" class="node"><title>OrganizationsController</title>
<polyline fill="none" stroke="black" points="172,-780.5 298,-780.5 "/>
<path fill="none" stroke="black" d="M298,-780.5C304,-780.5 310,-786.5 310,-792.5"/>
<polyline fill="none" stroke="black" points="310,-792.5 310,-960.5 "/>
<path fill="none" stroke="black" d="M310,-960.5C310,-966.5 304,-972.5 298,-972.5"/>
<polyline fill="none" stroke="black" points="298,-972.5 172,-972.5 "/>
<path fill="none" stroke="black" d="M172,-972.5C166,-972.5 160,-966.5 160,-960.5"/>
<polyline fill="none" stroke="black" points="160,-960.5 160,-792.5 "/>
<path fill="none" stroke="black" d="M160,-792.5C160,-786.5 166,-780.5 172,-780.5"/>
<text text-anchor="middle" x="235" y="-955.9" font-family="Times,serif" font-size="14.00">OrganizationsController</text>
<polyline fill="none" stroke="black" points="160,-948.5 310,-948.5 "/>
<text text-anchor="start" x="168" y="-931.9" font-family="Times,serif" font-size="14.00">create</text>
<text text-anchor="start" x="168" y="-915.9" font-family="Times,serif" font-size="14.00">destroy</text>
<text text-anchor="start" x="168" y="-899.9" font-family="Times,serif" font-size="14.00">edit</text>
<text text-anchor="start" x="168" y="-883.9" font-family="Times,serif" font-size="14.00">index</text>
<text text-anchor="start" x="168" y="-867.9" font-family="Times,serif" font-size="14.00">new</text>
<text text-anchor="start" x="168" y="-851.9" font-family="Times,serif" font-size="14.00">show</text>
<text text-anchor="start" x="168" y="-835.9" font-family="Times,serif" font-size="14.00">update</text>
<polyline fill="none" stroke="black" points="160,-828.5 310,-828.5 "/>
<polyline fill="none" stroke="black" points="160,-804.5 310,-804.5 "/>
<text text-anchor="start" x="168" y="-787.9" font-family="Times,serif" font-size="14.00">_layout</text>
</g>
<!-- PeopleController -->
<g id="node12" class="node"><title>PeopleController</title>
<polyline fill="none" stroke="black" points="592,-360.5 775,-360.5 "/>
<path fill="none" stroke="black" d="M775,-360.5C781,-360.5 787,-366.5 787,-372.5"/>
<polyline fill="none" stroke="black" points="787,-372.5 787,-604.5 "/>
<path fill="none" stroke="black" d="M787,-604.5C787,-610.5 781,-616.5 775,-616.5"/>
<polyline fill="none" stroke="black" points="775,-616.5 592,-616.5 "/>
<path fill="none" stroke="black" d="M592,-616.5C586,-616.5 580,-610.5 580,-604.5"/>
<polyline fill="none" stroke="black" points="580,-604.5 580,-372.5 "/>
<path fill="none" stroke="black" d="M580,-372.5C580,-366.5 586,-360.5 592,-360.5"/>
<text text-anchor="middle" x="683.5" y="-599.9" font-family="Times,serif" font-size="14.00">PeopleController</text>
<polyline fill="none" stroke="black" points="580,-592.5 787,-592.5 "/>
<text text-anchor="start" x="588" y="-575.9" font-family="Times,serif" font-size="14.00">_callback_before_203</text>
<text text-anchor="start" x="588" y="-559.9" font-family="Times,serif" font-size="14.00">_one_time_conditions_valid_204?</text>
<text text-anchor="start" x="588" y="-543.9" font-family="Times,serif" font-size="14.00">create</text>
<text text-anchor="start" x="588" y="-527.9" font-family="Times,serif" font-size="14.00">destroy</text>
<text text-anchor="start" x="588" y="-511.9" font-family="Times,serif" font-size="14.00">edit</text>
<text text-anchor="start" x="588" y="-495.9" font-family="Times,serif" font-size="14.00">index</text>
<text text-anchor="start" x="588" y="-479.9" font-family="Times,serif" font-size="14.00">list</text>
<text text-anchor="start" x="588" y="-463.9" font-family="Times,serif" font-size="14.00">new</text>
<text text-anchor="start" x="588" y="-447.9" font-family="Times,serif" font-size="14.00">show</text>
<text text-anchor="start" x="588" y="-431.9" font-family="Times,serif" font-size="14.00">update</text>
<polyline fill="none" stroke="black" points="580,-424.5 787,-424.5 "/>
<polyline fill="none" stroke="black" points="580,-400.5 787,-400.5 "/>
<text text-anchor="start" x="588" y="-383.9" font-family="Times,serif" font-size="14.00">_layout</text>
<text text-anchor="start" x="588" y="-367.9" font-family="Times,serif" font-size="14.00">_run_process_action_callbacks</text>
</g>
<!-- PersonalAssetsController -->
<g id="node13" class="node"><title>PersonalAssetsController</title>
<polyline fill="none" stroke="black" points="592,-120.5 725,-120.5 "/>
<path fill="none" stroke="black" d="M725,-120.5C731,-120.5 737,-126.5 737,-132.5"/>
<polyline fill="none" stroke="black" points="737,-132.5 737,-300.5 "/>
<path fill="none" stroke="black" d="M737,-300.5C737,-306.5 731,-312.5 725,-312.5"/>
<polyline fill="none" stroke="black" points="725,-312.5 592,-312.5 "/>
<path fill="none" stroke="black" d="M592,-312.5C586,-312.5 580,-306.5 580,-300.5"/>
<polyline fill="none" stroke="black" points="580,-300.5 580,-132.5 "/>
<path fill="none" stroke="black" d="M580,-132.5C580,-126.5 586,-120.5 592,-120.5"/>
<text text-anchor="middle" x="658.5" y="-295.9" font-family="Times,serif" font-size="14.00">PersonalAssetsController</text>
<polyline fill="none" stroke="black" points="580,-288.5 737,-288.5 "/>
<text text-anchor="start" x="588" y="-271.9" font-family="Times,serif" font-size="14.00">create</text>
<text text-anchor="start" x="588" y="-255.9" font-family="Times,serif" font-size="14.00">destroy</text>
<text text-anchor="start" x="588" y="-239.9" font-family="Times,serif" font-size="14.00">edit</text>
<text text-anchor="start" x="588" y="-223.9" font-family="Times,serif" font-size="14.00">index</text>
<text text-anchor="start" x="588" y="-207.9" font-family="Times,serif" font-size="14.00">new</text>
<text text-anchor="start" x="588" y="-191.9" font-family="Times,serif" font-size="14.00">show</text>
<text text-anchor="start" x="588" y="-175.9" font-family="Times,serif" font-size="14.00">update</text>
<polyline fill="none" stroke="black" points="580,-168.5 737,-168.5 "/>
<polyline fill="none" stroke="black" points="580,-144.5 737,-144.5 "/>
<text text-anchor="start" x="588" y="-127.9" font-family="Times,serif" font-size="14.00">_layout</text>
</g>
<!-- ProfessionalExperiencesController -->
<g id="node14" class="node"><title>ProfessionalExperiencesController</title>
<polyline fill="none" stroke="black" points="352,-640.5 536,-640.5 "/>
<path fill="none" stroke="black" d="M536,-640.5C542,-640.5 548,-646.5 548,-652.5"/>
<polyline fill="none" stroke="black" points="548,-652.5 548,-820.5 "/>
<path fill="none" stroke="black" d="M548,-820.5C548,-826.5 542,-832.5 536,-832.5"/>
<polyline fill="none" stroke="black" points="536,-832.5 352,-832.5 "/>
<path fill="none" stroke="black" d="M352,-832.5C346,-832.5 340,-826.5 340,-820.5"/>
<polyline fill="none" stroke="black" points="340,-820.5 340,-652.5 "/>
<path fill="none" stroke="black" d="M340,-652.5C340,-646.5 346,-640.5 352,-640.5"/>
<text text-anchor="middle" x="444" y="-815.9" font-family="Times,serif" font-size="14.00">ProfessionalExperiencesController</text>
<polyline fill="none" stroke="black" points="340,-808.5 548,-808.5 "/>
<text text-anchor="start" x="348" y="-791.9" font-family="Times,serif" font-size="14.00">create</text>
<text text-anchor="start" x="348" y="-775.9" font-family="Times,serif" font-size="14.00">destroy</text>
<text text-anchor="start" x="348" y="-759.9" font-family="Times,serif" font-size="14.00">edit</text>
<text text-anchor="start" x="348" y="-743.9" font-family="Times,serif" font-size="14.00">index</text>
<text text-anchor="start" x="348" y="-727.9" font-family="Times,serif" font-size="14.00">new</text>
<text text-anchor="start" x="348" y="-711.9" font-family="Times,serif" font-size="14.00">show</text>
<text text-anchor="start" x="348" y="-695.9" font-family="Times,serif" font-size="14.00">update</text>
<polyline fill="none" stroke="black" points="340,-688.5 548,-688.5 "/>
<polyline fill="none" stroke="black" points="340,-664.5 548,-664.5 "/>
<text text-anchor="start" x="348" y="-647.9" font-family="Times,serif" font-size="14.00">_layout</text>
</g>
<!-- ReligionsController -->
<g id="node15" class="node"><title>ReligionsController</title>
<polyline fill="none" stroke="black" points="492,-880.5 593,-880.5 "/>
<path fill="none" stroke="black" d="M593,-880.5C599,-880.5 605,-886.5 605,-892.5"/>
<polyline fill="none" stroke="black" points="605,-892.5 605,-1060.5 "/>
<path fill="none" stroke="black" d="M605,-1060.5C605,-1066.5 599,-1072.5 593,-1072.5"/>
<polyline fill="none" stroke="black" points="593,-1072.5 492,-1072.5 "/>
<path fill="none" stroke="black" d="M492,-1072.5C486,-1072.5 480,-1066.5 480,-1060.5"/>
<polyline fill="none" stroke="black" points="480,-1060.5 480,-892.5 "/>
<path fill="none" stroke="black" d="M480,-892.5C480,-886.5 486,-880.5 492,-880.5"/>
<text text-anchor="middle" x="542.5" y="-1055.9" font-family="Times,serif" font-size="14.00">ReligionsController</text>
<polyline fill="none" stroke="black" points="480,-1048.5 605,-1048.5 "/>
<text text-anchor="start" x="488" y="-1031.9" font-family="Times,serif" font-size="14.00">create</text>
<text text-anchor="start" x="488" y="-1015.9" font-family="Times,serif" font-size="14.00">destroy</text>
<text text-anchor="start" x="488" y="-999.9" font-family="Times,serif" font-size="14.00">edit</text>
<text text-anchor="start" x="488" y="-983.9" font-family="Times,serif" font-size="14.00">index</text>
<text text-anchor="start" x="488" y="-967.9" font-family="Times,serif" font-size="14.00">new</text>
<text text-anchor="start" x="488" y="-951.9" font-family="Times,serif" font-size="14.00">show</text>
<text text-anchor="start" x="488" y="-935.9" font-family="Times,serif" font-size="14.00">update</text>
<polyline fill="none" stroke="black" points="480,-928.5 605,-928.5 "/>
<polyline fill="none" stroke="black" points="480,-904.5 605,-904.5 "/>
<text text-anchor="start" x="488" y="-887.9" font-family="Times,serif" font-size="14.00">_layout</text>
</g>
<!-- TransactionsController -->
<g id="node16" class="node"><title>TransactionsController</title>
<polyline fill="none" stroke="black" points="352,-100.5 472,-100.5 "/>
<path fill="none" stroke="black" d="M472,-100.5C478,-100.5 484,-106.5 484,-112.5"/>
<polyline fill="none" stroke="black" points="484,-112.5 484,-280.5 "/>
<path fill="none" stroke="black" d="M484,-280.5C484,-286.5 478,-292.5 472,-292.5"/>
<polyline fill="none" stroke="black" points="472,-292.5 352,-292.5 "/>
<path fill="none" stroke="black" d="M352,-292.5C346,-292.5 340,-286.5 340,-280.5"/>
<polyline fill="none" stroke="black" points="340,-280.5 340,-112.5 "/>
<path fill="none" stroke="black" d="M340,-112.5C340,-106.5 346,-100.5 352,-100.5"/>
<text text-anchor="middle" x="412" y="-275.9" font-family="Times,serif" font-size="14.00">TransactionsController</text>
<polyline fill="none" stroke="black" points="340,-268.5 484,-268.5 "/>
<text text-anchor="start" x="348" y="-251.9" font-family="Times,serif" font-size="14.00">create</text>
<text text-anchor="start" x="348" y="-235.9" font-family="Times,serif" font-size="14.00">destroy</text>
<text text-anchor="start" x="348" y="-219.9" font-family="Times,serif" font-size="14.00">edit</text>
<text text-anchor="start" x="348" y="-203.9" font-family="Times,serif" font-size="14.00">index</text>
<text text-anchor="start" x="348" y="-187.9" font-family="Times,serif" font-size="14.00">new</text>
<text text-anchor="start" x="348" y="-171.9" font-family="Times,serif" font-size="14.00">show</text>
<text text-anchor="start" x="348" y="-155.9" font-family="Times,serif" font-size="14.00">update</text>
<polyline fill="none" stroke="black" points="340,-148.5 484,-148.5 "/>
<polyline fill="none" stroke="black" points="340,-124.5 484,-124.5 "/>
<text text-anchor="start" x="348" y="-107.9" font-family="Times,serif" font-size="14.00">_layout</text>
</g>
<!-- UniversitiesController -->
<g id="node17" class="node"><title>UniversitiesController</title>
<polyline fill="none" stroke="black" points="352,-340.5 535,-340.5 "/>
<path fill="none" stroke="black" d="M535,-340.5C541,-340.5 547,-346.5 547,-352.5"/>
<polyline fill="none" stroke="black" points="547,-352.5 547,-584.5 "/>
<path fill="none" stroke="black" d="M547,-584.5C547,-590.5 541,-596.5 535,-596.5"/>
<polyline fill="none" stroke="black" points="535,-596.5 352,-596.5 "/>
<path fill="none" stroke="black" d="M352,-596.5C346,-596.5 340,-590.5 340,-584.5"/>
<polyline fill="none" stroke="black" points="340,-584.5 340,-352.5 "/>
<path fill="none" stroke="black" d="M340,-352.5C340,-346.5 346,-340.5 352,-340.5"/>
<text text-anchor="middle" x="443.5" y="-579.9" font-family="Times,serif" font-size="14.00">UniversitiesController</text>
<polyline fill="none" stroke="black" points="340,-572.5 547,-572.5 "/>
<text text-anchor="start" x="348" y="-555.9" font-family="Times,serif" font-size="14.00">_one_time_conditions_valid_248?</text>
<text text-anchor="start" x="348" y="-539.9" font-family="Times,serif" font-size="14.00">create</text>
<text text-anchor="start" x="348" y="-523.9" font-family="Times,serif" font-size="14.00">destroy</text>
<text text-anchor="start" x="348" y="-507.9" font-family="Times,serif" font-size="14.00">edit</text>
<text text-anchor="start" x="348" y="-491.9" font-family="Times,serif" font-size="14.00">index</text>
<text text-anchor="start" x="348" y="-475.9" font-family="Times,serif" font-size="14.00">list</text>
<text text-anchor="start" x="348" y="-459.9" font-family="Times,serif" font-size="14.00">new</text>
<text text-anchor="start" x="348" y="-443.9" font-family="Times,serif" font-size="14.00">show</text>
<text text-anchor="start" x="348" y="-427.9" font-family="Times,serif" font-size="14.00">update</text>
<polyline fill="none" stroke="black" points="340,-420.5 547,-420.5 "/>
<polyline fill="none" stroke="black" points="340,-396.5 547,-396.5 "/>
<text text-anchor="start" x="348" y="-379.9" font-family="Times,serif" font-size="14.00">_layout</text>
<text text-anchor="start" x="348" y="-363.9" font-family="Times,serif" font-size="14.00">_run_process_action_callbacks</text>
<text text-anchor="start" x="348" y="-347.9" font-family="Times,serif" font-size="14.00">find_person</text>
</g>
<!-- VideosController -->
<g id="node18" class="node"><title>VideosController</title>
<polyline fill="none" stroke="black" points="712,-900.5 800,-900.5 "/>
<path fill="none" stroke="black" d="M800,-900.5C806,-900.5 812,-906.5 812,-912.5"/>
<polyline fill="none" stroke="black" points="812,-912.5 812,-1080.5 "/>
<path fill="none" stroke="black" d="M812,-1080.5C812,-1086.5 806,-1092.5 800,-1092.5"/>
<polyline fill="none" stroke="black" points="800,-1092.5 712,-1092.5 "/>
<path fill="none" stroke="black" d="M712,-1092.5C706,-1092.5 700,-1086.5 700,-1080.5"/>
<polyline fill="none" stroke="black" points="700,-1080.5 700,-912.5 "/>
<path fill="none" stroke="black" d="M700,-912.5C700,-906.5 706,-900.5 712,-900.5"/>
<text text-anchor="middle" x="756" y="-1075.9" font-family="Times,serif" font-size="14.00">VideosController</text>
<polyline fill="none" stroke="black" points="700,-1068.5 812,-1068.5 "/>
<text text-anchor="start" x="708" y="-1051.9" font-family="Times,serif" font-size="14.00">create</text>
<text text-anchor="start" x="708" y="-1035.9" font-family="Times,serif" font-size="14.00">destroy</text>
<text text-anchor="start" x="708" y="-1019.9" font-family="Times,serif" font-size="14.00">edit</text>
<text text-anchor="start" x="708" y="-1003.9" font-family="Times,serif" font-size="14.00">index</text>
<text text-anchor="start" x="708" y="-987.9" font-family="Times,serif" font-size="14.00">new</text>
<text text-anchor="start" x="708" y="-971.9" font-family="Times,serif" font-size="14.00">show</text>
<text text-anchor="start" x="708" y="-955.9" font-family="Times,serif" font-size="14.00">update</text>
<polyline fill="none" stroke="black" points="700,-948.5 812,-948.5 "/>
<polyline fill="none" stroke="black" points="700,-924.5 812,-924.5 "/>
<text text-anchor="start" x="708" y="-907.9" font-family="Times,serif" font-size="14.00">_layout</text>
</g>
</g>
</svg>
