<?xml version="1.0" encoding="UTF-8" standalone="no"?>
<!DOCTYPE svg PUBLIC "-//W3C//DTD SVG 1.1//EN"
 "http://www.w3.org/Graphics/SVG/1.1/DTD/svg11.dtd">
<!-- Generated by graphviz version 2.28.0 (20120325.0349)
 -->
<!-- Title: controllers_diagram Pages: 1 -->
<svg width="1020pt" height="995pt"
 viewBox="0.00 0.00 1020.38 994.60" xmlns="http://www.w3.org/2000/svg" xmlns:xlink="http://www.w3.org/1999/xlink">
<g id="graph1" class="graph" transform="scale(1 1) rotate(0) translate(4 990.6)">
<title>controllers_diagram</title>
<polygon fill="white" stroke="white" points="-4,5 -4,-990.6 1017.38,-990.6 1017.38,5 -4,5"/>
<!-- _diagram_info -->
<g id="node1" class="node"><title>_diagram_info</title>
<text text-anchor="start" x="813" y="-322" font-family="Times,serif" font-size="13.00">Controllers diagram</text>
<text text-anchor="start" x="813" y="-306.4" font-family="Times,serif" font-size="13.00">Date: Jun 29 2012 &#45; 11:32</text>
<text text-anchor="start" x="813" y="-290.8" font-family="Times,serif" font-size="13.00">Migration version: 20120626173234</text>
<text text-anchor="start" x="813" y="-275.2" font-family="Times,serif" font-size="13.00">Generated by RailRoady 1.0.7</text>
<text text-anchor="start" x="813" y="-259.6" font-family="Times,serif" font-size="13.00">http://railroady.prestonlee.com</text>
</g>
<!-- ApplicationController -->
<g id="node2" class="node"><title>ApplicationController</title>
<polyline fill="none" stroke="black" points="564,-138.5 742.635,-138.5 "/>
<path fill="none" stroke="black" d="M742.635,-138.5C748.635,-138.5 754.635,-144.5 754.635,-150.5"/>
<polyline fill="none" stroke="black" points="754.635,-150.5 754.635,-258.5 "/>
<path fill="none" stroke="black" d="M754.635,-258.5C754.635,-264.5 748.635,-270.5 742.635,-270.5"/>
<polyline fill="none" stroke="black" points="742.635,-270.5 564,-270.5 "/>
<path fill="none" stroke="black" d="M564,-270.5C558,-270.5 552,-264.5 552,-258.5"/>
<polyline fill="none" stroke="black" points="552,-258.5 552,-150.5 "/>
<path fill="none" stroke="black" d="M552,-150.5C552,-144.5 558,-138.5 564,-138.5"/>
<text text-anchor="middle" x="653.317" y="-252.5" font-family="Times,serif" font-size="14.00">ApplicationController</text>
<polyline fill="none" stroke="black" points="552,-245.7 754.635,-245.7 "/>
<text text-anchor="start" x="560" y="-227.7" font-family="Times,serif" font-size="14.00">_one_time_conditions_valid_12?</text>
<polyline fill="none" stroke="black" points="552,-220.9 754.635,-220.9 "/>
<polyline fill="none" stroke="black" points="552,-196.9 754.635,-196.9 "/>
<text text-anchor="start" x="560" y="-178.9" font-family="Times,serif" font-size="14.00">_layout</text>
<text text-anchor="start" x="560" y="-162.1" font-family="Times,serif" font-size="14.00">_run_process_action_callbacks</text>
<text text-anchor="start" x="560" y="-145.3" font-family="Times,serif" font-size="14.00">not_authenticated</text>
</g>
<!-- CommitteesController -->
<g id="node3" class="node"><title>CommitteesController</title>
<polyline fill="none" stroke="black" points="817,-391.5 934.207,-391.5 "/>
<path fill="none" stroke="black" d="M934.207,-391.5C940.207,-391.5 946.207,-397.5 946.207,-403.5"/>
<polyline fill="none" stroke="black" points="946.207,-403.5 946.207,-545.1 "/>
<path fill="none" stroke="black" d="M946.207,-545.1C946.207,-551.1 940.207,-557.1 934.207,-557.1"/>
<polyline fill="none" stroke="black" points="934.207,-557.1 817,-557.1 "/>
<path fill="none" stroke="black" d="M817,-557.1C811,-557.1 805,-551.1 805,-545.1"/>
<polyline fill="none" stroke="black" points="805,-545.1 805,-403.5 "/>
<path fill="none" stroke="black" d="M805,-403.5C805,-397.5 811,-391.5 817,-391.5"/>
<text text-anchor="middle" x="875.604" y="-539.1" font-family="Times,serif" font-size="14.00">CommitteesController</text>
<polyline fill="none" stroke="black" points="805,-532.3 946.207,-532.3 "/>
<text text-anchor="start" x="813" y="-514.3" font-family="Times,serif" font-size="14.00">edit</text>
<text text-anchor="start" x="813" y="-497.5" font-family="Times,serif" font-size="14.00">index</text>
<text text-anchor="start" x="813" y="-480.7" font-family="Times,serif" font-size="14.00">manage</text>
<text text-anchor="start" x="813" y="-463.9" font-family="Times,serif" font-size="14.00">show</text>
<text text-anchor="start" x="813" y="-447.1" font-family="Times,serif" font-size="14.00">update</text>
<polyline fill="none" stroke="black" points="805,-440.3 946.207,-440.3 "/>
<polyline fill="none" stroke="black" points="805,-416.3 946.207,-416.3 "/>
<text text-anchor="start" x="813" y="-398.3" font-family="Times,serif" font-size="14.00">_layout</text>
</g>
<!-- ContributorController -->
<g id="node4" class="node"><title>ContributorController</title>
<polyline fill="none" stroke="black" points="541,-0.5 655.876,-0.5 "/>
<path fill="none" stroke="black" d="M655.876,-0.5C661.876,-0.5 667.876,-6.5 667.876,-12.5"/>
<polyline fill="none" stroke="black" points="667.876,-12.5 667.876,-86.9 "/>
<path fill="none" stroke="black" d="M667.876,-86.9C667.876,-92.9 661.876,-98.9 655.876,-98.9"/>
<polyline fill="none" stroke="black" points="655.876,-98.9 541,-98.9 "/>
<path fill="none" stroke="black" d="M541,-98.9C535,-98.9 529,-92.9 529,-86.9"/>
<polyline fill="none" stroke="black" points="529,-86.9 529,-12.5 "/>
<path fill="none" stroke="black" d="M529,-12.5C529,-6.5 535,-0.5 541,-0.5"/>
<text text-anchor="middle" x="598.438" y="-80.9" font-family="Times,serif" font-size="14.00">ContributorController</text>
<polyline fill="none" stroke="black" points="529,-74.1 667.876,-74.1 "/>
<text text-anchor="start" x="537" y="-56.1" font-family="Times,serif" font-size="14.00">show</text>
<polyline fill="none" stroke="black" points="529,-49.3 667.876,-49.3 "/>
<polyline fill="none" stroke="black" points="529,-25.3 667.876,-25.3 "/>
<text text-anchor="start" x="537" y="-7.3" font-family="Times,serif" font-size="14.00">_layout</text>
</g>
<!-- IssuesController -->
<g id="node5" class="node"><title>IssuesController</title>
<polyline fill="none" stroke="black" points="219,-23.5 302.766,-23.5 "/>
<path fill="none" stroke="black" d="M302.766,-23.5C308.766,-23.5 314.766,-29.5 314.766,-35.5"/>
<polyline fill="none" stroke="black" points="314.766,-35.5 314.766,-160.3 "/>
<path fill="none" stroke="black" d="M314.766,-160.3C314.766,-166.3 308.766,-172.3 302.766,-172.3"/>
<polyline fill="none" stroke="black" points="302.766,-172.3 219,-172.3 "/>
<path fill="none" stroke="black" d="M219,-172.3C213,-172.3 207,-166.3 207,-160.3"/>
<polyline fill="none" stroke="black" points="207,-160.3 207,-35.5 "/>
<path fill="none" stroke="black" d="M207,-35.5C207,-29.5 213,-23.5 219,-23.5"/>
<text text-anchor="middle" x="260.883" y="-154.3" font-family="Times,serif" font-size="14.00">IssuesController</text>
<polyline fill="none" stroke="black" points="207,-147.5 314.766,-147.5 "/>
<text text-anchor="start" x="215" y="-129.5" font-family="Times,serif" font-size="14.00">edit</text>
<text text-anchor="start" x="215" y="-112.7" font-family="Times,serif" font-size="14.00">index</text>
<text text-anchor="start" x="215" y="-95.9" font-family="Times,serif" font-size="14.00">show</text>
<text text-anchor="start" x="215" y="-79.1" font-family="Times,serif" font-size="14.00">update</text>
<polyline fill="none" stroke="black" points="207,-72.3 314.766,-72.3 "/>
<polyline fill="none" stroke="black" points="207,-48.3 314.766,-48.3 "/>
<text text-anchor="start" x="215" y="-30.3" font-family="Times,serif" font-size="14.00">_layout</text>
</g>
<!-- LegislationController -->
<g id="node6" class="node"><title>LegislationController</title>
<polyline fill="none" stroke="black" points="127,-207.5 239.531,-207.5 "/>
<path fill="none" stroke="black" d="M239.531,-207.5C245.531,-207.5 251.531,-213.5 251.531,-219.5"/>
<polyline fill="none" stroke="black" points="251.531,-219.5 251.531,-394.7 "/>
<path fill="none" stroke="black" d="M251.531,-394.7C251.531,-400.7 245.531,-406.7 239.531,-406.7"/>
<polyline fill="none" stroke="black" points="239.531,-406.7 127,-406.7 "/>
<path fill="none" stroke="black" d="M127,-406.7C121,-406.7 115,-400.7 115,-394.7"/>
<polyline fill="none" stroke="black" points="115,-394.7 115,-219.5 "/>
<path fill="none" stroke="black" d="M115,-219.5C115,-213.5 121,-207.5 127,-207.5"/>
<text text-anchor="middle" x="183.266" y="-388.7" font-family="Times,serif" font-size="14.00">LegislationController</text>
<polyline fill="none" stroke="black" points="115,-381.9 251.531,-381.9 "/>
<text text-anchor="start" x="123" y="-363.9" font-family="Times,serif" font-size="14.00">edit</text>
<text text-anchor="start" x="123" y="-347.1" font-family="Times,serif" font-size="14.00">index</text>
<text text-anchor="start" x="123" y="-330.3" font-family="Times,serif" font-size="14.00">list</text>
<text text-anchor="start" x="123" y="-313.5" font-family="Times,serif" font-size="14.00">new</text>
<text text-anchor="start" x="123" y="-296.7" font-family="Times,serif" font-size="14.00">refresh</text>
<text text-anchor="start" x="123" y="-279.9" font-family="Times,serif" font-size="14.00">show</text>
<text text-anchor="start" x="123" y="-263.1" font-family="Times,serif" font-size="14.00">update</text>
<polyline fill="none" stroke="black" points="115,-256.3 251.531,-256.3 "/>
<polyline fill="none" stroke="black" points="115,-232.3 251.531,-232.3 "/>
<text text-anchor="start" x="123" y="-214.3" font-family="Times,serif" font-size="14.00">_layout</text>
</g>
<!-- MainIssuesController -->
<g id="node7" class="node"><title>MainIssuesController</title>
<polyline fill="none" stroke="black" points="58,-460.5 238.173,-460.5 "/>
<path fill="none" stroke="black" d="M238.173,-460.5C244.173,-460.5 250.173,-466.5 250.173,-472.5"/>
<polyline fill="none" stroke="black" points="250.173,-472.5 250.173,-664.5 "/>
<path fill="none" stroke="black" d="M250.173,-664.5C250.173,-670.5 244.173,-676.5 238.173,-676.5"/>
<polyline fill="none" stroke="black" points="238.173,-676.5 58,-676.5 "/>
<path fill="none" stroke="black" d="M58,-676.5C52,-676.5 46,-670.5 46,-664.5"/>
<polyline fill="none" stroke="black" points="46,-664.5 46,-472.5 "/>
<path fill="none" stroke="black" d="M46,-472.5C46,-466.5 52,-460.5 58,-460.5"/>
<text text-anchor="middle" x="148.086" y="-658.5" font-family="Times,serif" font-size="14.00">MainIssuesController</text>
<polyline fill="none" stroke="black" points="46,-651.7 250.173,-651.7 "/>
<text text-anchor="start" x="54" y="-633.7" font-family="Times,serif" font-size="14.00">autocomplete_main_issues_name</text>
<text text-anchor="start" x="54" y="-616.9" font-family="Times,serif" font-size="14.00">create</text>
<text text-anchor="start" x="54" y="-600.1" font-family="Times,serif" font-size="14.00">destroy</text>
<text text-anchor="start" x="54" y="-583.3" font-family="Times,serif" font-size="14.00">edit</text>
<text text-anchor="start" x="54" y="-566.5" font-family="Times,serif" font-size="14.00">index</text>
<text text-anchor="start" x="54" y="-549.7" font-family="Times,serif" font-size="14.00">new</text>
<text text-anchor="start" x="54" y="-532.9" font-family="Times,serif" font-size="14.00">show</text>
<text text-anchor="start" x="54" y="-516.1" font-family="Times,serif" font-size="14.00">update</text>
<polyline fill="none" stroke="black" points="46,-509.3 250.173,-509.3 "/>
<polyline fill="none" stroke="black" points="46,-485.3 250.173,-485.3 "/>
<text text-anchor="start" x="54" y="-467.3" font-family="Times,serif" font-size="14.00">_layout</text>
</g>
<!-- OrganizationsController -->
<g id="node8" class="node"><title>OrganizationsController</title>
<polyline fill="none" stroke="black" points="656,-690.5 841.635,-690.5 "/>
<path fill="none" stroke="black" d="M841.635,-690.5C847.635,-690.5 853.635,-696.5 853.635,-702.5"/>
<polyline fill="none" stroke="black" points="853.635,-702.5 853.635,-944.9 "/>
<path fill="none" stroke="black" d="M853.635,-944.9C853.635,-950.9 847.635,-956.9 841.635,-956.9"/>
<polyline fill="none" stroke="black" points="841.635,-956.9 656,-956.9 "/>
<path fill="none" stroke="black" d="M656,-956.9C650,-956.9 644,-950.9 644,-944.9"/>
<polyline fill="none" stroke="black" points="644,-944.9 644,-702.5 "/>
<path fill="none" stroke="black" d="M644,-702.5C644,-696.5 650,-690.5 656,-690.5"/>
<text text-anchor="middle" x="748.817" y="-938.9" font-family="Times,serif" font-size="14.00">OrganizationsController</text>
<polyline fill="none" stroke="black" points="644,-932.1 853.635,-932.1 "/>
<text text-anchor="start" x="652" y="-914.1" font-family="Times,serif" font-size="14.00">_callback_before_211</text>
<text text-anchor="start" x="652" y="-897.3" font-family="Times,serif" font-size="14.00">_one_time_conditions_valid_212?</text>
<text text-anchor="start" x="652" y="-880.5" font-family="Times,serif" font-size="14.00">autocomplete_organization_name</text>
<text text-anchor="start" x="652" y="-863.7" font-family="Times,serif" font-size="14.00">create</text>
<text text-anchor="start" x="652" y="-846.9" font-family="Times,serif" font-size="14.00">destroy</text>
<text text-anchor="start" x="652" y="-830.1" font-family="Times,serif" font-size="14.00">edit</text>
<text text-anchor="start" x="652" y="-813.3" font-family="Times,serif" font-size="14.00">index</text>
<text text-anchor="start" x="652" y="-796.5" font-family="Times,serif" font-size="14.00">new</text>
<text text-anchor="start" x="652" y="-779.7" font-family="Times,serif" font-size="14.00">show</text>
<text text-anchor="start" x="652" y="-762.9" font-family="Times,serif" font-size="14.00">update</text>
<polyline fill="none" stroke="black" points="644,-756.1 853.635,-756.1 "/>
<polyline fill="none" stroke="black" points="644,-732.1 853.635,-732.1 "/>
<text text-anchor="start" x="652" y="-714.1" font-family="Times,serif" font-size="14.00">_layout</text>
<text text-anchor="start" x="652" y="-697.3" font-family="Times,serif" font-size="14.00">_run_process_action_callbacks</text>
</g>
<!-- PasswordResetsController -->
<g id="node9" class="node"><title>PasswordResetsController</title>
<polyline fill="none" stroke="black" points="817,-69.5 983.938,-69.5 "/>
<path fill="none" stroke="black" d="M983.938,-69.5C989.938,-69.5 995.938,-75.5 995.938,-81.5"/>
<polyline fill="none" stroke="black" points="995.938,-81.5 995.938,-206.3 "/>
<path fill="none" stroke="black" d="M995.938,-206.3C995.938,-212.3 989.938,-218.3 983.938,-218.3"/>
<polyline fill="none" stroke="black" points="983.938,-218.3 817,-218.3 "/>
<path fill="none" stroke="black" d="M817,-218.3C811,-218.3 805,-212.3 805,-206.3"/>
<polyline fill="none" stroke="black" points="805,-206.3 805,-81.5 "/>
<path fill="none" stroke="black" d="M805,-81.5C805,-75.5 811,-69.5 817,-69.5"/>
<text text-anchor="middle" x="900.469" y="-200.3" font-family="Times,serif" font-size="14.00">PasswordResetsController</text>
<polyline fill="none" stroke="black" points="805,-193.5 995.938,-193.5 "/>
<text text-anchor="start" x="813" y="-175.5" font-family="Times,serif" font-size="14.00">create</text>
<text text-anchor="start" x="813" y="-158.7" font-family="Times,serif" font-size="14.00">edit</text>
<text text-anchor="start" x="813" y="-141.9" font-family="Times,serif" font-size="14.00">update</text>
<polyline fill="none" stroke="black" points="805,-135.1 995.938,-135.1 "/>
<polyline fill="none" stroke="black" points="805,-111.1 995.938,-111.1 "/>
<text text-anchor="start" x="813" y="-93.1" font-family="Times,serif" font-size="14.00">_layout</text>
<text text-anchor="start" x="813" y="-76.3" font-family="Times,serif" font-size="14.00">_run_process_action_callbacks</text>
</g>
<!-- PeopleController -->
<g id="node10" class="node"><title>PeopleController</title>
<polyline fill="none" stroke="black" points="311,-207.5 501.27,-207.5 "/>
<path fill="none" stroke="black" d="M501.27,-207.5C507.27,-207.5 513.27,-213.5 513.27,-219.5"/>
<polyline fill="none" stroke="black" points="513.27,-219.5 513.27,-680.3 "/>
<path fill="none" stroke="black" d="M513.27,-680.3C513.27,-686.3 507.27,-692.3 501.27,-692.3"/>
<polyline fill="none" stroke="black" points="501.27,-692.3 311,-692.3 "/>
<path fill="none" stroke="black" d="M311,-692.3C305,-692.3 299,-686.3 299,-680.3"/>
<polyline fill="none" stroke="black" points="299,-680.3 299,-219.5 "/>
<path fill="none" stroke="black" d="M299,-219.5C299,-213.5 305,-207.5 311,-207.5"/>
<text text-anchor="middle" x="406.135" y="-674.3" font-family="Times,serif" font-size="14.00">PeopleController</text>
<polyline fill="none" stroke="black" points="299,-667.5 513.27,-667.5 "/>
<text text-anchor="start" x="307" y="-649.5" font-family="Times,serif" font-size="14.00">_callback_before_535</text>
<text text-anchor="start" x="307" y="-632.7" font-family="Times,serif" font-size="14.00">_one_time_conditions_valid_536?</text>
<text text-anchor="start" x="307" y="-615.9" font-family="Times,serif" font-size="14.00">all</text>
<text text-anchor="start" x="307" y="-599.1" font-family="Times,serif" font-size="14.00">autocomplete_person_name</text>
<text text-anchor="start" x="307" y="-582.3" font-family="Times,serif" font-size="14.00">autocomplete_person_url</text>
<text text-anchor="start" x="307" y="-565.5" font-family="Times,serif" font-size="14.00">create</text>
<text text-anchor="start" x="307" y="-548.7" font-family="Times,serif" font-size="14.00">destroy</text>
<text text-anchor="start" x="307" y="-531.9" font-family="Times,serif" font-size="14.00">edit</text>
<text text-anchor="start" x="307" y="-515.1" font-family="Times,serif" font-size="14.00">index</text>
<text text-anchor="start" x="307" y="-498.3" font-family="Times,serif" font-size="14.00">indiv_contributors</text>
<text text-anchor="start" x="307" y="-481.5" font-family="Times,serif" font-size="14.00">list</text>
<text text-anchor="start" x="307" y="-464.7" font-family="Times,serif" font-size="14.00">new</text>
<text text-anchor="start" x="307" y="-447.9" font-family="Times,serif" font-size="14.00">pac_contributors</text>
<text text-anchor="start" x="307" y="-431.1" font-family="Times,serif" font-size="14.00">refresh_officials</text>
<text text-anchor="start" x="307" y="-414.3" font-family="Times,serif" font-size="14.00">representatives</text>
<text text-anchor="start" x="307" y="-397.5" font-family="Times,serif" font-size="14.00">senators</text>
<text text-anchor="start" x="307" y="-380.7" font-family="Times,serif" font-size="14.00">show</text>
<text text-anchor="start" x="307" y="-363.9" font-family="Times,serif" font-size="14.00">switch_to_representative_by_name</text>
<text text-anchor="start" x="307" y="-347.1" font-family="Times,serif" font-size="14.00">switch_to_representative_by_party</text>
<text text-anchor="start" x="307" y="-330.3" font-family="Times,serif" font-size="14.00">switch_to_representative_by_state</text>
<text text-anchor="start" x="307" y="-313.5" font-family="Times,serif" font-size="14.00">switch_to_senator_by_name</text>
<text text-anchor="start" x="307" y="-296.7" font-family="Times,serif" font-size="14.00">switch_to_senator_by_state</text>
<text text-anchor="start" x="307" y="-279.9" font-family="Times,serif" font-size="14.00">update</text>
<polyline fill="none" stroke="black" points="299,-273.1 513.27,-273.1 "/>
<polyline fill="none" stroke="black" points="299,-249.1 513.27,-249.1 "/>
<text text-anchor="start" x="307" y="-231.1" font-family="Times,serif" font-size="14.00">_layout</text>
<text text-anchor="start" x="307" y="-214.3" font-family="Times,serif" font-size="14.00">_run_process_action_callbacks</text>
</g>
<!-- ReligionsController -->
<g id="node11" class="node"><title>ReligionsController</title>
<polyline fill="none" stroke="black" points="150,-736.5 335.635,-736.5 "/>
<path fill="none" stroke="black" d="M335.635,-736.5C341.635,-736.5 347.635,-742.5 347.635,-748.5"/>
<polyline fill="none" stroke="black" points="347.635,-748.5 347.635,-974.1 "/>
<path fill="none" stroke="black" d="M347.635,-974.1C347.635,-980.1 341.635,-986.1 335.635,-986.1"/>
<polyline fill="none" stroke="black" points="335.635,-986.1 150,-986.1 "/>
<path fill="none" stroke="black" d="M150,-986.1C144,-986.1 138,-980.1 138,-974.1"/>
<polyline fill="none" stroke="black" points="138,-974.1 138,-748.5 "/>
<path fill="none" stroke="black" d="M138,-748.5C138,-742.5 144,-736.5 150,-736.5"/>
<text text-anchor="middle" x="242.817" y="-968.1" font-family="Times,serif" font-size="14.00">ReligionsController</text>
<polyline fill="none" stroke="black" points="138,-961.3 347.635,-961.3 "/>
<text text-anchor="start" x="146" y="-943.3" font-family="Times,serif" font-size="14.00">_callback_before_551</text>
<text text-anchor="start" x="146" y="-926.5" font-family="Times,serif" font-size="14.00">_one_time_conditions_valid_552?</text>
<text text-anchor="start" x="146" y="-909.7" font-family="Times,serif" font-size="14.00">create</text>
<text text-anchor="start" x="146" y="-892.9" font-family="Times,serif" font-size="14.00">destroy</text>
<text text-anchor="start" x="146" y="-876.1" font-family="Times,serif" font-size="14.00">edit</text>
<text text-anchor="start" x="146" y="-859.3" font-family="Times,serif" font-size="14.00">index</text>
<text text-anchor="start" x="146" y="-842.5" font-family="Times,serif" font-size="14.00">new</text>
<text text-anchor="start" x="146" y="-825.7" font-family="Times,serif" font-size="14.00">show</text>
<text text-anchor="start" x="146" y="-808.9" font-family="Times,serif" font-size="14.00">update</text>
<polyline fill="none" stroke="black" points="138,-802.1 347.635,-802.1 "/>
<polyline fill="none" stroke="black" points="138,-778.1 347.635,-778.1 "/>
<text text-anchor="start" x="146" y="-760.1" font-family="Times,serif" font-size="14.00">_layout</text>
<text text-anchor="start" x="146" y="-743.3" font-family="Times,serif" font-size="14.00">_run_process_action_callbacks</text>
</g>
<!-- SessionsController -->
<g id="node12" class="node"><title>SessionsController</title>
<polyline fill="none" stroke="black" points="380,-23.5 477.779,-23.5 "/>
<path fill="none" stroke="black" d="M477.779,-23.5C483.779,-23.5 489.779,-29.5 489.779,-35.5"/>
<polyline fill="none" stroke="black" points="489.779,-35.5 489.779,-143.5 "/>
<path fill="none" stroke="black" d="M489.779,-143.5C489.779,-149.5 483.779,-155.5 477.779,-155.5"/>
<polyline fill="none" stroke="black" points="477.779,-155.5 380,-155.5 "/>
<path fill="none" stroke="black" d="M380,-155.5C374,-155.5 368,-149.5 368,-143.5"/>
<polyline fill="none" stroke="black" points="368,-143.5 368,-35.5 "/>
<path fill="none" stroke="black" d="M368,-35.5C368,-29.5 374,-23.5 380,-23.5"/>
<text text-anchor="middle" x="428.89" y="-137.5" font-family="Times,serif" font-size="14.00">SessionsController</text>
<polyline fill="none" stroke="black" points="368,-130.7 489.779,-130.7 "/>
<text text-anchor="start" x="376" y="-112.7" font-family="Times,serif" font-size="14.00">create</text>
<text text-anchor="start" x="376" y="-95.9" font-family="Times,serif" font-size="14.00">destroy</text>
<text text-anchor="start" x="376" y="-79.1" font-family="Times,serif" font-size="14.00">new</text>
<polyline fill="none" stroke="black" points="368,-72.3 489.779,-72.3 "/>
<polyline fill="none" stroke="black" points="368,-48.3 489.779,-48.3 "/>
<text text-anchor="start" x="376" y="-30.3" font-family="Times,serif" font-size="14.00">_layout</text>
</g>
<!-- SubcommitteesController -->
<g id="node13" class="node"><title>SubcommitteesController</title>
<polyline fill="none" stroke="black" points="12,-46.5 147.869,-46.5 "/>
<path fill="none" stroke="black" d="M147.869,-46.5C153.869,-46.5 159.869,-52.5 159.869,-58.5"/>
<polyline fill="none" stroke="black" points="159.869,-58.5 159.869,-149.7 "/>
<path fill="none" stroke="black" d="M159.869,-149.7C159.869,-155.7 153.869,-161.7 147.869,-161.7"/>
<polyline fill="none" stroke="black" points="147.869,-161.7 12,-161.7 "/>
<path fill="none" stroke="black" d="M12,-161.7C6,-161.7 0,-155.7 0,-149.7"/>
<polyline fill="none" stroke="black" points="0,-149.7 0,-58.5 "/>
<path fill="none" stroke="black" d="M0,-58.5C0,-52.5 6,-46.5 12,-46.5"/>
<text text-anchor="middle" x="79.9346" y="-143.7" font-family="Times,serif" font-size="14.00">SubcommitteesController</text>
<polyline fill="none" stroke="black" points="0,-136.9 159.869,-136.9 "/>
<text text-anchor="start" x="8" y="-118.9" font-family="Times,serif" font-size="14.00">index</text>
<text text-anchor="start" x="8" y="-102.1" font-family="Times,serif" font-size="14.00">show</text>
<polyline fill="none" stroke="black" points="0,-95.3 159.869,-95.3 "/>
<polyline fill="none" stroke="black" points="0,-71.3 159.869,-71.3 "/>
<text text-anchor="start" x="8" y="-53.3" font-family="Times,serif" font-size="14.00">_layout</text>
</g>
<!-- UniversitiesController -->
<g id="node14" class="node"><title>UniversitiesController</title>
<polyline fill="none" stroke="black" points="564,-322.5 749.635,-322.5 "/>
<path fill="none" stroke="black" d="M749.635,-322.5C755.635,-322.5 761.635,-328.5 761.635,-334.5"/>
<polyline fill="none" stroke="black" points="761.635,-334.5 761.635,-627.3 "/>
<path fill="none" stroke="black" d="M761.635,-627.3C761.635,-633.3 755.635,-639.3 749.635,-639.3"/>
<polyline fill="none" stroke="black" points="749.635,-639.3 564,-639.3 "/>
<path fill="none" stroke="black" d="M564,-639.3C558,-639.3 552,-633.3 552,-627.3"/>
<polyline fill="none" stroke="black" points="552,-627.3 552,-334.5 "/>
<path fill="none" stroke="black" d="M552,-334.5C552,-328.5 558,-322.5 564,-322.5"/>
<text text-anchor="middle" x="656.817" y="-621.3" font-family="Times,serif" font-size="14.00">UniversitiesController</text>
<polyline fill="none" stroke="black" points="552,-614.5 761.635,-614.5 "/>
<text text-anchor="start" x="560" y="-596.5" font-family="Times,serif" font-size="14.00">_callback_before_605</text>
<text text-anchor="start" x="560" y="-579.7" font-family="Times,serif" font-size="14.00">_one_time_conditions_valid_606?</text>
<text text-anchor="start" x="560" y="-562.9" font-family="Times,serif" font-size="14.00">_one_time_conditions_valid_608?</text>
<text text-anchor="start" x="560" y="-546.1" font-family="Times,serif" font-size="14.00">autocomplete_university_name</text>
<text text-anchor="start" x="560" y="-529.3" font-family="Times,serif" font-size="14.00">create</text>
<text text-anchor="start" x="560" y="-512.5" font-family="Times,serif" font-size="14.00">destroy</text>
<text text-anchor="start" x="560" y="-495.7" font-family="Times,serif" font-size="14.00">edit</text>
<text text-anchor="start" x="560" y="-478.9" font-family="Times,serif" font-size="14.00">index</text>
<text text-anchor="start" x="560" y="-462.1" font-family="Times,serif" font-size="14.00">list</text>
<text text-anchor="start" x="560" y="-445.3" font-family="Times,serif" font-size="14.00">new</text>
<text text-anchor="start" x="560" y="-428.5" font-family="Times,serif" font-size="14.00">show</text>
<text text-anchor="start" x="560" y="-411.7" font-family="Times,serif" font-size="14.00">update</text>
<polyline fill="none" stroke="black" points="552,-404.9 761.635,-404.9 "/>
<polyline fill="none" stroke="black" points="552,-380.9 761.635,-380.9 "/>
<text text-anchor="start" x="560" y="-362.9" font-family="Times,serif" font-size="14.00">_layout</text>
<text text-anchor="start" x="560" y="-346.1" font-family="Times,serif" font-size="14.00">_run_process_action_callbacks</text>
<text text-anchor="start" x="560" y="-329.3" font-family="Times,serif" font-size="14.00">find_person</text>
</g>
<!-- UsersController -->
<g id="node15" class="node"><title>UsersController</title>
<polyline fill="none" stroke="black" points="403,-736.5 588.635,-736.5 "/>
<path fill="none" stroke="black" d="M588.635,-736.5C594.635,-736.5 600.635,-742.5 600.635,-748.5"/>
<polyline fill="none" stroke="black" points="600.635,-748.5 600.635,-974.1 "/>
<path fill="none" stroke="black" d="M600.635,-974.1C600.635,-980.1 594.635,-986.1 588.635,-986.1"/>
<polyline fill="none" stroke="black" points="588.635,-986.1 403,-986.1 "/>
<path fill="none" stroke="black" d="M403,-986.1C397,-986.1 391,-980.1 391,-974.1"/>
<polyline fill="none" stroke="black" points="391,-974.1 391,-748.5 "/>
<path fill="none" stroke="black" d="M391,-748.5C391,-742.5 397,-736.5 403,-736.5"/>
<text text-anchor="middle" x="495.817" y="-968.1" font-family="Times,serif" font-size="14.00">UsersController</text>
<polyline fill="none" stroke="black" points="391,-961.3 600.635,-961.3 "/>
<text text-anchor="start" x="399" y="-943.3" font-family="Times,serif" font-size="14.00">_callback_before_630</text>
<text text-anchor="start" x="399" y="-926.5" font-family="Times,serif" font-size="14.00">_one_time_conditions_valid_631?</text>
<text text-anchor="start" x="399" y="-909.7" font-family="Times,serif" font-size="14.00">create</text>
<text text-anchor="start" x="399" y="-892.9" font-family="Times,serif" font-size="14.00">destroy</text>
<text text-anchor="start" x="399" y="-876.1" font-family="Times,serif" font-size="14.00">edit</text>
<text text-anchor="start" x="399" y="-859.3" font-family="Times,serif" font-size="14.00">index</text>
<text text-anchor="start" x="399" y="-842.5" font-family="Times,serif" font-size="14.00">new</text>
<text text-anchor="start" x="399" y="-825.7" font-family="Times,serif" font-size="14.00">show</text>
<text text-anchor="start" x="399" y="-808.9" font-family="Times,serif" font-size="14.00">update</text>
<polyline fill="none" stroke="black" points="391,-802.1 600.635,-802.1 "/>
<polyline fill="none" stroke="black" points="391,-778.1 600.635,-778.1 "/>
<text text-anchor="start" x="399" y="-760.1" font-family="Times,serif" font-size="14.00">_layout</text>
<text text-anchor="start" x="399" y="-743.3" font-family="Times,serif" font-size="14.00">_run_process_action_callbacks</text>
</g>
</g>
</svg>
