<?xml version="1.0" encoding="UTF-8" standalone="no"?>
<!DOCTYPE svg PUBLIC "-//W3C//DTD SVG 1.1//EN"
 "http://www.w3.org/Graphics/SVG/1.1/DTD/svg11.dtd">
<!-- Generated by graphviz version 2.28.0 (20120111.1910)
 -->
<!-- Title: models_diagram Pages: 1 -->
<svg width="1954pt" height="1004pt"
 viewBox="0.00 0.00 1954.00 1004.00" xmlns="http://www.w3.org/2000/svg" xmlns:xlink="http://www.w3.org/1999/xlink">
<g id="graph1" class="graph" transform="scale(1 1) rotate(0) translate(4 1000)">
<title>models_diagram</title>
<polygon fill="white" stroke="white" points="-4,5 -4,-1000 1951,-1000 1951,5 -4,5"/>
<!-- _diagram_info -->
<g id="node1" class="node"><title>_diagram_info</title>
<text text-anchor="start" x="552" y="-956.8" font-family="Times,serif" font-size="13.00">Models diagram</text>
<text text-anchor="start" x="552" y="-941.8" font-family="Times,serif" font-size="13.00">Date: Jan 11 2012 &#45; 11:28</text>
<text text-anchor="start" x="552" y="-926.8" font-family="Times,serif" font-size="13.00">Migration version: 20120111000732</text>
<text text-anchor="start" x="552" y="-911.8" font-family="Times,serif" font-size="13.00">Generated by RailRoady 1.0.4</text>
<text text-anchor="start" x="552" y="-896.8" font-family="Times,serif" font-size="13.00">http://railroady.prestonlee.com</text>
</g>
<!-- Accusation -->
<g id="node2" class="node"><title>Accusation</title>
<polyline fill="none" stroke="black" points="162.5,-159 271.5,-159 "/>
<path fill="none" stroke="black" d="M271.5,-159C277.5,-159 283.5,-165 283.5,-171"/>
<polyline fill="none" stroke="black" points="283.5,-171 283.5,-259 "/>
<path fill="none" stroke="black" d="M283.5,-259C283.5,-265 277.5,-271 271.5,-271"/>
<polyline fill="none" stroke="black" points="271.5,-271 162.5,-271 "/>
<path fill="none" stroke="black" d="M162.5,-271C156.5,-271 150.5,-265 150.5,-259"/>
<polyline fill="none" stroke="black" points="150.5,-259 150.5,-171 "/>
<path fill="none" stroke="black" d="M150.5,-171C150.5,-165 156.5,-159 162.5,-159"/>
<text text-anchor="middle" x="217" y="-254.4" font-family="Times,serif" font-size="14.00">Accusation</text>
<polyline fill="none" stroke="black" points="150.5,-247 283.5,-247 "/>
<text text-anchor="start" x="158.5" y="-230.4" font-family="Times,serif" font-size="14.00">date :date</text>
<text text-anchor="start" x="158.5" y="-214.4" font-family="Times,serif" font-size="14.00">accusation :string</text>
<text text-anchor="start" x="158.5" y="-198.4" font-family="Times,serif" font-size="14.00">outcome :boolean</text>
<text text-anchor="start" x="158.5" y="-182.4" font-family="Times,serif" font-size="14.00">created_at :datetime</text>
<text text-anchor="start" x="158.5" y="-166.4" font-family="Times,serif" font-size="14.00">updated_at :datetime</text>
</g>
<!-- Article -->
<g id="node3" class="node"><title>Article</title>
<polyline fill="none" stroke="black" points="313.5,-143 422.5,-143 "/>
<path fill="none" stroke="black" d="M422.5,-143C428.5,-143 434.5,-149 434.5,-155"/>
<polyline fill="none" stroke="black" points="434.5,-155 434.5,-275 "/>
<path fill="none" stroke="black" d="M434.5,-275C434.5,-281 428.5,-287 422.5,-287"/>
<polyline fill="none" stroke="black" points="422.5,-287 313.5,-287 "/>
<path fill="none" stroke="black" d="M313.5,-287C307.5,-287 301.5,-281 301.5,-275"/>
<polyline fill="none" stroke="black" points="301.5,-275 301.5,-155 "/>
<path fill="none" stroke="black" d="M301.5,-155C301.5,-149 307.5,-143 313.5,-143"/>
<text text-anchor="middle" x="368" y="-270.4" font-family="Times,serif" font-size="14.00">Article</text>
<polyline fill="none" stroke="black" points="301.5,-263 434.5,-263 "/>
<text text-anchor="start" x="309.5" y="-246.4" font-family="Times,serif" font-size="14.00">title :string</text>
<text text-anchor="start" x="309.5" y="-230.4" font-family="Times,serif" font-size="14.00">excerpt :text</text>
<text text-anchor="start" x="309.5" y="-214.4" font-family="Times,serif" font-size="14.00">article_url :string</text>
<text text-anchor="start" x="309.5" y="-198.4" font-family="Times,serif" font-size="14.00">pdf_url :string</text>
<text text-anchor="start" x="309.5" y="-182.4" font-family="Times,serif" font-size="14.00">date :date</text>
<text text-anchor="start" x="309.5" y="-166.4" font-family="Times,serif" font-size="14.00">created_at :datetime</text>
<text text-anchor="start" x="309.5" y="-150.4" font-family="Times,serif" font-size="14.00">updated_at :datetime</text>
</g>
<!-- BusinessAssociate -->
<g id="node4" class="node"><title>BusinessAssociate</title>
<polyline fill="none" stroke="black" points="464.5,-159 603.5,-159 "/>
<path fill="none" stroke="black" d="M603.5,-159C609.5,-159 615.5,-165 615.5,-171"/>
<polyline fill="none" stroke="black" points="615.5,-171 615.5,-259 "/>
<path fill="none" stroke="black" d="M615.5,-259C615.5,-265 609.5,-271 603.5,-271"/>
<polyline fill="none" stroke="black" points="603.5,-271 464.5,-271 "/>
<path fill="none" stroke="black" d="M464.5,-271C458.5,-271 452.5,-265 452.5,-259"/>
<polyline fill="none" stroke="black" points="452.5,-259 452.5,-171 "/>
<path fill="none" stroke="black" d="M452.5,-171C452.5,-165 458.5,-159 464.5,-159"/>
<text text-anchor="middle" x="534" y="-254.4" font-family="Times,serif" font-size="14.00">BusinessAssociate</text>
<polyline fill="none" stroke="black" points="452.5,-247 615.5,-247 "/>
<text text-anchor="start" x="460.5" y="-230.4" font-family="Times,serif" font-size="14.00">full_name :string</text>
<text text-anchor="start" x="460.5" y="-214.4" font-family="Times,serif" font-size="14.00">position :string</text>
<text text-anchor="start" x="460.5" y="-198.4" font-family="Times,serif" font-size="14.00">business_relationship :text</text>
<text text-anchor="start" x="460.5" y="-182.4" font-family="Times,serif" font-size="14.00">created_at :datetime</text>
<text text-anchor="start" x="460.5" y="-166.4" font-family="Times,serif" font-size="14.00">updated_at :datetime</text>
</g>
<!-- Degree -->
<g id="node5" class="node"><title>Degree</title>
<polyline fill="none" stroke="black" points="1129.5,-1 1242.5,-1 "/>
<path fill="none" stroke="black" d="M1242.5,-1C1248.5,-1 1254.5,-7 1254.5,-13"/>
<polyline fill="none" stroke="black" points="1254.5,-13 1254.5,-85 "/>
<path fill="none" stroke="black" d="M1254.5,-85C1254.5,-91 1248.5,-97 1242.5,-97"/>
<polyline fill="none" stroke="black" points="1242.5,-97 1129.5,-97 "/>
<path fill="none" stroke="black" d="M1129.5,-97C1123.5,-97 1117.5,-91 1117.5,-85"/>
<polyline fill="none" stroke="black" points="1117.5,-85 1117.5,-13 "/>
<path fill="none" stroke="black" d="M1117.5,-13C1117.5,-7 1123.5,-1 1129.5,-1"/>
<text text-anchor="middle" x="1186" y="-80.4" font-family="Times,serif" font-size="14.00">Degree</text>
<polyline fill="none" stroke="black" points="1117.5,-73 1254.5,-73 "/>
<text text-anchor="start" x="1125.5" y="-56.4" font-family="Times,serif" font-size="14.00">degree_earned :string</text>
<text text-anchor="start" x="1125.5" y="-40.4" font-family="Times,serif" font-size="14.00">year_earned :date</text>
<text text-anchor="start" x="1125.5" y="-24.4" font-family="Times,serif" font-size="14.00">created_at :datetime</text>
<text text-anchor="start" x="1125.5" y="-8.4" font-family="Times,serif" font-size="14.00">updated_at :datetime</text>
</g>
<!-- Endorsement -->
<g id="node6" class="node"><title>Endorsement</title>
<polyline fill="none" stroke="black" points="684.5,-167 821.5,-167 "/>
<path fill="none" stroke="black" d="M821.5,-167C827.5,-167 833.5,-173 833.5,-179"/>
<polyline fill="none" stroke="black" points="833.5,-179 833.5,-251 "/>
<path fill="none" stroke="black" d="M833.5,-251C833.5,-257 827.5,-263 821.5,-263"/>
<polyline fill="none" stroke="black" points="821.5,-263 684.5,-263 "/>
<path fill="none" stroke="black" d="M684.5,-263C678.5,-263 672.5,-257 672.5,-251"/>
<polyline fill="none" stroke="black" points="672.5,-251 672.5,-179 "/>
<path fill="none" stroke="black" d="M672.5,-179C672.5,-173 678.5,-167 684.5,-167"/>
<text text-anchor="middle" x="753" y="-246.4" font-family="Times,serif" font-size="14.00">Endorsement</text>
<polyline fill="none" stroke="black" points="672.5,-239 833.5,-239 "/>
<text text-anchor="start" x="680.5" y="-222.4" font-family="Times,serif" font-size="14.00">year :date</text>
<text text-anchor="start" x="680.5" y="-206.4" font-family="Times,serif" font-size="14.00">organization_name :string</text>
<text text-anchor="start" x="680.5" y="-190.4" font-family="Times,serif" font-size="14.00">created_at :datetime</text>
<text text-anchor="start" x="680.5" y="-174.4" font-family="Times,serif" font-size="14.00">updated_at :datetime</text>
</g>
<!-- FamilyMember -->
<g id="node7" class="node"><title>FamilyMember</title>
<polyline fill="none" stroke="black" points="863.5,-159 972.5,-159 "/>
<path fill="none" stroke="black" d="M972.5,-159C978.5,-159 984.5,-165 984.5,-171"/>
<polyline fill="none" stroke="black" points="984.5,-171 984.5,-259 "/>
<path fill="none" stroke="black" d="M984.5,-259C984.5,-265 978.5,-271 972.5,-271"/>
<polyline fill="none" stroke="black" points="972.5,-271 863.5,-271 "/>
<path fill="none" stroke="black" d="M863.5,-271C857.5,-271 851.5,-265 851.5,-259"/>
<polyline fill="none" stroke="black" points="851.5,-259 851.5,-171 "/>
<path fill="none" stroke="black" d="M851.5,-171C851.5,-165 857.5,-159 863.5,-159"/>
<text text-anchor="middle" x="918" y="-254.4" font-family="Times,serif" font-size="14.00">FamilyMember</text>
<polyline fill="none" stroke="black" points="851.5,-247 984.5,-247 "/>
<text text-anchor="start" x="859.5" y="-230.4" font-family="Times,serif" font-size="14.00">name :string</text>
<text text-anchor="start" x="859.5" y="-214.4" font-family="Times,serif" font-size="14.00">relationship :string</text>
<text text-anchor="start" x="859.5" y="-198.4" font-family="Times,serif" font-size="14.00">notes :text</text>
<text text-anchor="start" x="859.5" y="-182.4" font-family="Times,serif" font-size="14.00">created_at :datetime</text>
<text text-anchor="start" x="859.5" y="-166.4" font-family="Times,serif" font-size="14.00">updated_at :datetime</text>
</g>
<!-- FlipFlop -->
<g id="node8" class="node"><title>FlipFlop</title>
<polyline fill="none" stroke="black" points="1014.5,-159 1123.5,-159 "/>
<path fill="none" stroke="black" d="M1123.5,-159C1129.5,-159 1135.5,-165 1135.5,-171"/>
<polyline fill="none" stroke="black" points="1135.5,-171 1135.5,-259 "/>
<path fill="none" stroke="black" d="M1135.5,-259C1135.5,-265 1129.5,-271 1123.5,-271"/>
<polyline fill="none" stroke="black" points="1123.5,-271 1014.5,-271 "/>
<path fill="none" stroke="black" d="M1014.5,-271C1008.5,-271 1002.5,-265 1002.5,-259"/>
<polyline fill="none" stroke="black" points="1002.5,-259 1002.5,-171 "/>
<path fill="none" stroke="black" d="M1002.5,-171C1002.5,-165 1008.5,-159 1014.5,-159"/>
<text text-anchor="middle" x="1069" y="-254.4" font-family="Times,serif" font-size="14.00">FlipFlop</text>
<polyline fill="none" stroke="black" points="1002.5,-247 1135.5,-247 "/>
<text text-anchor="start" x="1010.5" y="-230.4" font-family="Times,serif" font-size="14.00">year :date</text>
<text text-anchor="start" x="1010.5" y="-214.4" font-family="Times,serif" font-size="14.00">issue :string</text>
<text text-anchor="start" x="1010.5" y="-198.4" font-family="Times,serif" font-size="14.00">flipflop :text</text>
<text text-anchor="start" x="1010.5" y="-182.4" font-family="Times,serif" font-size="14.00">created_at :datetime</text>
<text text-anchor="start" x="1010.5" y="-166.4" font-family="Times,serif" font-size="14.00">updated_at :datetime</text>
</g>
<!-- Litigation -->
<g id="node9" class="node"><title>Litigation</title>
<polyline fill="none" stroke="black" points="1165.5,-159 1274.5,-159 "/>
<path fill="none" stroke="black" d="M1274.5,-159C1280.5,-159 1286.5,-165 1286.5,-171"/>
<polyline fill="none" stroke="black" points="1286.5,-171 1286.5,-259 "/>
<path fill="none" stroke="black" d="M1286.5,-259C1286.5,-265 1280.5,-271 1274.5,-271"/>
<polyline fill="none" stroke="black" points="1274.5,-271 1165.5,-271 "/>
<path fill="none" stroke="black" d="M1165.5,-271C1159.5,-271 1153.5,-265 1153.5,-259"/>
<polyline fill="none" stroke="black" points="1153.5,-259 1153.5,-171 "/>
<path fill="none" stroke="black" d="M1153.5,-171C1153.5,-165 1159.5,-159 1165.5,-159"/>
<text text-anchor="middle" x="1220" y="-254.4" font-family="Times,serif" font-size="14.00">Litigation</text>
<polyline fill="none" stroke="black" points="1153.5,-247 1286.5,-247 "/>
<text text-anchor="start" x="1161.5" y="-230.4" font-family="Times,serif" font-size="14.00">date :date</text>
<text text-anchor="start" x="1161.5" y="-214.4" font-family="Times,serif" font-size="14.00">litigation :string</text>
<text text-anchor="start" x="1161.5" y="-198.4" font-family="Times,serif" font-size="14.00">outcome :boolean</text>
<text text-anchor="start" x="1161.5" y="-182.4" font-family="Times,serif" font-size="14.00">created_at :datetime</text>
<text text-anchor="start" x="1161.5" y="-166.4" font-family="Times,serif" font-size="14.00">updated_at :datetime</text>
</g>
<!-- Organization -->
<g id="node10" class="node"><title>Organization</title>
<polyline fill="none" stroke="black" points="11.5,-175 120.5,-175 "/>
<path fill="none" stroke="black" d="M120.5,-175C126.5,-175 132.5,-181 132.5,-187"/>
<polyline fill="none" stroke="black" points="132.5,-187 132.5,-243 "/>
<path fill="none" stroke="black" d="M132.5,-243C132.5,-249 126.5,-255 120.5,-255"/>
<polyline fill="none" stroke="black" points="120.5,-255 11.5,-255 "/>
<path fill="none" stroke="black" d="M11.5,-255C5.5,-255 -0.5,-249 -0.5,-243"/>
<polyline fill="none" stroke="black" points="-0.5,-243 -0.5,-187 "/>
<path fill="none" stroke="black" d="M-0.5,-187C-0.5,-181 5.5,-175 11.5,-175"/>
<text text-anchor="middle" x="66" y="-238.4" font-family="Times,serif" font-size="14.00">Organization</text>
<polyline fill="none" stroke="black" points="-0.5,-231 132.5,-231 "/>
<text text-anchor="start" x="7.5" y="-214.4" font-family="Times,serif" font-size="14.00">name :string</text>
<text text-anchor="start" x="7.5" y="-198.4" font-family="Times,serif" font-size="14.00">created_at :datetime</text>
<text text-anchor="start" x="7.5" y="-182.4" font-family="Times,serif" font-size="14.00">updated_at :datetime</text>
</g>
<!-- Person -->
<g id="node11" class="node"><title>Person</title>
<polyline fill="none" stroke="black" points="748.5,-333 921.5,-333 "/>
<path fill="none" stroke="black" d="M921.5,-333C927.5,-333 933.5,-339 933.5,-345"/>
<polyline fill="none" stroke="black" points="933.5,-345 933.5,-817 "/>
<path fill="none" stroke="black" d="M933.5,-817C933.5,-823 927.5,-829 921.5,-829"/>
<polyline fill="none" stroke="black" points="921.5,-829 748.5,-829 "/>
<path fill="none" stroke="black" d="M748.5,-829C742.5,-829 736.5,-823 736.5,-817"/>
<polyline fill="none" stroke="black" points="736.5,-817 736.5,-345 "/>
<path fill="none" stroke="black" d="M736.5,-345C736.5,-339 742.5,-333 748.5,-333"/>
<text text-anchor="middle" x="835" y="-812.4" font-family="Times,serif" font-size="14.00">Person</text>
<polyline fill="none" stroke="black" points="736.5,-805 933.5,-805 "/>
<text text-anchor="start" x="744.5" y="-788.4" font-family="Times,serif" font-size="14.00">first_name :string</text>
<text text-anchor="start" x="744.5" y="-772.4" font-family="Times,serif" font-size="14.00">middle_name :string</text>
<text text-anchor="start" x="744.5" y="-756.4" font-family="Times,serif" font-size="14.00">last_name :string</text>
<text text-anchor="start" x="744.5" y="-740.4" font-family="Times,serif" font-size="14.00">suffix :string</text>
<text text-anchor="start" x="744.5" y="-724.4" font-family="Times,serif" font-size="14.00">date_of_birth :date</text>
<text text-anchor="start" x="744.5" y="-708.4" font-family="Times,serif" font-size="14.00">date_of_death :date</text>
<text text-anchor="start" x="744.5" y="-692.4" font-family="Times,serif" font-size="14.00">title :string</text>
<text text-anchor="start" x="744.5" y="-676.4" font-family="Times,serif" font-size="14.00">bio :text</text>
<text text-anchor="start" x="744.5" y="-660.4" font-family="Times,serif" font-size="14.00">position :integer</text>
<text text-anchor="start" x="744.5" y="-644.4" font-family="Times,serif" font-size="14.00">created_at :datetime</text>
<text text-anchor="start" x="744.5" y="-628.4" font-family="Times,serif" font-size="14.00">updated_at :datetime</text>
<text text-anchor="start" x="744.5" y="-612.4" font-family="Times,serif" font-size="14.00">professional_experience :text</text>
<text text-anchor="start" x="744.5" y="-596.4" font-family="Times,serif" font-size="14.00">literary_work :text</text>
<text text-anchor="start" x="744.5" y="-580.4" font-family="Times,serif" font-size="14.00">current_residence :string</text>
<text text-anchor="start" x="744.5" y="-564.4" font-family="Times,serif" font-size="14.00">dates_in_office :text</text>
<text text-anchor="start" x="744.5" y="-548.4" font-family="Times,serif" font-size="14.00">photo_url :string</text>
<text text-anchor="start" x="744.5" y="-532.4" font-family="Times,serif" font-size="14.00">contact_street_address :string</text>
<text text-anchor="start" x="744.5" y="-516.4" font-family="Times,serif" font-size="14.00">contact_city :string</text>
<text text-anchor="start" x="744.5" y="-500.4" font-family="Times,serif" font-size="14.00">contact_state :string</text>
<text text-anchor="start" x="744.5" y="-484.4" font-family="Times,serif" font-size="14.00">contact_zip :integer</text>
<text text-anchor="start" x="744.5" y="-468.4" font-family="Times,serif" font-size="14.00">contact_phone :string</text>
<text text-anchor="start" x="744.5" y="-452.4" font-family="Times,serif" font-size="14.00">contact_fax :string</text>
<text text-anchor="start" x="744.5" y="-436.4" font-family="Times,serif" font-size="14.00">contact_email :string</text>
<text text-anchor="start" x="744.5" y="-420.4" font-family="Times,serif" font-size="14.00">contact_web_page_name :string</text>
<text text-anchor="start" x="744.5" y="-404.4" font-family="Times,serif" font-size="14.00">contact_web_page_url :string</text>
<text text-anchor="start" x="744.5" y="-388.4" font-family="Times,serif" font-size="14.00">net_worth_ranking :integer</text>
<text text-anchor="start" x="744.5" y="-372.4" font-family="Times,serif" font-size="14.00">net_worth_minimum :integer</text>
<text text-anchor="start" x="744.5" y="-356.4" font-family="Times,serif" font-size="14.00">net_worth_average :integer</text>
<text text-anchor="start" x="744.5" y="-340.4" font-family="Times,serif" font-size="14.00">net_worth_maximum :integer</text>
</g>
<!-- Organization&#45;&gt;Person -->
<g id="edge2" class="edge"><title>Organization&#45;&gt;Person</title>
<path fill="none" stroke="black" d="M110.765,-261.291C122.616,-273.687 135.986,-286.35 150,-296 334.68,-423.172 585.01,-507.779 726.307,-549.529"/>
<ellipse fill="none" stroke="black" cx="107.814" cy="-258.155" rx="4.00002" ry="4.00002"/>
<polygon fill="black" stroke="black" points="726.695,-549.643 735.021,-556.779 731.492,-551.052 736.289,-552.461 736.289,-552.461 736.289,-552.461 731.492,-551.052 737.558,-548.144 726.695,-549.643 726.695,-549.643"/>
</g>
<!-- Person&#45;&gt;Accusation -->
<g id="edge22" class="edge"><title>Person&#45;&gt;Accusation</title>
<path fill="none" stroke="black" d="M728.893,-537.246C614.749,-488.448 430.94,-401.572 292,-296 284.876,-290.587 277.839,-284.464 271.098,-278.076"/>
<ellipse fill="none" stroke="black" cx="732.629" cy="-538.837" rx="4.00002" ry="4.00002"/>
<polygon fill="black" stroke="black" points="271.067,-278.045 267.053,-267.84 267.488,-274.553 263.91,-271.061 263.91,-271.061 263.91,-271.061 267.488,-274.553 260.767,-274.281 271.067,-278.045 271.067,-278.045"/>
</g>
<!-- Person&#45;&gt;Article -->
<g id="edge12" class="edge"><title>Person&#45;&gt;Article</title>
<path fill="none" stroke="black" d="M729.667,-511.751C648.309,-457.161 534.533,-376.656 443,-296 442.313,-295.394 441.625,-294.783 440.936,-294.167"/>
<ellipse fill="none" stroke="black" cx="733.127" cy="-514.068" rx="4.00002" ry="4.00002"/>
<polygon fill="black" stroke="black" points="440.921,-294.153 436.601,-284.074 437.239,-290.771 433.557,-287.389 433.557,-287.389 433.557,-287.389 437.239,-290.771 430.513,-290.703 440.921,-294.153 440.921,-294.153"/>
</g>
<!-- Person&#45;&gt;BusinessAssociate -->
<g id="edge18" class="edge"><title>Person&#45;&gt;BusinessAssociate</title>
<path fill="none" stroke="black" d="M731.15,-454.414C682.228,-395.252 626.007,-327.265 586.154,-279.07"/>
<ellipse fill="none" stroke="black" cx="733.892" cy="-457.73" rx="4.00002" ry="4.00002"/>
<polygon fill="black" stroke="black" points="586.027,-278.916 583.122,-268.342 582.84,-275.063 579.654,-271.21 579.654,-271.21 579.654,-271.21 582.84,-275.063 576.186,-274.077 586.027,-278.916 586.027,-278.916"/>
</g>
<!-- Person&#45;&gt;Degree -->
<g id="edge6" class="edge"><title>Person&#45;&gt;Degree</title>
<path fill="none" stroke="black" d="M731.541,-465.414C656.586,-368.188 581.49,-229.646 663,-134 719.1,-68.1713 975.116,-53.7299 1106.98,-50.7003"/>
<ellipse fill="none" stroke="black" cx="734.02" cy="-468.601" rx="4.00002" ry="4.00002"/>
<polygon fill="black" stroke="black" points="1107.03,-50.6993 1117.12,-54.985 1112.03,-50.5927 1117.03,-50.486 1117.03,-50.486 1117.03,-50.486 1112.03,-50.5927 1116.93,-45.987 1107.03,-50.6993 1107.03,-50.6993"/>
</g>
<!-- Person&#45;&gt;Endorsement -->
<g id="edge20" class="edge"><title>Person&#45;&gt;Endorsement</title>
<path fill="none" stroke="black" d="M777.557,-325.009C773.282,-306.031 769.292,-288.322 765.824,-272.926"/>
<ellipse fill="none" stroke="black" cx="778.461" cy="-329.022" rx="4.00001" ry="4.00001"/>
<polygon fill="black" stroke="black" points="765.82,-272.908 768.012,-262.163 764.721,-268.03 763.622,-263.152 763.622,-263.152 763.622,-263.152 764.721,-268.03 759.232,-264.141 765.82,-272.908 765.82,-272.908"/>
</g>
<!-- Person&#45;&gt;FamilyMember -->
<g id="edge8" class="edge"><title>Person&#45;&gt;FamilyMember</title>
<path fill="none" stroke="black" d="M893.14,-325.027C896.712,-309.361 900.087,-294.56 903.131,-281.21"/>
<ellipse fill="none" stroke="black" cx="892.228" cy="-329.025" rx="4.00001" ry="4.00001"/>
<polygon fill="black" stroke="black" points="903.168,-281.044 909.779,-272.295 904.28,-276.169 905.392,-271.294 905.392,-271.294 905.392,-271.294 904.28,-276.169 901.004,-270.294 903.168,-281.044 903.168,-281.044"/>
</g>
<!-- Person&#45;&gt;FlipFlop -->
<g id="edge14" class="edge"><title>Person&#45;&gt;FlipFlop</title>
<path fill="none" stroke="black" d="M937.934,-419.88C969.71,-370.452 1002.89,-318.839 1027.91,-279.911"/>
<ellipse fill="none" stroke="black" cx="935.722" cy="-423.321" rx="4.00002" ry="4.00002"/>
<polygon fill="black" stroke="black" points="1028.04,-279.714 1037.23,-273.736 1030.74,-275.508 1033.45,-271.302 1033.45,-271.302 1033.45,-271.302 1030.74,-275.508 1029.66,-268.869 1028.04,-279.714 1028.04,-279.714"/>
</g>
<!-- Person&#45;&gt;Litigation -->
<g id="edge24" class="edge"><title>Person&#45;&gt;Litigation</title>
<path fill="none" stroke="black" d="M939.834,-486.87C1000.43,-432.245 1077.58,-361.329 1144,-296 1149.67,-290.427 1155.49,-284.559 1161.28,-278.639"/>
<ellipse fill="none" stroke="black" cx="936.622" cy="-489.763" rx="4.00002" ry="4.00002"/>
<polygon fill="black" stroke="black" points="1161.6,-278.305 1171.79,-274.264 1165.08,-274.718 1168.56,-271.13 1168.56,-271.13 1168.56,-271.13 1165.08,-274.718 1165.34,-267.996 1161.6,-278.305 1161.6,-278.305"/>
</g>
<!-- Person&#45;&gt;Organization -->
<g id="edge16" class="edge"><title>Person&#45;&gt;Organization</title>
<path fill="none" stroke="black" d="M726.453,-553.098C581.775,-512.713 322.106,-426.908 132,-296 118.623,-286.789 105.833,-274.832 95.0565,-262.983"/>
<polygon fill="black" stroke="black" points="726.604,-553.14 735.04,-560.146 731.423,-554.475 736.241,-555.81 736.241,-555.81 736.241,-555.81 731.423,-554.475 737.443,-551.473 726.604,-553.14 726.604,-553.14"/>
<polygon fill="black" stroke="black" points="94.8668,-262.766 91.6659,-252.278 91.5734,-259.004 88.28,-255.242 88.28,-255.242 88.28,-255.242 91.5734,-259.004 84.894,-258.206 94.8668,-262.766 94.8668,-262.766"/>
</g>
<!-- PersonalAsset -->
<g id="node12" class="node"><title>PersonalAsset</title>
<polyline fill="none" stroke="black" points="1316.5,-135 1453.5,-135 "/>
<path fill="none" stroke="black" d="M1453.5,-135C1459.5,-135 1465.5,-141 1465.5,-147"/>
<polyline fill="none" stroke="black" points="1465.5,-147 1465.5,-283 "/>
<path fill="none" stroke="black" d="M1465.5,-283C1465.5,-289 1459.5,-295 1453.5,-295"/>
<polyline fill="none" stroke="black" points="1453.5,-295 1316.5,-295 "/>
<path fill="none" stroke="black" d="M1316.5,-295C1310.5,-295 1304.5,-289 1304.5,-283"/>
<polyline fill="none" stroke="black" points="1304.5,-283 1304.5,-147 "/>
<path fill="none" stroke="black" d="M1304.5,-147C1304.5,-141 1310.5,-135 1316.5,-135"/>
<text text-anchor="middle" x="1385" y="-278.4" font-family="Times,serif" font-size="14.00">PersonalAsset</text>
<polyline fill="none" stroke="black" points="1304.5,-271 1465.5,-271 "/>
<text text-anchor="start" x="1312.5" y="-254.4" font-family="Times,serif" font-size="14.00">organization_name :string</text>
<text text-anchor="start" x="1312.5" y="-238.4" font-family="Times,serif" font-size="14.00">action :boolean</text>
<text text-anchor="start" x="1312.5" y="-222.4" font-family="Times,serif" font-size="14.00">date :date</text>
<text text-anchor="start" x="1312.5" y="-206.4" font-family="Times,serif" font-size="14.00">value_min :integer</text>
<text text-anchor="start" x="1312.5" y="-190.4" font-family="Times,serif" font-size="14.00">value_max :integer</text>
<text text-anchor="start" x="1312.5" y="-174.4" font-family="Times,serif" font-size="14.00">value :integer</text>
<text text-anchor="start" x="1312.5" y="-158.4" font-family="Times,serif" font-size="14.00">created_at :datetime</text>
<text text-anchor="start" x="1312.5" y="-142.4" font-family="Times,serif" font-size="14.00">updated_at :datetime</text>
</g>
<!-- Person&#45;&gt;PersonalAsset -->
<g id="edge28" class="edge"><title>Person&#45;&gt;PersonalAsset</title>
<path fill="none" stroke="black" d="M940.855,-521.666C1036.33,-467.433 1179.13,-382.246 1295,-296 1295.39,-295.711 1295.78,-295.421 1296.16,-295.13"/>
<ellipse fill="none" stroke="black" cx="937.257" cy="-523.706" rx="4.00002" ry="4.00002"/>
<polygon fill="black" stroke="black" points="1296.42,-294.934 1307.09,-292.414 1300.39,-291.889 1304.35,-288.844 1304.35,-288.844 1304.35,-288.844 1300.39,-291.889 1301.61,-285.275 1296.42,-294.934 1296.42,-294.934"/>
</g>
<!-- Transaction -->
<g id="node15" class="node"><title>Transaction</title>
<polyline fill="none" stroke="black" points="1495.5,-151 1632.5,-151 "/>
<path fill="none" stroke="black" d="M1632.5,-151C1638.5,-151 1644.5,-157 1644.5,-163"/>
<polyline fill="none" stroke="black" points="1644.5,-163 1644.5,-267 "/>
<path fill="none" stroke="black" d="M1644.5,-267C1644.5,-273 1638.5,-279 1632.5,-279"/>
<polyline fill="none" stroke="black" points="1632.5,-279 1495.5,-279 "/>
<path fill="none" stroke="black" d="M1495.5,-279C1489.5,-279 1483.5,-273 1483.5,-267"/>
<polyline fill="none" stroke="black" points="1483.5,-267 1483.5,-163 "/>
<path fill="none" stroke="black" d="M1483.5,-163C1483.5,-157 1489.5,-151 1495.5,-151"/>
<text text-anchor="middle" x="1564" y="-262.4" font-family="Times,serif" font-size="14.00">Transaction</text>
<polyline fill="none" stroke="black" points="1483.5,-255 1644.5,-255 "/>
<text text-anchor="start" x="1491.5" y="-238.4" font-family="Times,serif" font-size="14.00">organization_name :string</text>
<text text-anchor="start" x="1491.5" y="-222.4" font-family="Times,serif" font-size="14.00">action :boolean</text>
<text text-anchor="start" x="1491.5" y="-206.4" font-family="Times,serif" font-size="14.00">date :date</text>
<text text-anchor="start" x="1491.5" y="-190.4" font-family="Times,serif" font-size="14.00">value :integer</text>
<text text-anchor="start" x="1491.5" y="-174.4" font-family="Times,serif" font-size="14.00">created_at :datetime</text>
<text text-anchor="start" x="1491.5" y="-158.4" font-family="Times,serif" font-size="14.00">updated_at :datetime</text>
</g>
<!-- Person&#45;&gt;Transaction -->
<g id="edge26" class="edge"><title>Person&#45;&gt;Transaction</title>
<path fill="none" stroke="black" d="M941.352,-544.229C1072.44,-497.613 1299.28,-408.591 1474,-296 1479.19,-292.656 1484.38,-289.019 1489.5,-285.201"/>
<ellipse fill="none" stroke="black" cx="937.403" cy="-545.629" rx="4.00001" ry="4.00001"/>
<polygon fill="black" stroke="black" points="1489.55,-285.161 1500.22,-282.636 1493.52,-282.114 1497.48,-279.068 1497.48,-279.068 1497.48,-279.068 1493.52,-282.114 1494.74,-275.5 1489.55,-285.161 1489.55,-285.161"/>
</g>
<!-- University -->
<g id="node16" class="node"><title>University</title>
<polyline fill="none" stroke="black" points="1674.5,-175 1783.5,-175 "/>
<path fill="none" stroke="black" d="M1783.5,-175C1789.5,-175 1795.5,-181 1795.5,-187"/>
<polyline fill="none" stroke="black" points="1795.5,-187 1795.5,-243 "/>
<path fill="none" stroke="black" d="M1795.5,-243C1795.5,-249 1789.5,-255 1783.5,-255"/>
<polyline fill="none" stroke="black" points="1783.5,-255 1674.5,-255 "/>
<path fill="none" stroke="black" d="M1674.5,-255C1668.5,-255 1662.5,-249 1662.5,-243"/>
<polyline fill="none" stroke="black" points="1662.5,-243 1662.5,-187 "/>
<path fill="none" stroke="black" d="M1662.5,-187C1662.5,-181 1668.5,-175 1674.5,-175"/>
<text text-anchor="middle" x="1729" y="-238.4" font-family="Times,serif" font-size="14.00">University</text>
<polyline fill="none" stroke="black" points="1662.5,-231 1795.5,-231 "/>
<text text-anchor="start" x="1670.5" y="-214.4" font-family="Times,serif" font-size="14.00">name :string</text>
<text text-anchor="start" x="1670.5" y="-198.4" font-family="Times,serif" font-size="14.00">created_at :datetime</text>
<text text-anchor="start" x="1670.5" y="-182.4" font-family="Times,serif" font-size="14.00">updated_at :datetime</text>
</g>
<!-- Person&#45;&gt;University -->
<g id="edge4" class="edge"><title>Person&#45;&gt;University</title>
<path fill="none" stroke="black" d="M943.713,-559.515C1107.67,-524.974 1423.43,-443.994 1653,-296 1667,-286.975 1680.26,-274.851 1691.66,-262.775"/>
<polygon fill="black" stroke="black" points="943.405,-559.579 932.696,-557.219 938.51,-560.602 933.616,-561.624 933.616,-561.624 933.616,-561.624 938.51,-560.602 934.536,-566.029 943.405,-559.579 943.405,-559.579"/>
<polygon fill="black" stroke="black" points="1691.76,-262.666 1701.83,-258.328 1695.14,-258.978 1698.51,-255.29 1698.51,-255.29 1698.51,-255.29 1695.14,-258.978 1695.19,-252.251 1691.76,-262.666 1691.76,-262.666"/>
</g>
<!-- Video -->
<g id="node17" class="node"><title>Video</title>
<polyline fill="none" stroke="black" points="1825.5,-143 1934.5,-143 "/>
<path fill="none" stroke="black" d="M1934.5,-143C1940.5,-143 1946.5,-149 1946.5,-155"/>
<polyline fill="none" stroke="black" points="1946.5,-155 1946.5,-275 "/>
<path fill="none" stroke="black" d="M1946.5,-275C1946.5,-281 1940.5,-287 1934.5,-287"/>
<polyline fill="none" stroke="black" points="1934.5,-287 1825.5,-287 "/>
<path fill="none" stroke="black" d="M1825.5,-287C1819.5,-287 1813.5,-281 1813.5,-275"/>
<polyline fill="none" stroke="black" points="1813.5,-275 1813.5,-155 "/>
<path fill="none" stroke="black" d="M1813.5,-155C1813.5,-149 1819.5,-143 1825.5,-143"/>
<text text-anchor="middle" x="1880" y="-270.4" font-family="Times,serif" font-size="14.00">Video</text>
<polyline fill="none" stroke="black" points="1813.5,-263 1946.5,-263 "/>
<text text-anchor="start" x="1821.5" y="-246.4" font-family="Times,serif" font-size="14.00">date :date</text>
<text text-anchor="start" x="1821.5" y="-230.4" font-family="Times,serif" font-size="14.00">title :string</text>
<text text-anchor="start" x="1821.5" y="-214.4" font-family="Times,serif" font-size="14.00">description :text</text>
<text text-anchor="start" x="1821.5" y="-198.4" font-family="Times,serif" font-size="14.00">video_url :string</text>
<text text-anchor="start" x="1821.5" y="-182.4" font-family="Times,serif" font-size="14.00">thumbnail_url :string</text>
<text text-anchor="start" x="1821.5" y="-166.4" font-family="Times,serif" font-size="14.00">created_at :datetime</text>
<text text-anchor="start" x="1821.5" y="-150.4" font-family="Times,serif" font-size="14.00">updated_at :datetime</text>
</g>
<!-- Person&#45;&gt;Video -->
<g id="edge10" class="edge"><title>Person&#45;&gt;Video</title>
<path fill="none" stroke="black" d="M941.805,-567.222C1128.57,-541.02 1521.47,-468.468 1804,-296 1805.52,-295.074 1807.03,-294.109 1808.52,-293.111"/>
<ellipse fill="none" stroke="black" cx="937.575" cy="-567.81" rx="4.00001" ry="4.00001"/>
<polygon fill="black" stroke="black" points="1808.84,-292.885 1819.58,-290.703 1812.9,-289.967 1816.96,-287.048 1816.96,-287.048 1816.96,-287.048 1812.9,-289.967 1814.33,-283.394 1808.84,-292.885 1808.84,-292.885"/>
</g>
<!-- ProfessionalExperience -->
<g id="node13" class="node"><title>ProfessionalExperience</title>
<polyline fill="none" stroke="black" points="932,-867 1054,-867 "/>
<path fill="none" stroke="black" d="M1054,-867C1060,-867 1066,-873 1066,-879"/>
<polyline fill="none" stroke="black" points="1066,-879 1066,-983 "/>
<path fill="none" stroke="black" d="M1066,-983C1066,-989 1060,-995 1054,-995"/>
<polyline fill="none" stroke="black" points="1054,-995 932,-995 "/>
<path fill="none" stroke="black" d="M932,-995C926,-995 920,-989 920,-983"/>
<polyline fill="none" stroke="black" points="920,-983 920,-879 "/>
<path fill="none" stroke="black" d="M920,-879C920,-873 926,-867 932,-867"/>
<text text-anchor="middle" x="993" y="-978.4" font-family="Times,serif" font-size="14.00">ProfessionalExperience</text>
<polyline fill="none" stroke="black" points="920,-971 1066,-971 "/>
<text text-anchor="start" x="928" y="-954.4" font-family="Times,serif" font-size="14.00">position :string</text>
<text text-anchor="start" x="928" y="-938.4" font-family="Times,serif" font-size="14.00">date_started :date</text>
<text text-anchor="start" x="928" y="-922.4" font-family="Times,serif" font-size="14.00">date_ended :date</text>
<text text-anchor="start" x="928" y="-906.4" font-family="Times,serif" font-size="14.00">accomplishments :text</text>
<text text-anchor="start" x="928" y="-890.4" font-family="Times,serif" font-size="14.00">created_at :datetime</text>
<text text-anchor="start" x="928" y="-874.4" font-family="Times,serif" font-size="14.00">updated_at :datetime</text>
</g>
<!-- Religion -->
<g id="node14" class="node"><title>Religion</title>
<polyline fill="none" stroke="black" points="780.5,-891 889.5,-891 "/>
<path fill="none" stroke="black" d="M889.5,-891C895.5,-891 901.5,-897 901.5,-903"/>
<polyline fill="none" stroke="black" points="901.5,-903 901.5,-959 "/>
<path fill="none" stroke="black" d="M901.5,-959C901.5,-965 895.5,-971 889.5,-971"/>
<polyline fill="none" stroke="black" points="889.5,-971 780.5,-971 "/>
<path fill="none" stroke="black" d="M780.5,-971C774.5,-971 768.5,-965 768.5,-959"/>
<polyline fill="none" stroke="black" points="768.5,-959 768.5,-903 "/>
<path fill="none" stroke="black" d="M768.5,-903C768.5,-897 774.5,-891 780.5,-891"/>
<text text-anchor="middle" x="835" y="-954.4" font-family="Times,serif" font-size="14.00">Religion</text>
<polyline fill="none" stroke="black" points="768.5,-947 901.5,-947 "/>
<text text-anchor="start" x="776.5" y="-930.4" font-family="Times,serif" font-size="14.00">name :string</text>
<text text-anchor="start" x="776.5" y="-914.4" font-family="Times,serif" font-size="14.00">created_at :datetime</text>
<text text-anchor="start" x="776.5" y="-898.4" font-family="Times,serif" font-size="14.00">updated_at :datetime</text>
</g>
<!-- Religion&#45;&gt;Person -->
<g id="edge30" class="edge"><title>Religion&#45;&gt;Person</title>
<path fill="none" stroke="black" d="M835,-880.379C835,-868.162 835,-854.232 835,-839.221"/>
<polygon fill="black" stroke="black" points="835,-880.756 830.5,-890.756 835,-885.756 835,-890.756 835,-890.756 835,-890.756 835,-885.756 839.5,-890.756 835,-880.756 835,-880.756"/>
<polygon fill="black" stroke="black" points="835,-839.207 839.5,-829.207 835,-834.207 835,-829.207 835,-829.207 835,-829.207 835,-834.207 830.5,-829.207 835,-839.207 835,-839.207"/>
</g>
<!-- University&#45;&gt;Degree -->
<g id="edge32" class="edge"><title>University&#45;&gt;Degree</title>
<path fill="none" stroke="black" d="M1695.46,-168.923C1683.47,-155.748 1668.94,-142.594 1653,-134 1528.87,-67.0713 1361.92,-52.092 1264.93,-49.5126"/>
<ellipse fill="none" stroke="black" cx="1698.14" cy="-171.962" rx="4.00002" ry="4.00002"/>
<polygon fill="black" stroke="black" points="1264.9,-49.5119 1255,-44.7847 1259.9,-49.3977 1254.9,-49.2835 1254.9,-49.2835 1254.9,-49.2835 1259.9,-49.3977 1254.8,-53.7824 1264.9,-49.5119 1264.9,-49.5119"/>
</g>
</g>
</svg>
