<?xml version="1.0" encoding="UTF-8" standalone="no"?>
<!DOCTYPE svg PUBLIC "-//W3C//DTD SVG 1.1//EN"
 "http://www.w3.org/Graphics/SVG/1.1/DTD/svg11.dtd">
<!-- Generated by graphviz version 2.28.0 (20120325.0349)
 -->
<!-- Title: models_diagram Pages: 1 -->
<svg width="3388pt" height="382pt"
 viewBox="0.00 0.00 3388.00 382.00" xmlns="http://www.w3.org/2000/svg" xmlns:xlink="http://www.w3.org/1999/xlink">
<g id="graph1" class="graph" transform="scale(1 1) rotate(0) translate(4 378)">
<title>models_diagram</title>
<polygon fill="white" stroke="white" points="-4,5 -4,-378 3385,-378 3385,5 -4,5"/>
<!-- _diagram_info -->
<g id="node1" class="node"><title>_diagram_info</title>
<text text-anchor="start" x="1343.31" y="-357" font-family="Times,serif" font-size="13.00">Models diagram</text>
<text text-anchor="start" x="1343.31" y="-341.4" font-family="Times,serif" font-size="13.00">Date: Jun 29 2012 &#45; 11:32</text>
<text text-anchor="start" x="1343.31" y="-325.8" font-family="Times,serif" font-size="13.00">Migration version: 20120626173234</text>
<text text-anchor="start" x="1343.31" y="-310.2" font-family="Times,serif" font-size="13.00">Generated by RailRoady 1.0.7</text>
<text text-anchor="start" x="1343.31" y="-294.6" font-family="Times,serif" font-size="13.00">http://railroady.prestonlee.com</text>
</g>
<!-- Ability -->
<g id="node2" class="node"><title>Ability</title>
<polygon fill="none" stroke="black" points="1616.26,-349 1561.74,-349 1561.74,-313 1616.26,-313 1616.26,-349"/>
<text text-anchor="middle" x="1589" y="-325.4" font-family="Times,serif" font-size="14.00">Ability</text>
</g>
<!-- Accusation -->
<g id="node3" class="node"><title>Accusation</title>
<ellipse fill="none" stroke="black" cx="443" cy="-90" rx="54.218" ry="18"/>
<text text-anchor="middle" x="443" y="-84.4" font-family="Times,serif" font-size="14.00">Accusation</text>
</g>
<!-- BusinessAssociate -->
<g id="node4" class="node"><title>BusinessAssociate</title>
<ellipse fill="none" stroke="black" cx="2702" cy="-90" rx="82.3825" ry="18"/>
<text text-anchor="middle" x="2702" y="-84.4" font-family="Times,serif" font-size="14.00">BusinessAssociate</text>
</g>
<!-- CampaignPlatform -->
<g id="node5" class="node"><title>CampaignPlatform</title>
<ellipse fill="none" stroke="black" cx="2887" cy="-90" rx="84.2867" ry="18"/>
<text text-anchor="middle" x="2887" y="-84.4" font-family="Times,serif" font-size="14.00">CampaignPlatform</text>
</g>
<!-- Committee -->
<g id="node6" class="node"><title>Committee</title>
<ellipse fill="none" stroke="black" cx="1689" cy="-331" rx="53.4262" ry="18"/>
<text text-anchor="middle" x="1689" y="-325.4" font-family="Times,serif" font-size="14.00">Committee</text>
</g>
<!-- CommitteeAssignment -->
<g id="node7" class="node"><title>CommitteeAssignment</title>
<ellipse fill="none" stroke="black" cx="3280" cy="-90" rx="100.135" ry="18"/>
<text text-anchor="middle" x="3280" y="-84.4" font-family="Times,serif" font-size="14.00">CommitteeAssignment</text>
</g>
<!-- Committee&#45;&gt;CommitteeAssignment -->
<g id="edge4" class="edge"><title>Committee&#45;&gt;CommitteeAssignment</title>
<path fill="none" stroke="#fa7315" d="M1714.34,-309.201C1725.29,-301.288 1738.64,-292.985 1752,-288 1900.8,-232.478 3012.73,-130.13 3170,-108 3178.92,-106.744 3188.25,-105.382 3197.53,-103.994"/>
<ellipse fill="none" stroke="#fa7315" cx="1711.06" cy="-311.651" rx="4.00002" ry="4.00002"/>
<polygon fill="#fa7315" stroke="#fa7315" points="3197.67,-103.972 3208.23,-106.93 3202.61,-103.226 3207.56,-102.481 3207.56,-102.481 3207.56,-102.481 3202.61,-103.226 3206.89,-98.0309 3197.67,-103.972 3197.67,-103.972"/>
</g>
<!-- CommitteeLegislation -->
<g id="node8" class="node"><title>CommitteeLegislation</title>
<ellipse fill="none" stroke="black" cx="516" cy="-162" rx="97.0963" ry="18"/>
<text text-anchor="middle" x="516" y="-156.4" font-family="Times,serif" font-size="14.00">CommitteeLegislation</text>
</g>
<!-- Committee&#45;&gt;CommitteeLegislation -->
<g id="edge8" class="edge"><title>Committee&#45;&gt;CommitteeLegislation</title>
<path fill="none" stroke="#a61348" d="M1663.91,-309.01C1652.72,-300.895 1638.93,-292.494 1625,-288 1449.3,-231.32 976.764,-284.338 795,-252 711.419,-237.13 618.175,-203.795 563.431,-182.409"/>
<ellipse fill="none" stroke="#a61348" cx="1667.33" cy="-311.582" rx="4.00002" ry="4.00002"/>
<polygon fill="#a61348" stroke="#a61348" points="563.301,-182.357 555.647,-174.505 558.649,-180.525 553.997,-178.692 553.997,-178.692 553.997,-178.692 558.649,-180.525 552.348,-182.879 563.301,-182.357 563.301,-182.357"/>
</g>
<!-- Legislation -->
<g id="node17" class="node"><title>Legislation</title>
<ellipse fill="none" stroke="black" cx="858" cy="-234" rx="54.2251" ry="18"/>
<text text-anchor="middle" x="858" y="-228.4" font-family="Times,serif" font-size="14.00">Legislation</text>
</g>
<!-- Committee&#45;&gt;Legislation -->
<g id="edge10" class="edge"><title>Committee&#45;&gt;Legislation</title>
<path fill="none" stroke="#505c7e" d="M1662.01,-307.863C1651.16,-300.194 1638.12,-292.418 1625,-288 1495.5,-244.383 1082.49,-236.633 922.331,-235.278"/>
<polygon fill="#505c7e" stroke="#505c7e" points="1662.16,-307.978 1667.52,-317.543 1666.18,-310.951 1670.2,-313.925 1670.2,-313.925 1670.2,-313.925 1666.18,-310.951 1672.88,-310.308 1662.16,-307.978 1662.16,-307.978"/>
<polygon fill="#505c7e" stroke="#505c7e" points="922.153,-235.276 912.189,-230.697 917.153,-235.237 912.153,-235.197 912.153,-235.197 912.153,-235.197 917.153,-235.237 912.118,-239.697 922.153,-235.276 922.153,-235.276"/>
</g>
<!-- Person -->
<g id="node24" class="node"><title>Person</title>
<ellipse fill="none" stroke="black" cx="1689" cy="-162" rx="36.9881" ry="18"/>
<text text-anchor="middle" x="1689" y="-156.4" font-family="Times,serif" font-size="14.00">Person</text>
</g>
<!-- Committee&#45;&gt;Person -->
<g id="edge6" class="edge"><title>Committee&#45;&gt;Person</title>
<path fill="none" stroke="#09369d" d="M1689,-302.412C1689,-271.426 1689,-221.434 1689,-190.489"/>
<polygon fill="#09369d" stroke="#09369d" points="1689,-302.757 1684.5,-312.757 1689,-307.757 1689,-312.757 1689,-312.757 1689,-312.757 1689,-307.757 1693.5,-312.757 1689,-302.757 1689,-302.757"/>
<polygon fill="#09369d" stroke="#09369d" points="1689,-190.399 1693.5,-180.399 1689,-185.399 1689,-180.399 1689,-180.399 1689,-180.399 1689,-185.399 1684.5,-180.399 1689,-190.399 1689,-190.399"/>
</g>
<!-- Subcommittee -->
<g id="node29" class="node"><title>Subcommittee</title>
<ellipse fill="none" stroke="black" cx="3095" cy="-90" rx="66.2365" ry="18"/>
<text text-anchor="middle" x="3095" y="-84.4" font-family="Times,serif" font-size="14.00">Subcommittee</text>
</g>
<!-- Committee&#45;&gt;Subcommittee -->
<g id="edge2" class="edge"><title>Committee&#45;&gt;Subcommittee</title>
<path fill="none" stroke="#8fd00f" d="M1714.38,-309.304C1725.33,-301.408 1738.68,-293.09 1752,-288 2280.43,-86.1055 2454.66,-204.797 3012,-108 3019.36,-106.722 3027.06,-105.283 3034.68,-103.797"/>
<ellipse fill="none" stroke="#8fd00f" cx="1711.1" cy="-311.746" rx="4.00002" ry="4.00002"/>
<polygon fill="#8fd00f" stroke="#8fd00f" points="3034.81,-103.771 3045.49,-106.239 3039.71,-102.798 3044.62,-101.825 3044.62,-101.825 3044.62,-101.825 3039.71,-102.798 3043.74,-97.4108 3034.81,-103.771 3034.81,-103.771"/>
</g>
<!-- Degree -->
<g id="node9" class="node"><title>Degree</title>
<ellipse fill="none" stroke="black" cx="565" cy="-18" rx="38.3713" ry="18"/>
<text text-anchor="middle" x="565" y="-12.4" font-family="Times,serif" font-size="14.00">Degree</text>
</g>
<!-- Earmark -->
<g id="node10" class="node"><title>Earmark</title>
<ellipse fill="none" stroke="black" cx="719" cy="-90" rx="43.9209" ry="18"/>
<text text-anchor="middle" x="719" y="-84.4" font-family="Times,serif" font-size="14.00">Earmark</text>
</g>
<!-- Endorsement -->
<g id="node11" class="node"><title>Endorsement</title>
<ellipse fill="none" stroke="black" cx="843" cy="-90" rx="61.4852" ry="18"/>
<text text-anchor="middle" x="843" y="-84.4" font-family="Times,serif" font-size="14.00">Endorsement</text>
</g>
<!-- FamilyMember -->
<g id="node12" class="node"><title>FamilyMember</title>
<ellipse fill="none" stroke="black" cx="994" cy="-90" rx="71.1714" ry="18"/>
<text text-anchor="middle" x="994" y="-84.4" font-family="Times,serif" font-size="14.00">FamilyMember</text>
</g>
<!-- FlipFlop -->
<g id="node13" class="node"><title>FlipFlop</title>
<ellipse fill="none" stroke="black" cx="1127" cy="-90" rx="43.9701" ry="18"/>
<text text-anchor="middle" x="1127" y="-84.4" font-family="Times,serif" font-size="14.00">FlipFlop</text>
</g>
<!-- Issue -->
<g id="node14" class="node"><title>Issue</title>
<ellipse fill="none" stroke="black" cx="829" cy="-162" rx="30.3269" ry="18"/>
<text text-anchor="middle" x="829" y="-156.4" font-family="Times,serif" font-size="14.00">Issue</text>
</g>
<!-- IssueMainIssue -->
<g id="node15" class="node"><title>IssueMainIssue</title>
<ellipse fill="none" stroke="black" cx="71" cy="-18" rx="71.1714" ry="18"/>
<text text-anchor="middle" x="71" y="-12.4" font-family="Times,serif" font-size="14.00">IssueMainIssue</text>
</g>
<!-- Issue&#45;&gt;IssueMainIssue -->
<g id="edge12" class="edge"><title>Issue&#45;&gt;IssueMainIssue</title>
<path fill="none" stroke="#b1dd83" d="M798.498,-146.757C795.34,-145.67 792.137,-144.719 789,-144 708.869,-125.637 106.698,-167.528 50,-108 33.9311,-91.1292 43.1874,-64.3524 54.0133,-44.5718"/>
<ellipse fill="none" stroke="#b1dd83" cx="802.458" cy="-148.26" rx="4.00001" ry="4.00001"/>
<polygon fill="#b1dd83" stroke="#b1dd83" points="54.1189,-44.3917 63.0616,-38.045 56.6497,-40.0795 59.1806,-35.7673 59.1806,-35.7673 59.1806,-35.7673 56.6497,-40.0795 55.2996,-33.4896 54.1189,-44.3917 54.1189,-44.3917"/>
</g>
<!-- MainIssue -->
<g id="node22" class="node"><title>MainIssue</title>
<ellipse fill="none" stroke="black" cx="110" cy="-90" rx="50.9029" ry="18"/>
<text text-anchor="middle" x="110" y="-84.4" font-family="Times,serif" font-size="14.00">MainIssue</text>
</g>
<!-- Issue&#45;&gt;MainIssue -->
<g id="edge14" class="edge"><title>Issue&#45;&gt;MainIssue</title>
<path fill="none" stroke="#a0c9df" d="M796.593,-146.148C794.057,-145.32 791.507,-144.587 789,-144 520.68,-81.1798 441.738,-153.833 170,-108 165.556,-107.25 160.971,-106.295 156.408,-105.221"/>
<polygon fill="#a0c9df" stroke="#a0c9df" points="796.816,-146.232 804.62,-153.936 801.503,-147.975 806.189,-149.719 806.189,-149.719 806.189,-149.719 801.503,-147.975 807.758,-145.501 796.816,-146.232 796.816,-146.232"/>
<polygon fill="#a0c9df" stroke="#a0c9df" points="156.212,-105.171 147.625,-98.351 151.365,-103.942 146.519,-102.713 146.519,-102.713 146.519,-102.713 151.365,-103.942 145.412,-107.075 156.212,-105.171 156.212,-105.171"/>
</g>
<!-- IssuePosition -->
<g id="node16" class="node"><title>IssuePosition</title>
<ellipse fill="none" stroke="black" cx="1252" cy="-90" rx="62.3196" ry="18"/>
<text text-anchor="middle" x="1252" y="-84.4" font-family="Times,serif" font-size="14.00">IssuePosition</text>
</g>
<!-- Legislation&#45;&gt;CommitteeLegislation -->
<g id="edge16" class="edge"><title>Legislation&#45;&gt;CommitteeLegislation</title>
<path fill="none" stroke="#152031" d="M804.948,-222.141C746.922,-210.265 653.563,-191.156 588.732,-177.887"/>
<ellipse fill="none" stroke="#152031" cx="809.019" cy="-222.975" rx="4.00001" ry="4.00001"/>
<polygon fill="#152031" stroke="#152031" points="588.378,-177.814 579.484,-171.4 583.48,-176.812 578.581,-175.809 578.581,-175.809 578.581,-175.809 583.48,-176.812 577.679,-180.218 588.378,-177.814 588.378,-177.814"/>
</g>
<!-- Legislation&#45;&gt;Issue -->
<g id="edge24" class="edge"><title>Legislation&#45;&gt;Issue</title>
<path fill="none" stroke="#cba30c" d="M847.11,-206.714C844.716,-200.935 842.182,-194.818 839.792,-189.049"/>
<polygon fill="#cba30c" stroke="#cba30c" points="847.152,-206.816 846.823,-217.777 849.066,-211.436 850.98,-216.055 850.98,-216.055 850.98,-216.055 849.066,-211.436 855.137,-214.333 847.152,-206.816 847.152,-206.816"/>
<polygon fill="#cba30c" stroke="#cba30c" points="839.783,-189.028 840.113,-178.067 837.869,-184.408 835.955,-179.789 835.955,-179.789 835.955,-179.789 837.869,-184.408 831.798,-181.511 839.783,-189.028 839.783,-189.028"/>
</g>
<!-- LegislationCosponsor -->
<g id="node18" class="node"><title>LegislationCosponsor</title>
<ellipse fill="none" stroke="black" cx="275" cy="-90" rx="95.1995" ry="18"/>
<text text-anchor="middle" x="275" y="-84.4" font-family="Times,serif" font-size="14.00">LegislationCosponsor</text>
</g>
<!-- Legislation&#45;&gt;LegislationCosponsor -->
<g id="edge18" class="edge"><title>Legislation&#45;&gt;LegislationCosponsor</title>
<path fill="none" stroke="#2adcca" d="M869.876,-208.68C877.706,-188.735 883.882,-161.097 868,-144 830.996,-104.166 433.997,-114.351 380,-108 371.043,-106.947 361.683,-105.676 352.399,-104.311"/>
<ellipse fill="none" stroke="#2adcca" cx="868.272" cy="-212.487" rx="4.00002" ry="4.00002"/>
<polygon fill="#2adcca" stroke="#2adcca" points="352.265,-104.29 343.049,-98.3471 347.321,-103.544 342.377,-102.797 342.377,-102.797 342.377,-102.797 347.321,-103.544 341.705,-107.246 352.265,-104.29 352.265,-104.29"/>
</g>
<!-- LegislationIssue -->
<g id="node19" class="node"><title>LegislationIssue</title>
<ellipse fill="none" stroke="black" cx="706" cy="-162" rx="73.9958" ry="18"/>
<text text-anchor="middle" x="706" y="-156.4" font-family="Times,serif" font-size="14.00">LegislationIssue</text>
</g>
<!-- Legislation&#45;&gt;LegislationIssue -->
<g id="edge22" class="edge"><title>Legislation&#45;&gt;LegislationIssue</title>
<path fill="none" stroke="#1f572f" d="M820.121,-215.556C798.3,-205.507 770.821,-192.852 748.295,-182.478"/>
<ellipse fill="none" stroke="#1f572f" cx="823.973" cy="-217.329" rx="4.00002" ry="4.00002"/>
<polygon fill="#1f572f" stroke="#1f572f" points="748.059,-182.369 740.858,-174.099 743.517,-180.278 738.976,-178.186 738.976,-178.186 738.976,-178.186 743.517,-180.278 737.094,-182.274 748.059,-182.369 748.059,-182.369"/>
</g>
<!-- Legislation&#45;&gt;Person -->
<g id="edge20" class="edge"><title>Legislation&#45;&gt;Person</title>
<path fill="none" stroke="#1db1a3" d="M920.366,-227.747C1080.14,-214.288 1501.44,-178.799 1642.34,-166.93"/>
<polygon fill="#1db1a3" stroke="#1db1a3" points="919.947,-227.782 909.605,-224.137 914.965,-228.201 909.983,-228.621 909.983,-228.621 909.983,-228.621 914.965,-228.201 910.361,-233.105 919.947,-227.782 919.947,-227.782"/>
<polygon fill="#1db1a3" stroke="#1db1a3" points="1642.42,-166.924 1652.76,-170.568 1647.4,-166.504 1652.39,-166.084 1652.39,-166.084 1652.39,-166.084 1647.4,-166.504 1652.01,-161.6 1642.42,-166.924 1642.42,-166.924"/>
</g>
<!-- LegislativeOffice -->
<g id="node20" class="node"><title>LegislativeOffice</title>
<ellipse fill="none" stroke="black" cx="1411" cy="-90" rx="78.111" ry="18"/>
<text text-anchor="middle" x="1411" y="-84.4" font-family="Times,serif" font-size="14.00">LegislativeOffice</text>
</g>
<!-- Litigation -->
<g id="node21" class="node"><title>Litigation</title>
<ellipse fill="none" stroke="black" cx="1556" cy="-90" rx="49.1832" ry="18"/>
<text text-anchor="middle" x="1556" y="-84.4" font-family="Times,serif" font-size="14.00">Litigation</text>
</g>
<!-- MainIssue&#45;&gt;IssueMainIssue -->
<g id="edge26" class="edge"><title>MainIssue&#45;&gt;IssueMainIssue</title>
<path fill="none" stroke="#e3981e" d="M96.5322,-64.8269C93.0153,-58.5146 89.208,-51.6811 85.6338,-45.2658"/>
<ellipse fill="none" stroke="#e3981e" cx="98.6124" cy="-68.5607" rx="4.00002" ry="4.00002"/>
<polygon fill="#e3981e" stroke="#e3981e" points="85.4919,-45.011 84.5559,-34.0851 83.0583,-40.6431 80.6248,-36.2753 80.6248,-36.2753 80.6248,-36.2753 83.0583,-40.6431 76.6937,-38.4655 85.4919,-45.011 85.4919,-45.011"/>
</g>
<!-- Organization -->
<g id="node23" class="node"><title>Organization</title>
<ellipse fill="none" stroke="black" cx="1778" cy="-234" rx="60.9184" ry="18"/>
<text text-anchor="middle" x="1778" y="-228.4" font-family="Times,serif" font-size="14.00">Organization</text>
</g>
<!-- Organization&#45;&gt;Person -->
<g id="edge28" class="edge"><title>Organization&#45;&gt;Person</title>
<path fill="none" stroke="#b38611" d="M1750.76,-211.573C1739.65,-202.834 1726.84,-192.759 1715.77,-184.058"/>
<ellipse fill="none" stroke="#b38611" cx="1754.21" cy="-214.292" rx="4.00002" ry="4.00002"/>
<polygon fill="#b38611" stroke="#b38611" points="1715.57,-183.899 1710.49,-174.18 1711.64,-180.808 1707.71,-177.717 1707.71,-177.717 1707.71,-177.717 1711.64,-180.808 1704.93,-181.254 1715.57,-183.899 1715.57,-183.899"/>
</g>
<!-- Person&#45;&gt;Accusation -->
<g id="edge60" class="edge"><title>Person&#45;&gt;Accusation</title>
<path fill="none" stroke="#1f8627" d="M1643.96,-160.178C1456.28,-156.57 735.806,-140.82 511,-108 505.06,-107.133 498.885,-105.969 492.785,-104.654"/>
<ellipse fill="none" stroke="#1f8627" cx="1647.97" cy="-160.255" rx="4" ry="4"/>
<polygon fill="#1f8627" stroke="#1f8627" points="492.392,-104.564 483.653,-97.94 487.519,-103.445 482.646,-102.326 482.646,-102.326 482.646,-102.326 487.519,-103.445 481.639,-106.712 492.392,-104.564 492.392,-104.564"/>
</g>
<!-- Person&#45;&gt;BusinessAssociate -->
<g id="edge42" class="edge"><title>Person&#45;&gt;BusinessAssociate</title>
<path fill="none" stroke="#df4435" d="M1734.46,-160.362C1868.7,-158.052 2274.86,-148.01 2609,-108 2616.99,-107.043 2625.34,-105.828 2633.61,-104.49"/>
<ellipse fill="none" stroke="#df4435" cx="1730.39" cy="-160.43" rx="4" ry="4"/>
<polygon fill="#df4435" stroke="#df4435" points="2633.77,-104.464 2644.37,-107.243 2638.7,-103.635 2643.63,-102.805 2643.63,-102.805 2643.63,-102.805 2638.7,-103.635 2642.88,-98.3677 2633.77,-104.464 2633.77,-104.464"/>
</g>
<!-- Person&#45;&gt;CampaignPlatform -->
<g id="edge58" class="edge"><title>Person&#45;&gt;CampaignPlatform</title>
<path fill="none" stroke="#47cb68" d="M1734.5,-160.946C1885.59,-160.313 2384.15,-154.581 2793,-108 2801.08,-107.079 2809.52,-105.887 2817.88,-104.561"/>
<ellipse fill="none" stroke="#47cb68" cx="1730.31" cy="-160.962" rx="4" ry="4"/>
<polygon fill="#47cb68" stroke="#47cb68" points="2818.14,-104.518 2828.74,-107.327 2823.07,-103.703 2828.01,-102.887 2828.01,-102.887 2828.01,-102.887 2823.07,-103.703 2827.27,-98.4474 2818.14,-104.518 2818.14,-104.518"/>
</g>
<!-- Person&#45;&gt;CommitteeAssignment -->
<g id="edge38" class="edge"><title>Person&#45;&gt;CommitteeAssignment</title>
<path fill="none" stroke="#812594" d="M1734.56,-161.318C1916.17,-162.173 2605.86,-161.5 3170,-108 3179.88,-107.063 3190.23,-105.817 3200.46,-104.424"/>
<ellipse fill="none" stroke="#812594" cx="1730.3" cy="-161.296" rx="4" ry="4"/>
<polygon fill="#812594" stroke="#812594" points="3200.72,-104.387 3211.25,-107.444 3205.67,-103.688 3210.62,-102.989 3210.62,-102.989 3210.62,-102.989 3205.67,-103.688 3209.99,-98.5329 3200.72,-104.387 3200.72,-104.387"/>
</g>
<!-- Person&#45;&gt;Degree -->
<g id="edge48" class="edge"><title>Person&#45;&gt;Degree</title>
<path fill="none" stroke="#b1eecd" d="M1643.39,-160.628C1435.08,-158.712 582.587,-148.415 544,-108 527.816,-91.0495 537.28,-64.0537 548.193,-44.234"/>
<ellipse fill="none" stroke="#b1eecd" cx="1647.68" cy="-160.667" rx="4" ry="4"/>
<polygon fill="#b1eecd" stroke="#b1eecd" points="548.309,-44.0379 557.267,-37.7129 550.85,-39.7318 553.392,-35.4258 553.392,-35.4258 553.392,-35.4258 550.85,-39.7318 549.516,-33.1386 548.309,-44.0379 548.309,-44.0379"/>
</g>
<!-- Person&#45;&gt;Earmark -->
<g id="edge66" class="edge"><title>Person&#45;&gt;Earmark</title>
<path fill="none" stroke="#b728a0" d="M1643.74,-159.896C1483.29,-155.747 942.19,-139.684 772,-108 768.156,-107.284 764.202,-106.37 760.27,-105.338"/>
<ellipse fill="none" stroke="#b728a0" cx="1647.98" cy="-160.005" rx="4" ry="4"/>
<polygon fill="#b728a0" stroke="#b728a0" points="760.229,-105.326 751.853,-98.249 755.422,-103.951 750.615,-102.575 750.615,-102.575 750.615,-102.575 755.422,-103.951 749.377,-106.902 760.229,-105.326 760.229,-105.326"/>
</g>
<!-- Person&#45;&gt;Endorsement -->
<g id="edge52" class="edge"><title>Person&#45;&gt;Endorsement</title>
<path fill="none" stroke="#b3bf45" d="M1643.38,-160.529C1523.28,-158.717 1188.7,-149.98 914,-108 908.301,-107.129 902.386,-106.031 896.511,-104.814"/>
<ellipse fill="none" stroke="#b3bf45" cx="1647.65" cy="-160.59" rx="4" ry="4"/>
<polygon fill="#b3bf45" stroke="#b3bf45" points="896.478,-104.807 887.669,-98.2762 891.593,-103.74 886.708,-102.673 886.708,-102.673 886.708,-102.673 891.593,-103.74 885.748,-107.069 896.478,-104.807 896.478,-104.807"/>
</g>
<!-- Person&#45;&gt;FamilyMember -->
<g id="edge40" class="edge"><title>Person&#45;&gt;FamilyMember</title>
<path fill="none" stroke="#27abbf" d="M1643.84,-159.02C1541.81,-154.129 1285.87,-139.518 1074,-108 1067.73,-107.068 1061.22,-105.944 1054.74,-104.724"/>
<ellipse fill="none" stroke="#27abbf" cx="1648.08" cy="-159.22" rx="4" ry="4"/>
<polygon fill="#27abbf" stroke="#27abbf" points="1054.43,-104.663 1045.48,-98.3242 1049.52,-103.702 1044.61,-102.74 1044.61,-102.74 1044.61,-102.74 1049.52,-103.702 1043.75,-107.156 1054.43,-104.663 1054.43,-104.663"/>
</g>
<!-- Person&#45;&gt;FlipFlop -->
<g id="edge56" class="edge"><title>Person&#45;&gt;FlipFlop</title>
<path fill="none" stroke="#70f931" d="M1643.84,-159.426C1554.41,-155.625 1348.84,-143.47 1180,-108 1176.38,-107.24 1172.66,-106.328 1168.95,-105.325"/>
<ellipse fill="none" stroke="#70f931" cx="1647.87" cy="-159.593" rx="4" ry="4"/>
<polygon fill="#70f931" stroke="#70f931" points="1168.83,-105.291 1160.48,-98.1835 1164.03,-103.898 1159.23,-102.505 1159.23,-102.505 1159.23,-102.505 1164.03,-103.898 1157.98,-106.827 1168.83,-105.291 1168.83,-105.291"/>
</g>
<!-- Person&#45;&gt;IssuePosition -->
<g id="edge54" class="edge"><title>Person&#45;&gt;IssuePosition</title>
<path fill="none" stroke="#073ff8" d="M1645.31,-155.913C1576.61,-147.633 1439.3,-129.94 1324,-108 1318.64,-106.98 1313.07,-105.83 1307.52,-104.621"/>
<ellipse fill="none" stroke="#073ff8" cx="1649.36" cy="-156.399" rx="4.00001" ry="4.00001"/>
<polygon fill="#073ff8" stroke="#073ff8" points="1307.34,-104.581 1298.56,-98.006 1302.46,-103.489 1297.58,-102.397 1297.58,-102.397 1297.58,-102.397 1302.46,-103.489 1296.59,-106.789 1307.34,-104.581 1307.34,-104.581"/>
</g>
<!-- Person&#45;&gt;LegislationCosponsor -->
<g id="edge32" class="edge"><title>Person&#45;&gt;LegislationCosponsor</title>
<path fill="none" stroke="#163d1f" d="M1643.73,-159.898C1443.12,-154.902 633.069,-133.517 380,-108 370.727,-107.065 361.03,-105.838 351.435,-104.47"/>
<ellipse fill="none" stroke="#163d1f" cx="1648" cy="-160.004" rx="4" ry="4"/>
<polygon fill="#163d1f" stroke="#163d1f" points="351.389,-104.464 342.155,-98.5491 346.442,-103.732 341.496,-103.001 341.496,-103.001 341.496,-103.001 346.442,-103.732 340.838,-107.452 351.389,-104.464 351.389,-104.464"/>
</g>
<!-- Person&#45;&gt;LegislativeOffice -->
<g id="edge30" class="edge"><title>Person&#45;&gt;LegislativeOffice</title>
<path fill="none" stroke="#9a41bf" d="M1648.92,-150.908C1602.41,-139.196 1525.22,-119.76 1471.42,-106.214"/>
<ellipse fill="none" stroke="#9a41bf" cx="1652.96" cy="-151.925" rx="4.00001" ry="4.00001"/>
<polygon fill="#9a41bf" stroke="#9a41bf" points="1471.36,-106.198 1462.76,-99.3925 1466.51,-104.977 1461.66,-103.756 1461.66,-103.756 1461.66,-103.756 1466.51,-104.977 1460.56,-108.12 1471.36,-106.198 1471.36,-106.198"/>
</g>
<!-- Person&#45;&gt;Litigation -->
<g id="edge62" class="edge"><title>Person&#45;&gt;Litigation</title>
<path fill="none" stroke="#e03be2" d="M1657.24,-144.282C1637.6,-133.945 1612.34,-120.651 1591.96,-109.928"/>
<ellipse fill="none" stroke="#e03be2" cx="1661.07" cy="-146.298" rx="4.00002" ry="4.00002"/>
<polygon fill="#e03be2" stroke="#e03be2" points="1591.83,-109.86 1585.08,-101.22 1587.41,-107.531 1582.98,-105.202 1582.98,-105.202 1582.98,-105.202 1587.41,-107.531 1580.89,-109.185 1591.83,-109.86 1591.83,-109.86"/>
</g>
<!-- PersonalAsset -->
<g id="node25" class="node"><title>PersonalAsset</title>
<ellipse fill="none" stroke="black" cx="1689" cy="-90" rx="65.1317" ry="18"/>
<text text-anchor="middle" x="1689" y="-84.4" font-family="Times,serif" font-size="14.00">PersonalAsset</text>
</g>
<!-- Person&#45;&gt;PersonalAsset -->
<g id="edge44" class="edge"><title>Person&#45;&gt;PersonalAsset</title>
<path fill="none" stroke="#d9db00" d="M1689,-135.64C1689,-130.063 1689,-124.132 1689,-118.476"/>
<ellipse fill="none" stroke="#d9db00" cx="1689" cy="-139.697" rx="4" ry="4"/>
<polygon fill="#d9db00" stroke="#d9db00" points="1689,-118.104 1693.5,-108.104 1689,-113.104 1689,-108.104 1689,-108.104 1689,-108.104 1689,-113.104 1684.5,-108.104 1689,-118.104 1689,-118.104"/>
</g>
<!-- PoliticalOffice -->
<g id="node26" class="node"><title>PoliticalOffice</title>
<ellipse fill="none" stroke="black" cx="1840" cy="-90" rx="67.0349" ry="18"/>
<text text-anchor="middle" x="1840" y="-84.4" font-family="Times,serif" font-size="14.00">PoliticalOffice</text>
</g>
<!-- Person&#45;&gt;PoliticalOffice -->
<g id="edge64" class="edge"><title>Person&#45;&gt;PoliticalOffice</title>
<path fill="none" stroke="#0328b3" d="M1722.53,-145.455C1744.99,-135.045 1774.71,-121.269 1798.63,-110.178"/>
<ellipse fill="none" stroke="#0328b3" cx="1718.59" cy="-147.284" rx="4.00002" ry="4.00002"/>
<polygon fill="#0328b3" stroke="#0328b3" points="1798.75,-110.123 1809.71,-110 1803.29,-108.02 1807.82,-105.917 1807.82,-105.917 1807.82,-105.917 1803.29,-108.02 1805.93,-101.835 1798.75,-110.123 1798.75,-110.123"/>
</g>
<!-- Person&#45;&gt;Subcommittee -->
<g id="edge36" class="edge"><title>Person&#45;&gt;Subcommittee</title>
<path fill="none" stroke="#94ea28" d="M1736.34,-160.167C1942.03,-156.382 2759.12,-139.619 3014,-108 3021.44,-107.077 3029.2,-105.825 3036.86,-104.416"/>
<polygon fill="#94ea28" stroke="#94ea28" points="1736.17,-160.17 1726.09,-155.853 1731.17,-160.261 1726.17,-160.352 1726.17,-160.352 1726.17,-160.352 1731.17,-160.261 1726.26,-164.851 1736.17,-160.17 1736.17,-160.17"/>
<polygon fill="#94ea28" stroke="#94ea28" points="3037,-104.388 3047.68,-106.906 3041.91,-103.438 3046.82,-102.488 3046.82,-102.488 3046.82,-102.488 3041.91,-103.438 3045.97,-98.0699 3037,-104.388 3037,-104.388"/>
</g>
<!-- SubcommitteeAssignment -->
<g id="node30" class="node"><title>SubcommitteeAssignment</title>
<ellipse fill="none" stroke="black" cx="3047" cy="-18" rx="112.444" ry="18"/>
<text text-anchor="middle" x="3047" y="-12.4" font-family="Times,serif" font-size="14.00">SubcommitteeAssignment</text>
</g>
<!-- Person&#45;&gt;SubcommitteeAssignment -->
<g id="edge34" class="edge"><title>Person&#45;&gt;SubcommitteeAssignment</title>
<path fill="none" stroke="#972171" d="M1734.35,-160.225C1956.75,-156.284 2923.77,-137.507 2980,-108 3005.69,-94.5175 3024.28,-66.272 3035.27,-45.1969"/>
<ellipse fill="none" stroke="#972171" cx="1730.14" cy="-160.299" rx="4" ry="4"/>
<polygon fill="#972171" stroke="#972171" points="3035.34,-45.0563 3043.81,-38.0961 3037.56,-40.5767 3039.78,-36.0971 3039.78,-36.0971 3039.78,-36.0971 3037.56,-40.5767 3035.75,-34.0981 3035.34,-45.0563 3035.34,-45.0563"/>
</g>
<!-- Supporter -->
<g id="node31" class="node"><title>Supporter</title>
<ellipse fill="none" stroke="black" cx="1974" cy="-90" rx="49.1832" ry="18"/>
<text text-anchor="middle" x="1974" y="-84.4" font-family="Times,serif" font-size="14.00">Supporter</text>
</g>
<!-- Person&#45;&gt;Supporter -->
<g id="edge68" class="edge"><title>Person&#45;&gt;Supporter</title>
<path fill="none" stroke="#396e82" d="M1730.11,-152.126C1775.71,-142.113 1851.39,-124.998 1916,-108 1919.77,-107.007 1923.67,-105.944 1927.59,-104.852"/>
<ellipse fill="none" stroke="#396e82" cx="1726.13" cy="-152.996" rx="4.00001" ry="4.00001"/>
<polygon fill="#396e82" stroke="#396e82" points="1927.65,-104.835 1938.5,-106.43 1932.46,-103.468 1937.27,-102.102 1937.27,-102.102 1937.27,-102.102 1932.46,-103.468 1936.04,-97.7731 1927.65,-104.835 1927.65,-104.835"/>
</g>
<!-- Transaction -->
<g id="node32" class="node"><title>Transaction</title>
<ellipse fill="none" stroke="black" cx="2097" cy="-90" rx="55.9282" ry="18"/>
<text text-anchor="middle" x="2097" y="-84.4" font-family="Times,serif" font-size="14.00">Transaction</text>
</g>
<!-- Person&#45;&gt;Transaction -->
<g id="edge46" class="edge"><title>Person&#45;&gt;Transaction</title>
<path fill="none" stroke="#cc8242" d="M1732.82,-155.691C1798.29,-147.431 1925.35,-130.126 2032,-108 2036.61,-107.043 2041.38,-105.966 2046.15,-104.829"/>
<ellipse fill="none" stroke="#cc8242" cx="1728.74" cy="-156.204" rx="4.00001" ry="4.00001"/>
<polygon fill="#cc8242" stroke="#cc8242" points="2046.18,-104.823 2056.96,-106.802 2051.03,-103.628 2055.89,-102.432 2055.89,-102.432 2055.89,-102.432 2051.03,-103.628 2054.81,-98.0626 2046.18,-104.823 2046.18,-104.823"/>
</g>
<!-- University -->
<g id="node33" class="node"><title>University</title>
<ellipse fill="none" stroke="black" cx="605" cy="-90" rx="51.2098" ry="18"/>
<text text-anchor="middle" x="605" y="-84.4" font-family="Times,serif" font-size="14.00">University</text>
</g>
<!-- Person&#45;&gt;University -->
<g id="edge50" class="edge"><title>Person&#45;&gt;University</title>
<path fill="none" stroke="#e10808" d="M1641.71,-159.931C1466.94,-155.765 857.68,-139.283 666,-108 661.297,-107.232 656.438,-106.238 651.611,-105.114"/>
<polygon fill="#e10808" stroke="#e10808" points="1641.88,-159.935 1651.77,-164.67 1646.87,-160.053 1651.87,-160.171 1651.87,-160.171 1651.87,-160.171 1646.87,-160.053 1651.98,-155.672 1641.88,-159.935 1641.88,-159.935"/>
<polygon fill="#e10808" stroke="#e10808" points="651.507,-105.088 642.899,-98.2944 646.656,-103.874 641.806,-102.66 641.806,-102.66 641.806,-102.66 646.656,-103.874 640.713,-107.025 651.507,-105.088 651.507,-105.088"/>
</g>
<!-- Contributor -->
<g id="node70" class="node"><title>Contributor</title>
<ellipse fill="none" stroke="black" cx="2227" cy="-90" rx="56.1511" ry="18"/>
<text text-anchor="middle" x="2227" y="-84.4" font-family="Times,serif" font-size="14.00">Contributor</text>
</g>
<!-- Person&#45;&gt;Contributor -->
<g id="edge70" class="edge"><title>Person&#45;&gt;Contributor</title>
<path fill="none" stroke="#1a8e84" d="M1733.84,-158.14C1818.22,-152.281 2006.13,-136.96 2162,-108 2166.77,-107.114 2171.7,-106.068 2176.62,-104.937"/>
<ellipse fill="none" stroke="#1a8e84" cx="1729.75" cy="-158.42" rx="4" ry="4"/>
<polygon fill="#1a8e84" stroke="#1a8e84" points="2176.91,-104.865 2187.69,-106.894 2181.77,-103.693 2186.64,-102.52 2186.64,-102.52 2186.64,-102.52 2181.77,-103.693 2185.58,-98.1455 2176.91,-104.865 2176.91,-104.865"/>
</g>
<!-- PersonVideo -->
<g id="node72" class="node"><title>PersonVideo</title>
<ellipse fill="none" stroke="black" cx="2361" cy="-90" rx="60.0246" ry="18"/>
<text text-anchor="middle" x="2361" y="-84.4" font-family="Times,serif" font-size="14.00">PersonVideo</text>
</g>
<!-- Person&#45;&gt;PersonVideo -->
<g id="edge72" class="edge"><title>Person&#45;&gt;PersonVideo</title>
<path fill="none" stroke="#98e8c6" d="M1734.09,-159.409C1834.77,-155.339 2085.29,-142.339 2292,-108 2297.32,-107.115 2302.84,-106.037 2308.34,-104.856"/>
<ellipse fill="none" stroke="#98e8c6" cx="1729.95" cy="-159.573" rx="4" ry="4"/>
<polygon fill="#98e8c6" stroke="#98e8c6" points="2308.39,-104.844 2319.14,-107.03 2313.27,-103.742 2318.15,-102.641 2318.15,-102.641 2318.15,-102.641 2313.27,-103.742 2317.16,-98.2512 2308.39,-104.844 2308.39,-104.844"/>
</g>
<!-- Video -->
<g id="node74" class="node"><title>Video</title>
<ellipse fill="none" stroke="black" cx="2473" cy="-90" rx="34.0921" ry="18"/>
<text text-anchor="middle" x="2473" y="-84.4" font-family="Times,serif" font-size="14.00">Video</text>
</g>
<!-- Person&#45;&gt;Video -->
<g id="edge74" class="edge"><title>Person&#45;&gt;Video</title>
<path fill="none" stroke="#bb6c47" d="M1734.31,-159.566C1873.96,-154.864 2296.38,-138.435 2430,-108 2432.79,-107.365 2435.63,-106.577 2438.47,-105.692"/>
<ellipse fill="none" stroke="#bb6c47" cx="1730.3" cy="-159.7" rx="4" ry="4"/>
<polygon fill="#bb6c47" stroke="#bb6c47" points="2438.5,-105.68 2449.42,-106.634 2443.22,-104.033 2447.94,-102.385 2447.94,-102.385 2447.94,-102.385 2443.22,-104.033 2446.46,-98.1365 2438.5,-105.68 2438.5,-105.68"/>
</g>
<!-- Article -->
<g id="node76" class="node"><title>Article</title>
<ellipse fill="none" stroke="black" cx="2563" cy="-90" rx="37.2739" ry="18"/>
<text text-anchor="middle" x="2563" y="-84.4" font-family="Times,serif" font-size="14.00">Article</text>
</g>
<!-- Person&#45;&gt;Article -->
<g id="edge76" class="edge"><title>Person&#45;&gt;Article</title>
<path fill="none" stroke="#538b49" d="M1734.33,-159.782C1884.47,-155.484 2364.64,-139.555 2516,-108 2519.23,-107.327 2522.53,-106.479 2525.82,-105.524"/>
<ellipse fill="none" stroke="#538b49" cx="1730.17" cy="-159.9" rx="4" ry="4"/>
<polygon fill="#538b49" stroke="#538b49" points="2526.02,-105.459 2536.92,-106.683 2530.78,-103.929 2535.54,-102.399 2535.54,-102.399 2535.54,-102.399 2530.78,-103.929 2534.17,-98.1145 2526.02,-105.459 2526.02,-105.459"/>
</g>
<!-- Religion -->
<g id="node27" class="node"><title>Religion</title>
<ellipse fill="none" stroke="black" cx="1617" cy="-234" rx="43.949" ry="18"/>
<text text-anchor="middle" x="1617" y="-228.4" font-family="Times,serif" font-size="14.00">Religion</text>
</g>
<!-- Religion&#45;&gt;Person -->
<g id="edge78" class="edge"><title>Religion&#45;&gt;Person</title>
<path fill="none" stroke="#a72b39" d="M1639.21,-211.405C1647.73,-203.128 1657.45,-193.673 1666.03,-185.329"/>
<ellipse fill="none" stroke="#a72b39" cx="1636.21" cy="-214.328" rx="4.00002" ry="4.00002"/>
<polygon fill="#a72b39" stroke="#a72b39" points="1666.05,-185.311 1676.36,-181.567 1669.64,-181.826 1673.22,-178.34 1673.22,-178.34 1673.22,-178.34 1669.64,-181.826 1670.08,-175.114 1666.05,-185.311 1666.05,-185.311"/>
</g>
<!-- Role -->
<g id="node28" class="node"><title>Role</title>
<ellipse fill="none" stroke="black" cx="1790" cy="-331" rx="28.9157" ry="18"/>
<text text-anchor="middle" x="1790" y="-325.4" font-family="Times,serif" font-size="14.00">Role</text>
</g>
<!-- Subcommittee&#45;&gt;SubcommitteeAssignment -->
<g id="edge80" class="edge"><title>Subcommittee&#45;&gt;SubcommitteeAssignment</title>
<path fill="none" stroke="#d5b76f" d="M3078.81,-65.3837C3074.21,-58.6806 3069.18,-51.3523 3064.51,-44.5409"/>
<ellipse fill="none" stroke="#d5b76f" cx="3081.12" cy="-68.756" rx="4.00002" ry="4.00002"/>
<polygon fill="#d5b76f" stroke="#d5b76f" points="3064.5,-44.5226 3062.56,-33.7304 3061.67,-40.399 3058.85,-36.2753 3058.85,-36.2753 3058.85,-36.2753 3061.67,-40.399 3055.13,-38.8202 3064.5,-44.5226 3064.5,-44.5226"/>
</g>
<!-- University&#45;&gt;Degree -->
<g id="edge82" class="edge"><title>University&#45;&gt;Degree</title>
<path fill="none" stroke="#d71383" d="M591.284,-64.9976C587.507,-58.3871 583.397,-51.1939 579.573,-44.502"/>
<ellipse fill="none" stroke="#d71383" cx="593.333" cy="-68.582" rx="4.00002" ry="4.00002"/>
<polygon fill="#d71383" stroke="#d71383" points="579.555,-44.4714 578.501,-33.5564 577.074,-40.1302 574.594,-35.789 574.594,-35.789 574.594,-35.789 577.074,-40.1302 570.687,-38.0216 579.555,-44.4714 579.555,-44.4714"/>
</g>
<!-- User -->
<g id="node34" class="node"><title>User</title>
<ellipse fill="none" stroke="black" cx="1867" cy="-331" rx="28.9087" ry="18"/>
<text text-anchor="middle" x="1867" y="-325.4" font-family="Times,serif" font-size="14.00">User</text>
</g>
</g>
</svg>
