<?xml version="1.0" encoding="UTF-8" standalone="no"?>
<!DOCTYPE svg PUBLIC "-//W3C//DTD SVG 1.1//EN"
 "http://www.w3.org/Graphics/SVG/1.1/DTD/svg11.dtd">
<!-- Generated by graphviz version 2.28.0 (20120111.1910)
 -->
<!-- Title: models_diagram Pages: 1 -->
<svg width="3517pt" height="308pt"
 viewBox="0.00 0.00 3517.00 308.00" xmlns="http://www.w3.org/2000/svg" xmlns:xlink="http://www.w3.org/1999/xlink">
<g id="graph1" class="graph" transform="scale(1 1) rotate(0) translate(4 304)">
<title>models_diagram</title>
<polygon fill="white" stroke="white" points="-4,5 -4,-304 3514,-304 3514,5 -4,5"/>
<!-- _diagram_info -->
<g id="node1" class="node"><title>_diagram_info</title>
<text text-anchor="start" x="1620" y="-283.8" font-family="Times,serif" font-size="13.00">Models diagram</text>
<text text-anchor="start" x="1620" y="-268.8" font-family="Times,serif" font-size="13.00">Date: Jan 23 2012 &#45; 15:45</text>
<text text-anchor="start" x="1620" y="-253.8" font-family="Times,serif" font-size="13.00">Migration version: 20120123233654</text>
<text text-anchor="start" x="1620" y="-238.8" font-family="Times,serif" font-size="13.00">Generated by RailRoady 1.0.4</text>
<text text-anchor="start" x="1620" y="-223.8" font-family="Times,serif" font-size="13.00">http://railroady.prestonlee.com</text>
</g>
<!-- Accusation -->
<g id="node2" class="node"><title>Accusation</title>
<ellipse fill="none" stroke="black" cx="190" cy="-90" rx="53.4979" ry="18"/>
<text text-anchor="middle" x="190" y="-85.4" font-family="Times,serif" font-size="14.00">Accusation</text>
</g>
<!-- Article -->
<g id="node3" class="node"><title>Article</title>
<ellipse fill="none" stroke="black" cx="299" cy="-90" rx="36.3442" ry="18"/>
<text text-anchor="middle" x="299" y="-85.4" font-family="Times,serif" font-size="14.00">Article</text>
</g>
<!-- Attachment -->
<g id="node4" class="node"><title>Attachment</title>
<ellipse fill="none" stroke="black" cx="299" cy="-18" rx="55.0109" ry="18"/>
<text text-anchor="middle" x="299" y="-13.4" font-family="Times,serif" font-size="14.00">Attachment</text>
</g>
<!-- Article&#45;&gt;Attachment -->
<g id="edge2" class="edge"><title>Article&#45;&gt;Attachment</title>
<path fill="none" stroke="black" d="M299,-63.6398C299,-58.0629 299,-52.1319 299,-46.4761"/>
<ellipse fill="none" stroke="black" cx="299" cy="-67.6966" rx="4" ry="4"/>
<polygon fill="black" stroke="black" points="299,-46.1043 303.5,-36.1043 299,-41.1043 299,-36.1043 299,-36.1043 299,-36.1043 299,-41.1043 294.5,-36.1044 299,-46.1043 299,-46.1043"/>
</g>
<!-- BusinessAssociate -->
<g id="node5" class="node"><title>BusinessAssociate</title>
<ellipse fill="none" stroke="black" cx="434" cy="-90" rx="80.2477" ry="18"/>
<text text-anchor="middle" x="434" y="-85.4" font-family="Times,serif" font-size="14.00">BusinessAssociate</text>
</g>
<!-- CampaignPlatform -->
<g id="node6" class="node"><title>CampaignPlatform</title>
<ellipse fill="none" stroke="black" cx="614" cy="-90" rx="81.2541" ry="18"/>
<text text-anchor="middle" x="614" y="-85.4" font-family="Times,serif" font-size="14.00">CampaignPlatform</text>
</g>
<!-- Contributor -->
<g id="node7" class="node"><title>Contributor</title>
<ellipse fill="none" stroke="black" cx="768" cy="-90" rx="54.0057" ry="18"/>
<text text-anchor="middle" x="768" y="-85.4" font-family="Times,serif" font-size="14.00">Contributor</text>
</g>
<!-- ContributorsInterestGroup -->
<g id="node8" class="node"><title>ContributorsInterestGroup</title>
<ellipse fill="none" stroke="black" cx="950" cy="-90" rx="110.022" ry="18"/>
<text text-anchor="middle" x="950" y="-85.4" font-family="Times,serif" font-size="14.00">ContributorsInterestGroup</text>
</g>
<!-- ContributorsInterestGroupSector -->
<g id="node9" class="node"><title>ContributorsInterestGroupSector</title>
<ellipse fill="none" stroke="black" cx="1212" cy="-90" rx="133.24" ry="18"/>
<text text-anchor="middle" x="1212" y="-85.4" font-family="Times,serif" font-size="14.00">ContributorsInterestGroupSector</text>
</g>
<!-- ContributorsPac -->
<g id="node10" class="node"><title>ContributorsPac</title>
<ellipse fill="none" stroke="black" cx="1435" cy="-90" rx="71.1686" ry="18"/>
<text text-anchor="middle" x="1435" y="-85.4" font-family="Times,serif" font-size="14.00">ContributorsPac</text>
</g>
<!-- Degree -->
<g id="node11" class="node"><title>Degree</title>
<ellipse fill="none" stroke="black" cx="1951" cy="-18" rx="38.3559" ry="18"/>
<text text-anchor="middle" x="1951" y="-13.4" font-family="Times,serif" font-size="14.00">Degree</text>
</g>
<!-- Earmark -->
<g id="node12" class="node"><title>Earmark</title>
<ellipse fill="none" stroke="black" cx="1607" cy="-90" rx="43.4045" ry="18"/>
<text text-anchor="middle" x="1607" y="-85.4" font-family="Times,serif" font-size="14.00">Earmark</text>
</g>
<!-- Endorsement -->
<g id="node13" class="node"><title>Endorsement</title>
<ellipse fill="none" stroke="black" cx="1730" cy="-90" rx="61.067" ry="18"/>
<text text-anchor="middle" x="1730" y="-85.4" font-family="Times,serif" font-size="14.00">Endorsement</text>
</g>
<!-- FamilyMember -->
<g id="node14" class="node"><title>FamilyMember</title>
<ellipse fill="none" stroke="black" cx="1878" cy="-90" rx="69.1418" ry="18"/>
<text text-anchor="middle" x="1878" y="-85.4" font-family="Times,serif" font-size="14.00">FamilyMember</text>
</g>
<!-- FlipFlop -->
<g id="node15" class="node"><title>FlipFlop</title>
<ellipse fill="none" stroke="black" cx="2007" cy="-90" rx="41.8946" ry="18"/>
<text text-anchor="middle" x="2007" y="-85.4" font-family="Times,serif" font-size="14.00">FlipFlop</text>
</g>
<!-- IssuePosition -->
<g id="node16" class="node"><title>IssuePosition</title>
<ellipse fill="none" stroke="black" cx="2128" cy="-90" rx="60.0614" ry="18"/>
<text text-anchor="middle" x="2128" y="-85.4" font-family="Times,serif" font-size="14.00">IssuePosition</text>
</g>
<!-- Litigation -->
<g id="node17" class="node"><title>Litigation</title>
<ellipse fill="none" stroke="black" cx="2253" cy="-90" rx="46.4366" ry="18"/>
<text text-anchor="middle" x="2253" y="-85.4" font-family="Times,serif" font-size="14.00">Litigation</text>
</g>
<!-- Organization -->
<g id="node18" class="node"><title>Organization</title>
<ellipse fill="none" stroke="black" cx="59" cy="-90" rx="59.0483" ry="18"/>
<text text-anchor="middle" x="59" y="-85.4" font-family="Times,serif" font-size="14.00">Organization</text>
</g>
<!-- Person -->
<g id="node19" class="node"><title>Person</title>
<ellipse fill="none" stroke="black" cx="1878" cy="-162" rx="36.3442" ry="18"/>
<text text-anchor="middle" x="1878" y="-157.4" font-family="Times,serif" font-size="14.00">Person</text>
</g>
<!-- Organization&#45;&gt;Person -->
<g id="edge4" class="edge"><title>Organization&#45;&gt;Person</title>
<path fill="none" stroke="black" d="M112.03,-103.499C120.052,-105.31 128.225,-106.923 136,-108 477.742,-155.329 1589.02,-160.396 1831.18,-160.936"/>
<ellipse fill="none" stroke="black" cx="107.973" cy="-102.547" rx="4.00001" ry="4.00001"/>
<polygon fill="black" stroke="black" points="1831.4,-160.936 1841.39,-165.457 1836.4,-160.947 1841.4,-160.957 1841.4,-160.957 1841.4,-160.957 1836.4,-160.947 1841.4,-156.457 1831.4,-160.936 1831.4,-160.936"/>
</g>
<!-- Person&#45;&gt;Accusation -->
<g id="edge26" class="edge"><title>Person&#45;&gt;Accusation</title>
<path fill="none" stroke="black" d="M1833.32,-160.936C1605.35,-160.396 570.309,-155.335 253,-108 248.016,-107.256 242.861,-106.258 237.746,-105.116"/>
<ellipse fill="none" stroke="black" cx="1837.4" cy="-160.945" rx="4" ry="4"/>
<polygon fill="black" stroke="black" points="237.736,-105.113 229.068,-98.396 232.875,-103.942 228.014,-102.771 228.014,-102.771 228.014,-102.771 232.875,-103.942 226.96,-107.146 237.736,-105.113 237.736,-105.113"/>
</g>
<!-- Person&#45;&gt;Article -->
<g id="edge48" class="edge"><title>Person&#45;&gt;Article</title>
<path fill="none" stroke="black" d="M1833.64,-160.309C1597.6,-156.521 494.21,-137.359 345,-108 341.826,-107.375 338.58,-106.562 335.354,-105.629"/>
<ellipse fill="none" stroke="black" cx="1837.67" cy="-160.374" rx="4" ry="4"/>
<polygon fill="black" stroke="black" points="335.341,-105.624 327.215,-98.2611 330.585,-104.083 325.828,-102.542 325.828,-102.542 325.828,-102.542 330.585,-104.083 324.441,-106.823 335.341,-105.624 335.341,-105.624"/>
</g>
<!-- Person&#45;&gt;BusinessAssociate -->
<g id="edge8" class="edge"><title>Person&#45;&gt;BusinessAssociate</title>
<path fill="none" stroke="black" d="M1833.5,-160.142C1629.96,-156.083 786.401,-137.753 524,-108 516.335,-107.131 508.342,-105.981 500.422,-104.687"/>
<ellipse fill="none" stroke="black" cx="1837.59" cy="-160.223" rx="4" ry="4"/>
<polygon fill="black" stroke="black" points="500.315,-104.669 491.217,-98.5464 495.387,-103.825 490.458,-102.982 490.458,-102.982 490.458,-102.982 495.387,-103.825 489.699,-107.417 500.315,-104.669 500.315,-104.669"/>
</g>
<!-- Person&#45;&gt;CampaignPlatform -->
<g id="edge24" class="edge"><title>Person&#45;&gt;CampaignPlatform</title>
<path fill="none" stroke="black" d="M1833.36,-161.22C1677.43,-161.513 1142.69,-158.521 705,-108 697.254,-107.106 689.176,-105.94 681.169,-104.638"/>
<ellipse fill="none" stroke="black" cx="1837.37" cy="-161.211" rx="4" ry="4"/>
<polygon fill="black" stroke="black" points="680.955,-104.601 671.851,-98.4889 676.026,-103.763 671.096,-102.925 671.096,-102.925 671.096,-102.925 676.026,-103.763 670.342,-107.362 680.955,-104.601 680.955,-104.601"/>
</g>
<!-- Person&#45;&gt;Contributor -->
<g id="edge36" class="edge"><title>Person&#45;&gt;Contributor</title>
<path fill="none" stroke="black" d="M1833.49,-160.01C1659.97,-155.953 1028.76,-139.32 831,-108 826.217,-107.242 821.274,-106.264 816.359,-105.159"/>
<ellipse fill="none" stroke="black" cx="1837.65" cy="-160.106" rx="4" ry="4"/>
<polygon fill="black" stroke="black" points="816.088,-105.094 807.424,-98.3707 811.227,-103.919 806.367,-102.745 806.367,-102.745 806.367,-102.745 811.227,-103.919 805.31,-107.119 816.088,-105.094 816.088,-105.094"/>
</g>
<!-- Person&#45;&gt;ContributorsInterestGroup -->
<g id="edge40" class="edge"><title>Person&#45;&gt;ContributorsInterestGroup</title>
<path fill="none" stroke="black" d="M1833.63,-159.264C1711.55,-154.233 1360.47,-138.058 1070,-108 1059.42,-106.906 1048.35,-105.581 1037.38,-104.159"/>
<ellipse fill="none" stroke="black" cx="1837.68" cy="-159.429" rx="4" ry="4"/>
<polygon fill="black" stroke="black" points="1037.27,-104.145 1027.95,-98.3696 1032.31,-103.488 1027.36,-102.831 1027.36,-102.831 1027.36,-102.831 1032.31,-103.488 1026.77,-107.292 1037.27,-104.145 1037.27,-104.145"/>
</g>
<!-- Person&#45;&gt;ContributorsInterestGroupSector -->
<g id="edge42" class="edge"><title>Person&#45;&gt;ContributorsInterestGroupSector</title>
<path fill="none" stroke="black" d="M1834.34,-156.857C1744.41,-148.264 1532.03,-127.658 1354,-108 1342.02,-106.678 1329.49,-105.246 1317.03,-103.793"/>
<ellipse fill="none" stroke="black" cx="1838.41" cy="-157.246" rx="4" ry="4"/>
<polygon fill="black" stroke="black" points="1317,-103.79 1307.59,-98.1564 1312.03,-103.208 1307.07,-102.626 1307.07,-102.626 1307.07,-102.626 1312.03,-103.208 1306.54,-107.095 1317,-103.79 1317,-103.79"/>
</g>
<!-- Person&#45;&gt;ContributorsPac -->
<g id="edge38" class="edge"><title>Person&#45;&gt;ContributorsPac</title>
<path fill="none" stroke="black" d="M1834.95,-155.285C1767.76,-146.214 1633.94,-127.535 1521,-108 1513.7,-106.737 1506.07,-105.341 1498.49,-103.906"/>
<ellipse fill="none" stroke="black" cx="1839.23" cy="-155.862" rx="4.00001" ry="4.00001"/>
<polygon fill="black" stroke="black" points="1498.42,-103.892 1489.45,-97.5871 1493.51,-102.949 1488.6,-102.006 1488.6,-102.006 1488.6,-102.006 1493.51,-102.949 1487.75,-106.426 1498.42,-103.892 1498.42,-103.892"/>
</g>
<!-- Person&#45;&gt;Degree -->
<g id="edge14" class="edge"><title>Person&#45;&gt;Degree</title>
<path fill="none" stroke="black" d="M1833.11,-160.516C1752.73,-158.594 1589.3,-149.541 1554,-108 1543.64,-95.8072 1543.46,-84.039 1554,-72 1576.73,-46.0389 1802.84,-28.4754 1903.32,-21.8931"/>
<ellipse fill="none" stroke="black" cx="1837.56" cy="-160.612" rx="4" ry="4"/>
<polygon fill="black" stroke="black" points="1903.52,-21.8802 1913.79,-25.7262 1908.51,-21.5579 1913.5,-21.2356 1913.5,-21.2356 1913.5,-21.2356 1908.51,-21.5579 1913.21,-16.745 1903.52,-21.8802 1903.52,-21.8802"/>
</g>
<!-- Person&#45;&gt;Earmark -->
<g id="edge32" class="edge"><title>Person&#45;&gt;Earmark</title>
<path fill="none" stroke="black" d="M1837.44,-152.057C1793.49,-142.154 1721.41,-125.291 1660,-108 1656.59,-107.041 1653.08,-106.009 1649.56,-104.944"/>
<ellipse fill="none" stroke="black" cx="1841.41" cy="-152.947" rx="4.00001" ry="4.00001"/>
<polygon fill="black" stroke="black" points="1649.24,-104.846 1641.01,-97.5905 1644.46,-103.368 1639.68,-101.889 1639.68,-101.889 1639.68,-101.889 1644.46,-103.368 1638.35,-106.188 1649.24,-104.846 1649.24,-104.846"/>
</g>
<!-- Person&#45;&gt;Endorsement -->
<g id="edge18" class="edge"><title>Person&#45;&gt;Endorsement</title>
<path fill="none" stroke="black" d="M1845.08,-145.431C1823.02,-134.994 1793.81,-121.181 1770.35,-110.082"/>
<ellipse fill="none" stroke="black" cx="1848.94" cy="-147.256" rx="4.00002" ry="4.00002"/>
<polygon fill="black" stroke="black" points="1770.05,-109.941 1762.93,-101.597 1765.53,-107.803 1761.01,-105.665 1761.01,-105.665 1761.01,-105.665 1765.53,-107.803 1759.08,-109.733 1770.05,-109.941 1770.05,-109.941"/>
</g>
<!-- Person&#45;&gt;FamilyMember -->
<g id="edge6" class="edge"><title>Person&#45;&gt;FamilyMember</title>
<path fill="none" stroke="black" d="M1878,-135.64C1878,-130.063 1878,-124.132 1878,-118.476"/>
<ellipse fill="none" stroke="black" cx="1878" cy="-139.697" rx="4" ry="4"/>
<polygon fill="black" stroke="black" points="1878,-118.104 1882.5,-108.104 1878,-113.104 1878,-108.104 1878,-108.104 1878,-108.104 1878,-113.104 1873.5,-108.104 1878,-118.104 1878,-118.104"/>
</g>
<!-- Person&#45;&gt;FlipFlop -->
<g id="edge22" class="edge"><title>Person&#45;&gt;FlipFlop</title>
<path fill="none" stroke="black" d="M1908.91,-144.229C1928.13,-133.796 1952.89,-120.364 1972.72,-109.604"/>
<ellipse fill="none" stroke="black" cx="1905.18" cy="-146.253" rx="4.00002" ry="4.00002"/>
<polygon fill="black" stroke="black" points="1972.94,-109.484 1983.87,-108.67 1977.33,-107.1 1981.73,-104.715 1981.73,-104.715 1981.73,-104.715 1977.33,-107.1 1979.58,-100.76 1972.94,-109.484 1972.94,-109.484"/>
</g>
<!-- Person&#45;&gt;IssuePosition -->
<g id="edge20" class="edge"><title>Person&#45;&gt;IssuePosition</title>
<path fill="none" stroke="black" d="M1916.8,-150.135C1959.48,-138.186 2028.28,-118.921 2075.7,-105.645"/>
<ellipse fill="none" stroke="black" cx="1912.76" cy="-151.268" rx="4.00001" ry="4.00001"/>
<polygon fill="black" stroke="black" points="2075.84,-105.604 2086.69,-107.241 2080.66,-104.256 2085.47,-102.907 2085.47,-102.907 2085.47,-102.907 2080.66,-104.256 2084.26,-98.574 2075.84,-105.604 2075.84,-105.604"/>
</g>
<!-- Person&#45;&gt;Litigation -->
<g id="edge28" class="edge"><title>Person&#45;&gt;Litigation</title>
<path fill="none" stroke="black" d="M1921.19,-155.64C1982.84,-147.579 2099.43,-130.814 2197,-108 2200.84,-107.102 2204.81,-106.085 2208.77,-105.006"/>
<ellipse fill="none" stroke="black" cx="1917.19" cy="-156.159" rx="4.00001" ry="4.00001"/>
<polygon fill="black" stroke="black" points="2208.92,-104.963 2219.77,-106.558 2213.73,-103.596 2218.54,-102.229 2218.54,-102.229 2218.54,-102.229 2213.73,-103.596 2217.31,-97.9007 2208.92,-104.963 2208.92,-104.963"/>
</g>
<!-- Person&#45;&gt;Organization -->
<g id="edge50" class="edge"><title>Person&#45;&gt;Organization</title>
<path fill="none" stroke="black" d="M1830.97,-160.947C1586.75,-160.465 462.153,-155.663 118,-108 114.111,-107.461 110.122,-106.788 106.138,-106.024"/>
<polygon fill="black" stroke="black" points="1831.27,-160.947 1841.26,-165.465 1836.27,-160.956 1841.27,-160.965 1841.27,-160.965 1841.27,-160.965 1836.27,-160.956 1841.28,-156.465 1831.27,-160.947 1831.27,-160.947"/>
<polygon fill="black" stroke="black" points="106.091,-106.014 97.2305,-99.5537 101.198,-104.986 96.3051,-103.958 96.3051,-103.958 96.3051,-103.958 101.198,-104.986 95.3797,-108.361 106.091,-106.014 106.091,-106.014"/>
</g>
<!-- PersonVideo -->
<g id="node20" class="node"><title>PersonVideo</title>
<ellipse fill="none" stroke="black" cx="3450" cy="-18" rx="59.0483" ry="18"/>
<text text-anchor="middle" x="3450" y="-13.4" font-family="Times,serif" font-size="14.00">PersonVideo</text>
</g>
<!-- Person&#45;&gt;PersonVideo -->
<g id="edge44" class="edge"><title>Person&#45;&gt;PersonVideo</title>
<path fill="none" stroke="black" d="M1922.77,-161.234C2174.76,-162.337 3407.06,-164.806 3462,-108 3477.83,-91.6266 3471.69,-64.9561 3463.49,-45.0736"/>
<ellipse fill="none" stroke="black" cx="1918.56" cy="-161.215" rx="4" ry="4"/>
<polygon fill="black" stroke="black" points="3463.48,-45.057 3463.5,-34.0911 3461.44,-40.4951 3459.39,-35.9332 3459.39,-35.9332 3459.39,-35.9332 3461.44,-40.4951 3455.29,-37.7753 3463.48,-45.057 3463.48,-45.057"/>
</g>
<!-- PersonalAsset -->
<g id="node21" class="node"><title>PersonalAsset</title>
<ellipse fill="none" stroke="black" cx="2499" cy="-90" rx="63.5914" ry="18"/>
<text text-anchor="middle" x="2499" y="-85.4" font-family="Times,serif" font-size="14.00">PersonalAsset</text>
</g>
<!-- Person&#45;&gt;PersonalAsset -->
<g id="edge10" class="edge"><title>Person&#45;&gt;PersonalAsset</title>
<path fill="none" stroke="black" d="M1922.22,-158.714C2015.72,-153.445 2240.14,-138.492 2426,-108 2431.68,-107.069 2437.57,-105.952 2443.43,-104.742"/>
<ellipse fill="none" stroke="black" cx="1918.11" cy="-158.943" rx="4" ry="4"/>
<polygon fill="black" stroke="black" points="2443.46,-104.737 2454.18,-107.033 2448.35,-103.686 2453.23,-102.634 2453.23,-102.634 2453.23,-102.634 2448.35,-103.686 2452.29,-98.2346 2443.46,-104.737 2443.46,-104.737"/>
</g>
<!-- PoliticalOffice -->
<g id="node22" class="node"><title>PoliticalOffice</title>
<ellipse fill="none" stroke="black" cx="2644" cy="-90" rx="63.5914" ry="18"/>
<text text-anchor="middle" x="2644" y="-85.4" font-family="Times,serif" font-size="14.00">PoliticalOffice</text>
</g>
<!-- Person&#45;&gt;PoliticalOffice -->
<g id="edge30" class="edge"><title>Person&#45;&gt;PoliticalOffice</title>
<path fill="none" stroke="black" d="M1922.55,-159.944C2032.99,-156.818 2328.07,-145.353 2571,-108 2576.77,-107.113 2582.75,-106.015 2588.71,-104.808"/>
<ellipse fill="none" stroke="black" cx="1918.29" cy="-160.062" rx="4" ry="4"/>
<polygon fill="black" stroke="black" points="2588.87,-104.774 2599.59,-107.091 2593.76,-103.732 2598.65,-102.69 2598.65,-102.69 2598.65,-102.69 2593.76,-103.732 2597.71,-98.2884 2588.87,-104.774 2588.87,-104.774"/>
</g>
<!-- ProfessionalExperience -->
<g id="node23" class="node"><title>ProfessionalExperience</title>
<ellipse fill="none" stroke="black" cx="2824" cy="-90" rx="97.41" ry="18"/>
<text text-anchor="middle" x="2824" y="-85.4" font-family="Times,serif" font-size="14.00">ProfessionalExperience</text>
</g>
<!-- Person&#45;&gt;ProfessionalExperience -->
<g id="edge54" class="edge"><title>Person&#45;&gt;ProfessionalExperience</title>
<path fill="none" stroke="black" d="M1922.71,-159.636C2048.15,-155.493 2413.94,-141.253 2716,-108 2725.45,-106.959 2735.34,-105.675 2745.13,-104.282"/>
<ellipse fill="none" stroke="black" cx="1918.45" cy="-159.775" rx="4" ry="4"/>
<polygon fill="black" stroke="black" points="2745.39,-104.245 2755.93,-107.25 2750.33,-103.521 2755.28,-102.797 2755.28,-102.797 2755.28,-102.797 2750.33,-103.521 2754.63,-98.3447 2745.39,-104.245 2745.39,-104.245"/>
</g>
<!-- SponsoredLegislation -->
<g id="node25" class="node"><title>SponsoredLegislation</title>
<ellipse fill="none" stroke="black" cx="3032" cy="-90" rx="91.3542" ry="18"/>
<text text-anchor="middle" x="3032" y="-85.4" font-family="Times,serif" font-size="14.00">SponsoredLegislation</text>
</g>
<!-- Person&#45;&gt;SponsoredLegislation -->
<g id="edge52" class="edge"><title>Person&#45;&gt;SponsoredLegislation</title>
<path fill="none" stroke="black" d="M1922.77,-160.58C2068.35,-158.823 2541.4,-150.032 2930,-108 2938.98,-107.029 2948.37,-105.783 2957.66,-104.408"/>
<ellipse fill="none" stroke="black" cx="1918.46" cy="-160.63" rx="4" ry="4"/>
<polygon fill="black" stroke="black" points="2957.79,-104.387 2968.36,-107.32 2962.73,-103.629 2967.68,-102.872 2967.68,-102.872 2967.68,-102.872 2962.73,-103.629 2966.99,-98.4237 2957.79,-104.387 2957.79,-104.387"/>
</g>
<!-- Supporter -->
<g id="node26" class="node"><title>Supporter</title>
<ellipse fill="none" stroke="black" cx="3190" cy="-90" rx="47.4419" ry="18"/>
<text text-anchor="middle" x="3190" y="-85.4" font-family="Times,serif" font-size="14.00">Supporter</text>
</g>
<!-- Person&#45;&gt;Supporter -->
<g id="edge34" class="edge"><title>Person&#45;&gt;Supporter</title>
<path fill="none" stroke="black" d="M1922.42,-160.567C2116.63,-158.452 2891.97,-147.642 3132,-108 3136.49,-107.259 3141.12,-106.281 3145.72,-105.168"/>
<ellipse fill="none" stroke="black" cx="1918.42" cy="-160.61" rx="4" ry="4"/>
<polygon fill="black" stroke="black" points="3145.99,-105.096 3156.81,-106.907 3150.83,-103.825 3155.66,-102.554 3155.66,-102.554 3155.66,-102.554 3150.83,-103.825 3154.52,-98.2022 3145.99,-105.096 3145.99,-105.096"/>
</g>
<!-- Transaction -->
<g id="node28" class="node"><title>Transaction</title>
<ellipse fill="none" stroke="black" cx="3311" cy="-90" rx="55.5166" ry="18"/>
<text text-anchor="middle" x="3311" y="-85.4" font-family="Times,serif" font-size="14.00">Transaction</text>
</g>
<!-- Person&#45;&gt;Transaction -->
<g id="edge12" class="edge"><title>Person&#45;&gt;Transaction</title>
<path fill="none" stroke="black" d="M1922.68,-160.572C2127.96,-158.407 2981.93,-147.172 3246,-108 3251.13,-107.239 3256.44,-106.229 3261.72,-105.079"/>
<ellipse fill="none" stroke="black" cx="1918.52" cy="-160.615" rx="4" ry="4"/>
<polygon fill="black" stroke="black" points="3262.02,-105.009 3272.78,-107.107 3266.89,-103.867 3271.75,-102.726 3271.75,-102.726 3271.75,-102.726 3266.89,-103.867 3270.73,-98.3448 3262.02,-105.009 3262.02,-105.009"/>
</g>
<!-- University -->
<g id="node29" class="node"><title>University</title>
<ellipse fill="none" stroke="black" cx="2368" cy="-90" rx="49.4606" ry="18"/>
<text text-anchor="middle" x="2368" y="-85.4" font-family="Times,serif" font-size="14.00">University</text>
</g>
<!-- Person&#45;&gt;University -->
<g id="edge16" class="edge"><title>Person&#45;&gt;University</title>
<path fill="none" stroke="black" d="M1924.09,-157.654C2003.21,-151.392 2169.7,-135.943 2308,-108 2312.48,-107.095 2317.11,-106.026 2321.73,-104.873"/>
<polygon fill="black" stroke="black" points="1923.95,-157.665 1913.63,-153.956 1918.96,-158.054 1913.98,-158.442 1913.98,-158.442 1913.98,-158.442 1918.96,-158.054 1914.33,-162.929 1923.95,-157.665 1923.95,-157.665"/>
<polygon fill="black" stroke="black" points="2322.06,-104.785 2332.87,-106.594 2326.89,-103.513 2331.73,-102.242 2331.73,-102.242 2331.73,-102.242 2326.89,-103.513 2330.59,-97.8897 2322.06,-104.785 2322.06,-104.785"/>
</g>
<!-- Video -->
<g id="node31" class="node"><title>Video</title>
<ellipse fill="none" stroke="black" cx="3419" cy="-90" rx="34.3184" ry="18"/>
<text text-anchor="middle" x="3419" y="-85.4" font-family="Times,serif" font-size="14.00">Video</text>
</g>
<!-- Person&#45;&gt;Video -->
<g id="edge46" class="edge"><title>Person&#45;&gt;Video</title>
<path fill="none" stroke="black" d="M1922.78,-160.257C2155.55,-156.394 3221.37,-137.625 3366,-108 3370.99,-106.979 3376.15,-105.451 3381.23,-103.723"/>
<ellipse fill="none" stroke="black" cx="1918.53" cy="-160.328" rx="4" ry="4"/>
<polygon fill="black" stroke="black" points="3381.44,-103.646 3392.38,-104.465 3386.14,-101.94 3390.84,-100.234 3390.84,-100.234 3390.84,-100.234 3386.14,-101.94 3389.31,-96.0044 3381.44,-103.646 3381.44,-103.646"/>
</g>
<!-- Religion -->
<g id="node24" class="node"><title>Religion</title>
<ellipse fill="none" stroke="black" cx="1878" cy="-258" rx="41.8946" ry="18"/>
<text text-anchor="middle" x="1878" y="-253.4" font-family="Times,serif" font-size="14.00">Religion</text>
</g>
<!-- Religion&#45;&gt;Person -->
<g id="edge56" class="edge"><title>Religion&#45;&gt;Person</title>
<path fill="none" stroke="black" d="M1878,-229.408C1878,-217.069 1878,-202.565 1878,-190.264"/>
<polygon fill="black" stroke="black" points="1878,-229.759 1873.5,-239.759 1878,-234.759 1878,-239.759 1878,-239.759 1878,-239.759 1878,-234.759 1882.5,-239.759 1878,-229.759 1878,-229.759"/>
<polygon fill="black" stroke="black" points="1878,-190.132 1882.5,-180.132 1878,-185.132 1878,-180.132 1878,-180.132 1878,-180.132 1878,-185.132 1873.5,-180.132 1878,-190.132 1878,-190.132"/>
</g>
<!-- Test -->
<g id="node27" class="node"><title>Test</title>
<ellipse fill="none" stroke="black" cx="1966" cy="-258" rx="27.2554" ry="18"/>
<text text-anchor="middle" x="1966" y="-253.4" font-family="Times,serif" font-size="14.00">Test</text>
</g>
<!-- University&#45;&gt;Degree -->
<g id="edge58" class="edge"><title>University&#45;&gt;Degree</title>
<path fill="none" stroke="black" d="M2323.35,-75.6682C2318.2,-74.3325 2313,-73.0751 2308,-72 2197.87,-48.327 2066.37,-31.766 1997.82,-24.0023"/>
<ellipse fill="none" stroke="black" cx="2327.52" cy="-76.7823" rx="4.00001" ry="4.00001"/>
<polygon fill="black" stroke="black" points="1997.71,-23.99 1988.27,-18.4044 1992.74,-23.4332 1987.77,-22.8764 1987.77,-22.8764 1987.77,-22.8764 1992.74,-23.4332 1987.27,-27.3485 1997.71,-23.99 1997.71,-23.99"/>
</g>
<!-- User -->
<g id="node30" class="node"><title>User</title>
<ellipse fill="none" stroke="black" cx="2040" cy="-258" rx="28.271" ry="18"/>
<text text-anchor="middle" x="2040" y="-253.4" font-family="Times,serif" font-size="14.00">User</text>
</g>
<!-- Video&#45;&gt;Person -->
<g id="edge62" class="edge"><title>Video&#45;&gt;Person</title>
<path fill="none" stroke="black" d="M3387.82,-107.131C3386.54,-107.45 3385.26,-107.741 3384,-108 3238.63,-137.776 2162.61,-156.586 1924.51,-160.316"/>
<polygon fill="black" stroke="black" points="3387.95,-107.092 3398.82,-108.542 3392.74,-105.661 3397.53,-104.23 3397.53,-104.23 3397.53,-104.23 3392.74,-105.661 3396.24,-99.9186 3387.95,-107.092 3387.95,-107.092"/>
<polygon fill="black" stroke="black" points="1924.45,-160.316 1914.38,-155.972 1919.45,-160.394 1914.45,-160.472 1914.45,-160.472 1914.45,-160.472 1919.45,-160.394 1914.52,-164.971 1924.45,-160.316 1924.45,-160.316"/>
</g>
<!-- Video&#45;&gt;PersonVideo -->
<g id="edge60" class="edge"><title>Video&#45;&gt;PersonVideo</title>
<path fill="none" stroke="black" d="M3429.6,-65.0625C3432.45,-58.6325 3435.54,-51.6473 3438.44,-45.106"/>
<ellipse fill="none" stroke="black" cx="3427.97" cy="-68.7536" rx="4.00002" ry="4.00002"/>
<polygon fill="black" stroke="black" points="3438.44,-45.0997 3446.61,-37.7784 3440.47,-40.528 3442.49,-35.9562 3442.49,-35.9562 3442.49,-35.9562 3440.47,-40.528 3438.38,-34.134 3438.44,-45.0997 3438.44,-45.0997"/>
</g>
</g>
</svg>
