<?xml version="1.0" encoding="UTF-8" standalone="no"?>
<!DOCTYPE svg PUBLIC "-//W3C//DTD SVG 1.1//EN"
 "http://www.w3.org/Graphics/SVG/1.1/DTD/svg11.dtd">
<!-- Generated by graphviz version 2.28.0 (20120111.1910)
 -->
<!-- Title: models_diagram Pages: 1 -->
<svg width="1548pt" height="308pt"
 viewBox="0.00 0.00 1548.00 308.00" xmlns="http://www.w3.org/2000/svg" xmlns:xlink="http://www.w3.org/1999/xlink">
<g id="graph1" class="graph" transform="scale(1 1) rotate(0) translate(4 304)">
<title>models_diagram</title>
<polygon fill="white" stroke="white" points="-4,5 -4,-304 1545,-304 1545,5 -4,5"/>
<!-- _diagram_info -->
<g id="node1" class="node"><title>_diagram_info</title>
<text text-anchor="start" x="447" y="-283.8" font-family="Times,serif" font-size="13.00">Models diagram</text>
<text text-anchor="start" x="447" y="-268.8" font-family="Times,serif" font-size="13.00">Date: Jan 11 2012 &#45; 11:28</text>
<text text-anchor="start" x="447" y="-253.8" font-family="Times,serif" font-size="13.00">Migration version: 20120111000732</text>
<text text-anchor="start" x="447" y="-238.8" font-family="Times,serif" font-size="13.00">Generated by RailRoady 1.0.4</text>
<text text-anchor="start" x="447" y="-223.8" font-family="Times,serif" font-size="13.00">http://railroady.prestonlee.com</text>
</g>
<!-- Accusation -->
<g id="node2" class="node"><title>Accusation</title>
<ellipse fill="none" stroke="black" cx="190" cy="-90" rx="53.4979" ry="18"/>
<text text-anchor="middle" x="190" y="-85.4" font-family="Times,serif" font-size="14.00">Accusation</text>
</g>
<!-- Article -->
<g id="node3" class="node"><title>Article</title>
<ellipse fill="none" stroke="black" cx="299" cy="-90" rx="36.3442" ry="18"/>
<text text-anchor="middle" x="299" y="-85.4" font-family="Times,serif" font-size="14.00">Article</text>
</g>
<!-- BusinessAssociate -->
<g id="node4" class="node"><title>BusinessAssociate</title>
<ellipse fill="none" stroke="black" cx="434" cy="-90" rx="80.2477" ry="18"/>
<text text-anchor="middle" x="434" y="-85.4" font-family="Times,serif" font-size="14.00">BusinessAssociate</text>
</g>
<!-- Degree -->
<g id="node5" class="node"><title>Degree</title>
<ellipse fill="none" stroke="black" cx="973" cy="-18" rx="38.3559" ry="18"/>
<text text-anchor="middle" x="973" y="-13.4" font-family="Times,serif" font-size="14.00">Degree</text>
</g>
<!-- Endorsement -->
<g id="node6" class="node"><title>Endorsement</title>
<ellipse fill="none" stroke="black" cx="631" cy="-90" rx="61.067" ry="18"/>
<text text-anchor="middle" x="631" y="-85.4" font-family="Times,serif" font-size="14.00">Endorsement</text>
</g>
<!-- FamilyMember -->
<g id="node7" class="node"><title>FamilyMember</title>
<ellipse fill="none" stroke="black" cx="779" cy="-90" rx="69.1418" ry="18"/>
<text text-anchor="middle" x="779" y="-85.4" font-family="Times,serif" font-size="14.00">FamilyMember</text>
</g>
<!-- FlipFlop -->
<g id="node8" class="node"><title>FlipFlop</title>
<ellipse fill="none" stroke="black" cx="908" cy="-90" rx="41.8946" ry="18"/>
<text text-anchor="middle" x="908" y="-85.4" font-family="Times,serif" font-size="14.00">FlipFlop</text>
</g>
<!-- Litigation -->
<g id="node9" class="node"><title>Litigation</title>
<ellipse fill="none" stroke="black" cx="1015" cy="-90" rx="46.4366" ry="18"/>
<text text-anchor="middle" x="1015" y="-85.4" font-family="Times,serif" font-size="14.00">Litigation</text>
</g>
<!-- Organization -->
<g id="node10" class="node"><title>Organization</title>
<ellipse fill="none" stroke="black" cx="59" cy="-90" rx="59.0483" ry="18"/>
<text text-anchor="middle" x="59" y="-85.4" font-family="Times,serif" font-size="14.00">Organization</text>
</g>
<!-- Person -->
<g id="node11" class="node"><title>Person</title>
<ellipse fill="none" stroke="black" cx="705" cy="-162" rx="36.3442" ry="18"/>
<text text-anchor="middle" x="705" y="-157.4" font-family="Times,serif" font-size="14.00">Person</text>
</g>
<!-- Organization&#45;&gt;Person -->
<g id="edge2" class="edge"><title>Organization&#45;&gt;Person</title>
<path fill="none" stroke="black" d="M113.14,-103.342C120.817,-105.105 128.599,-106.743 136,-108 328.665,-140.717 561.129,-154.28 658.611,-158.934"/>
<ellipse fill="none" stroke="black" cx="108.768" cy="-102.311" rx="4.00001" ry="4.00001"/>
<polygon fill="black" stroke="black" points="658.732,-158.939 668.51,-163.903 663.726,-159.174 668.721,-159.408 668.721,-159.408 668.721,-159.408 663.726,-159.174 668.932,-154.913 658.732,-158.939 658.732,-158.939"/>
</g>
<!-- Person&#45;&gt;Accusation -->
<g id="edge22" class="edge"><title>Person&#45;&gt;Accusation</title>
<path fill="none" stroke="black" d="M660.965,-157.995C579.753,-151.977 401.144,-136.513 253,-108 248.31,-107.097 243.457,-106.031 238.621,-104.879"/>
<ellipse fill="none" stroke="black" cx="664.994" cy="-158.29" rx="4" ry="4"/>
<polygon fill="black" stroke="black" points="238.478,-104.844 229.866,-98.0548 233.627,-103.632 228.776,-102.421 228.776,-102.421 228.776,-102.421 233.627,-103.632 227.685,-106.787 238.478,-104.844 238.478,-104.844"/>
</g>
<!-- Person&#45;&gt;Article -->
<g id="edge12" class="edge"><title>Person&#45;&gt;Article</title>
<path fill="none" stroke="black" d="M661.266,-157.514C592.929,-151.41 457.047,-136.621 345,-108 342.043,-107.245 339.013,-106.368 335.987,-105.418"/>
<ellipse fill="none" stroke="black" cx="665.274" cy="-157.866" rx="4" ry="4"/>
<polygon fill="black" stroke="black" points="335.911,-105.392 327.874,-97.9316 331.173,-103.794 326.435,-102.196 326.435,-102.196 326.435,-102.196 331.173,-103.794 324.997,-106.459 335.911,-105.392 335.911,-105.392"/>
</g>
<!-- Person&#45;&gt;BusinessAssociate -->
<g id="edge18" class="edge"><title>Person&#45;&gt;BusinessAssociate</title>
<path fill="none" stroke="black" d="M665.425,-150.778C620.513,-139.177 546.737,-120.12 494.572,-106.646"/>
<ellipse fill="none" stroke="black" cx="669.51" cy="-151.833" rx="4.00001" ry="4.00001"/>
<polygon fill="black" stroke="black" points="494.452,-106.615 485.895,-99.7568 489.61,-105.364 484.769,-104.114 484.769,-104.114 484.769,-104.114 489.61,-105.364 483.644,-108.471 494.452,-106.615 494.452,-106.615"/>
</g>
<!-- Person&#45;&gt;Degree -->
<g id="edge6" class="edge"><title>Person&#45;&gt;Degree</title>
<path fill="none" stroke="black" d="M663.732,-152.264C609.886,-139.071 526.382,-111.356 561,-72 584.744,-45.0059 821.462,-27.9085 924.972,-21.668"/>
<ellipse fill="none" stroke="black" cx="667.879" cy="-153.253" rx="4.00001" ry="4.00001"/>
<polygon fill="black" stroke="black" points="925.168,-21.6564 935.418,-25.5555 930.16,-21.3599 935.151,-21.0634 935.151,-21.0634 935.151,-21.0634 930.16,-21.3599 934.884,-16.5714 925.168,-21.6564 925.168,-21.6564"/>
</g>
<!-- Person&#45;&gt;Endorsement -->
<g id="edge20" class="edge"><title>Person&#45;&gt;Endorsement</title>
<path fill="none" stroke="black" d="M683.036,-140.223C674.456,-132.107 664.577,-122.762 655.747,-114.409"/>
<ellipse fill="none" stroke="black" cx="686.037" cy="-143.062" rx="4.00002" ry="4.00002"/>
<polygon fill="black" stroke="black" points="655.581,-114.252 651.409,-104.111 651.948,-110.816 648.316,-107.38 648.316,-107.38 648.316,-107.38 651.948,-110.816 645.224,-110.649 655.581,-114.252 655.581,-114.252"/>
</g>
<!-- Person&#45;&gt;FamilyMember -->
<g id="edge8" class="edge"><title>Person&#45;&gt;FamilyMember</title>
<path fill="none" stroke="black" d="M726.92,-140.265C735.435,-132.21 745.235,-122.94 754.02,-114.629"/>
<ellipse fill="none" stroke="black" cx="723.963" cy="-143.062" rx="4.00002" ry="4.00002"/>
<polygon fill="black" stroke="black" points="754.157,-114.5 764.514,-110.897 757.79,-111.064 761.422,-107.628 761.422,-107.628 761.422,-107.628 757.79,-111.064 758.33,-104.359 754.157,-114.5 754.157,-114.5"/>
</g>
<!-- Person&#45;&gt;FlipFlop -->
<g id="edge14" class="edge"><title>Person&#45;&gt;FlipFlop</title>
<path fill="none" stroke="black" d="M741.95,-148.258C777.083,-136.144 829.851,-117.948 866.434,-105.333"/>
<ellipse fill="none" stroke="black" cx="737.866" cy="-149.667" rx="4.00001" ry="4.00001"/>
<polygon fill="black" stroke="black" points="866.841,-105.193 877.762,-106.187 871.568,-103.563 876.295,-101.933 876.295,-101.933 876.295,-101.933 871.568,-103.563 874.828,-97.6785 866.841,-105.193 866.841,-105.193"/>
</g>
<!-- Person&#45;&gt;Litigation -->
<g id="edge24" class="edge"><title>Person&#45;&gt;Litigation</title>
<path fill="none" stroke="black" d="M747.008,-153.422C797.595,-144.024 884.997,-126.913 959,-108 962.768,-107.037 966.662,-105.982 970.559,-104.883"/>
<ellipse fill="none" stroke="black" cx="742.844" cy="-154.192" rx="4.00001" ry="4.00001"/>
<polygon fill="black" stroke="black" points="970.58,-104.878 981.437,-106.415 975.382,-103.485 980.184,-102.093 980.184,-102.093 980.184,-102.093 975.382,-103.485 978.931,-97.7709 970.58,-104.878 970.58,-104.878"/>
</g>
<!-- Person&#45;&gt;Organization -->
<g id="edge16" class="edge"><title>Person&#45;&gt;Organization</title>
<path fill="none" stroke="black" d="M658.552,-159.371C558.694,-155.165 317.097,-141.809 118,-108 114.536,-107.412 110.988,-106.74 107.432,-106.011"/>
<polygon fill="black" stroke="black" points="658.621,-159.373 668.428,-164.279 663.617,-159.578 668.613,-159.783 668.613,-159.783 668.613,-159.783 663.617,-159.578 668.797,-155.287 658.621,-159.373 658.621,-159.373"/>
<polygon fill="black" stroke="black" points="107.223,-105.965 98.4167,-99.4306 102.339,-104.896 97.4543,-103.826 97.4543,-103.826 97.4543,-103.826 102.339,-104.896 96.492,-108.222 107.223,-105.965 107.223,-105.965"/>
</g>
<!-- PersonalAsset -->
<g id="node12" class="node"><title>PersonalAsset</title>
<ellipse fill="none" stroke="black" cx="1144" cy="-90" rx="63.5914" ry="18"/>
<text text-anchor="middle" x="1144" y="-85.4" font-family="Times,serif" font-size="14.00">PersonalAsset</text>
</g>
<!-- Person&#45;&gt;PersonalAsset -->
<g id="edge28" class="edge"><title>Person&#45;&gt;PersonalAsset</title>
<path fill="none" stroke="black" d="M748.14,-155.894C816.628,-147.528 954.329,-129.647 1070,-108 1075.73,-106.928 1081.68,-105.72 1087.62,-104.454"/>
<ellipse fill="none" stroke="black" cx="744.108" cy="-156.384" rx="4.00001" ry="4.00001"/>
<polygon fill="black" stroke="black" points="1087.77,-104.42 1098.5,-106.678 1092.66,-103.351 1097.54,-102.282 1097.54,-102.282 1097.54,-102.282 1092.66,-103.351 1096.58,-97.8865 1087.77,-104.42 1087.77,-104.42"/>
</g>
<!-- Transaction -->
<g id="node15" class="node"><title>Transaction</title>
<ellipse fill="none" stroke="black" cx="1281" cy="-90" rx="55.5166" ry="18"/>
<text text-anchor="middle" x="1281" y="-85.4" font-family="Times,serif" font-size="14.00">Transaction</text>
</g>
<!-- Person&#45;&gt;Transaction -->
<g id="edge26" class="edge"><title>Person&#45;&gt;Transaction</title>
<path fill="none" stroke="black" d="M749.451,-158.676C838.554,-153.514 1045.12,-139.02 1216,-108 1220.97,-107.099 1226.11,-106.016 1231.23,-104.84"/>
<ellipse fill="none" stroke="black" cx="745.193" cy="-158.918" rx="4" ry="4"/>
<polygon fill="black" stroke="black" points="1231.27,-104.83 1242.05,-106.859 1236.13,-103.657 1240.99,-102.485 1240.99,-102.485 1240.99,-102.485 1236.13,-103.657 1239.94,-98.1104 1231.27,-104.83 1231.27,-104.83"/>
</g>
<!-- University -->
<g id="node16" class="node"><title>University</title>
<ellipse fill="none" stroke="black" cx="1404" cy="-90" rx="49.4606" ry="18"/>
<text text-anchor="middle" x="1404" y="-85.4" font-family="Times,serif" font-size="14.00">University</text>
</g>
<!-- Person&#45;&gt;University -->
<g id="edge4" class="edge"><title>Person&#45;&gt;University</title>
<path fill="none" stroke="black" d="M751.468,-160.293C857.544,-157.997 1125.32,-148.333 1345,-108 1349.42,-107.188 1353.99,-106.181 1358.54,-105.066"/>
<polygon fill="black" stroke="black" points="751.415,-160.294 741.325,-156 746.416,-160.396 741.417,-160.499 741.417,-160.499 741.417,-160.499 746.416,-160.396 741.509,-164.998 751.415,-160.294 751.415,-160.294"/>
<polygon fill="black" stroke="black" points="1358.72,-105.02 1369.53,-106.84 1363.55,-103.754 1368.39,-102.487 1368.39,-102.487 1368.39,-102.487 1363.55,-103.754 1367.25,-98.1339 1358.72,-105.02 1358.72,-105.02"/>
</g>
<!-- Video -->
<g id="node17" class="node"><title>Video</title>
<ellipse fill="none" stroke="black" cx="1506" cy="-90" rx="34.3184" ry="18"/>
<text text-anchor="middle" x="1506" y="-85.4" font-family="Times,serif" font-size="14.00">Video</text>
</g>
<!-- Person&#45;&gt;Video -->
<g id="edge10" class="edge"><title>Person&#45;&gt;Video</title>
<path fill="none" stroke="black" d="M749.32,-159.632C889.918,-155.021 1324.73,-138.595 1462,-108 1465.02,-107.327 1468.11,-106.482 1471.18,-105.531"/>
<ellipse fill="none" stroke="black" cx="745.27" cy="-159.764" rx="4" ry="4"/>
<polygon fill="black" stroke="black" points="1471.35,-105.47 1482.27,-106.466 1476.08,-103.841 1480.81,-102.212 1480.81,-102.212 1480.81,-102.212 1476.08,-103.841 1479.34,-97.9573 1471.35,-105.47 1471.35,-105.47"/>
</g>
<!-- ProfessionalExperience -->
<g id="node13" class="node"><title>ProfessionalExperience</title>
<ellipse fill="none" stroke="black" cx="863" cy="-258" rx="97.41" ry="18"/>
<text text-anchor="middle" x="863" y="-253.4" font-family="Times,serif" font-size="14.00">ProfessionalExperience</text>
</g>
<!-- Religion -->
<g id="node14" class="node"><title>Religion</title>
<ellipse fill="none" stroke="black" cx="705" cy="-258" rx="41.8946" ry="18"/>
<text text-anchor="middle" x="705" y="-253.4" font-family="Times,serif" font-size="14.00">Religion</text>
</g>
<!-- Religion&#45;&gt;Person -->
<g id="edge30" class="edge"><title>Religion&#45;&gt;Person</title>
<path fill="none" stroke="black" d="M705,-229.408C705,-217.069 705,-202.565 705,-190.264"/>
<polygon fill="black" stroke="black" points="705,-229.759 700.5,-239.759 705,-234.759 705,-239.759 705,-239.759 705,-239.759 705,-234.759 709.5,-239.759 705,-229.759 705,-229.759"/>
<polygon fill="black" stroke="black" points="705,-190.132 709.5,-180.132 705,-185.132 705,-180.132 705,-180.132 705,-180.132 705,-185.132 700.5,-180.132 705,-190.132 705,-190.132"/>
</g>
<!-- University&#45;&gt;Degree -->
<g id="edge32" class="edge"><title>University&#45;&gt;Degree</title>
<path fill="none" stroke="black" d="M1359.9,-75.5728C1354.9,-74.2652 1349.86,-73.0404 1345,-72 1229.33,-47.2217 1090.88,-30.9541 1019.96,-23.5725"/>
<ellipse fill="none" stroke="black" cx="1363.83" cy="-76.6363" rx="4.00001" ry="4.00001"/>
<polygon fill="black" stroke="black" points="1019.94,-23.5709 1010.46,-18.0715 1014.97,-23.0594 1010,-22.5479 1010,-22.5479 1010,-22.5479 1014.97,-23.0594 1009.54,-27.0243 1019.94,-23.5709 1019.94,-23.5709"/>
</g>
</g>
</svg>
